<?xml version="1.0" encoding="utf-8" standalone="no"?>
<!DOCTYPE svg PUBLIC "-//W3C//DTD SVG 1.1//EN"
  "http://www.w3.org/Graphics/SVG/1.1/DTD/svg11.dtd">
<!-- Created with matplotlib (https://matplotlib.org/) -->
<svg height="720pt" version="1.1" viewBox="0 0 1008 720" width="1008pt" xmlns="http://www.w3.org/2000/svg" xmlns:xlink="http://www.w3.org/1999/xlink">
 <defs>
  <style type="text/css">
*{stroke-linecap:butt;stroke-linejoin:round;}
  </style>
 </defs>
 <g id="figure_1">
  <g id="patch_1">
   <path d="M 0 720 
L 1008 720 
L 1008 0 
L 0 0 
z
" style="fill:#ffffff;"/>
  </g>
  <g id="axes_1">
   <g id="patch_2">
    <path d="M 97.776 640.8 
L 957.6 640.8 
L 957.6 36 
L 97.776 36 
z
" style="fill:#ffffff;"/>
   </g>
   <g id="matplotlib.axis_1">
    <g id="xtick_1">
     <g id="line2d_1">
      <defs>
       <path d="M 0 0 
L 0 3.5 
" id="me56c9bdb30" style="stroke:#000000;stroke-width:0.8;"/>
      </defs>
      <g>
       <use style="stroke:#000000;stroke-width:0.8;" x="139.307142" xlink:href="#me56c9bdb30" y="640.8"/>
      </g>
     </g>
     <g id="text_1">
      <!-- $\mathdefault{1}$ -->
      <defs>
       <path d="M 12.40625 8.296875 
L 28.515625 8.296875 
L 28.515625 63.921875 
L 10.984375 60.40625 
L 10.984375 69.390625 
L 28.421875 72.90625 
L 38.28125 72.90625 
L 38.28125 8.296875 
L 54.390625 8.296875 
L 54.390625 0 
L 12.40625 0 
z
" id="DejaVuSans-49"/>
      </defs>
      <g transform="translate(131.307142 666.796094)scale(0.25 -0.25)">
       <use transform="translate(0 0.09375)" xlink:href="#DejaVuSans-49"/>
      </g>
     </g>
    </g>
    <g id="xtick_2">
     <g id="line2d_2">
      <g>
       <use style="stroke:#000000;stroke-width:0.8;" x="352.121705" xlink:href="#me56c9bdb30" y="640.8"/>
      </g>
     </g>
     <g id="text_2">
      <!-- $\mathdefault{10}$ -->
      <defs>
       <path d="M 31.78125 66.40625 
Q 24.171875 66.40625 20.328125 58.90625 
Q 16.5 51.421875 16.5 36.375 
Q 16.5 21.390625 20.328125 13.890625 
Q 24.171875 6.390625 31.78125 6.390625 
Q 39.453125 6.390625 43.28125 13.890625 
Q 47.125 21.390625 47.125 36.375 
Q 47.125 51.421875 43.28125 58.90625 
Q 39.453125 66.40625 31.78125 66.40625 
z
M 31.78125 74.21875 
Q 44.046875 74.21875 50.515625 64.515625 
Q 56.984375 54.828125 56.984375 36.375 
Q 56.984375 17.96875 50.515625 8.265625 
Q 44.046875 -1.421875 31.78125 -1.421875 
Q 19.53125 -1.421875 13.0625 8.265625 
Q 6.59375 17.96875 6.59375 36.375 
Q 6.59375 54.828125 13.0625 64.515625 
Q 19.53125 74.21875 31.78125 74.21875 
z
" id="DejaVuSans-48"/>
      </defs>
      <g transform="translate(336.121705 666.796094)scale(0.25 -0.25)">
       <use transform="translate(0 0.78125)" xlink:href="#DejaVuSans-49"/>
       <use transform="translate(63.623047 0.78125)" xlink:href="#DejaVuSans-48"/>
      </g>
     </g>
    </g>
    <g id="xtick_3">
     <g id="line2d_3">
      <g>
       <use style="stroke:#000000;stroke-width:0.8;" x="564.936267" xlink:href="#me56c9bdb30" y="640.8"/>
      </g>
     </g>
     <g id="text_3">
      <!-- $\mathdefault{100}$ -->
      <g transform="translate(541.061267 666.796094)scale(0.25 -0.25)">
       <use transform="translate(0 0.78125)" xlink:href="#DejaVuSans-49"/>
       <use transform="translate(63.623047 0.78125)" xlink:href="#DejaVuSans-48"/>
       <use transform="translate(127.246094 0.78125)" xlink:href="#DejaVuSans-48"/>
      </g>
     </g>
    </g>
    <g id="xtick_4">
     <g id="line2d_4">
      <g>
       <use style="stroke:#000000;stroke-width:0.8;" x="777.75083" xlink:href="#me56c9bdb30" y="640.8"/>
      </g>
     </g>
     <g id="text_4">
      <!-- $\mathdefault{1000}$ -->
      <g transform="translate(745.87583 666.796094)scale(0.25 -0.25)">
       <use transform="translate(0 0.78125)" xlink:href="#DejaVuSans-49"/>
       <use transform="translate(63.623047 0.78125)" xlink:href="#DejaVuSans-48"/>
       <use transform="translate(127.246094 0.78125)" xlink:href="#DejaVuSans-48"/>
       <use transform="translate(190.869141 0.78125)" xlink:href="#DejaVuSans-48"/>
      </g>
     </g>
    </g>
    <g id="xtick_5">
     <g id="line2d_5">
      <g>
       <use style="stroke:#000000;stroke-width:0.8;" x="957.6" xlink:href="#me56c9bdb30" y="640.8"/>
      </g>
     </g>
     <g id="text_5">
      <!-- $\mathdefault{7000}$ -->
      <defs>
       <path d="M 8.203125 72.90625 
L 55.078125 72.90625 
L 55.078125 68.703125 
L 28.609375 0 
L 18.3125 0 
L 43.21875 64.59375 
L 8.203125 64.59375 
z
" id="DejaVuSans-55"/>
      </defs>
      <g transform="translate(925.725 666.796094)scale(0.25 -0.25)">
       <use transform="translate(0 0.78125)" xlink:href="#DejaVuSans-55"/>
       <use transform="translate(63.623047 0.78125)" xlink:href="#DejaVuSans-48"/>
       <use transform="translate(127.246094 0.78125)" xlink:href="#DejaVuSans-48"/>
       <use transform="translate(190.869141 0.78125)" xlink:href="#DejaVuSans-48"/>
      </g>
     </g>
    </g>
    <g id="xtick_6">
     <g id="line2d_6">
      <defs>
       <path d="M 0 0 
L 0 2 
" id="mb920549fb6" style="stroke:#000000;stroke-width:0.6;"/>
      </defs>
      <g>
       <use style="stroke:#000000;stroke-width:0.6;" x="106.341749" xlink:href="#mb920549fb6" y="640.8"/>
      </g>
     </g>
    </g>
    <g id="xtick_7">
     <g id="line2d_7">
      <g>
       <use style="stroke:#000000;stroke-width:0.6;" x="118.68328" xlink:href="#mb920549fb6" y="640.8"/>
      </g>
     </g>
    </g>
    <g id="xtick_8">
     <g id="line2d_8">
      <g>
       <use style="stroke:#000000;stroke-width:0.6;" x="129.569281" xlink:href="#mb920549fb6" y="640.8"/>
      </g>
     </g>
    </g>
    <g id="xtick_9">
     <g id="line2d_9">
      <g>
       <use style="stroke:#000000;stroke-width:0.6;" x="203.370709" xlink:href="#mb920549fb6" y="640.8"/>
      </g>
     </g>
    </g>
    <g id="xtick_10">
     <g id="line2d_10">
      <g>
       <use style="stroke:#000000;stroke-width:0.6;" x="240.845493" xlink:href="#mb920549fb6" y="640.8"/>
      </g>
     </g>
    </g>
    <g id="xtick_11">
     <g id="line2d_11">
      <g>
       <use style="stroke:#000000;stroke-width:0.6;" x="267.434276" xlink:href="#mb920549fb6" y="640.8"/>
      </g>
     </g>
    </g>
    <g id="xtick_12">
     <g id="line2d_12">
      <g>
       <use style="stroke:#000000;stroke-width:0.6;" x="288.058138" xlink:href="#mb920549fb6" y="640.8"/>
      </g>
     </g>
    </g>
    <g id="xtick_13">
     <g id="line2d_13">
      <g>
       <use style="stroke:#000000;stroke-width:0.6;" x="304.90906" xlink:href="#mb920549fb6" y="640.8"/>
      </g>
     </g>
    </g>
    <g id="xtick_14">
     <g id="line2d_14">
      <g>
       <use style="stroke:#000000;stroke-width:0.6;" x="319.156312" xlink:href="#mb920549fb6" y="640.8"/>
      </g>
     </g>
    </g>
    <g id="xtick_15">
     <g id="line2d_15">
      <g>
       <use style="stroke:#000000;stroke-width:0.6;" x="331.497842" xlink:href="#mb920549fb6" y="640.8"/>
      </g>
     </g>
    </g>
    <g id="xtick_16">
     <g id="line2d_16">
      <g>
       <use style="stroke:#000000;stroke-width:0.6;" x="342.383844" xlink:href="#mb920549fb6" y="640.8"/>
      </g>
     </g>
    </g>
    <g id="xtick_17">
     <g id="line2d_17">
      <g>
       <use style="stroke:#000000;stroke-width:0.6;" x="416.185271" xlink:href="#mb920549fb6" y="640.8"/>
      </g>
     </g>
    </g>
    <g id="xtick_18">
     <g id="line2d_18">
      <g>
       <use style="stroke:#000000;stroke-width:0.6;" x="453.660056" xlink:href="#mb920549fb6" y="640.8"/>
      </g>
     </g>
    </g>
    <g id="xtick_19">
     <g id="line2d_19">
      <g>
       <use style="stroke:#000000;stroke-width:0.6;" x="480.248838" xlink:href="#mb920549fb6" y="640.8"/>
      </g>
     </g>
    </g>
    <g id="xtick_20">
     <g id="line2d_20">
      <g>
       <use style="stroke:#000000;stroke-width:0.6;" x="500.8727" xlink:href="#mb920549fb6" y="640.8"/>
      </g>
     </g>
    </g>
    <g id="xtick_21">
     <g id="line2d_21">
      <g>
       <use style="stroke:#000000;stroke-width:0.6;" x="517.723623" xlink:href="#mb920549fb6" y="640.8"/>
      </g>
     </g>
    </g>
    <g id="xtick_22">
     <g id="line2d_22">
      <g>
       <use style="stroke:#000000;stroke-width:0.6;" x="531.970874" xlink:href="#mb920549fb6" y="640.8"/>
      </g>
     </g>
    </g>
    <g id="xtick_23">
     <g id="line2d_23">
      <g>
       <use style="stroke:#000000;stroke-width:0.6;" x="544.312405" xlink:href="#mb920549fb6" y="640.8"/>
      </g>
     </g>
    </g>
    <g id="xtick_24">
     <g id="line2d_24">
      <g>
       <use style="stroke:#000000;stroke-width:0.6;" x="555.198407" xlink:href="#mb920549fb6" y="640.8"/>
      </g>
     </g>
    </g>
    <g id="xtick_25">
     <g id="line2d_25">
      <g>
       <use style="stroke:#000000;stroke-width:0.6;" x="628.999834" xlink:href="#mb920549fb6" y="640.8"/>
      </g>
     </g>
    </g>
    <g id="xtick_26">
     <g id="line2d_26">
      <g>
       <use style="stroke:#000000;stroke-width:0.6;" x="666.474619" xlink:href="#mb920549fb6" y="640.8"/>
      </g>
     </g>
    </g>
    <g id="xtick_27">
     <g id="line2d_27">
      <g>
       <use style="stroke:#000000;stroke-width:0.6;" x="693.063401" xlink:href="#mb920549fb6" y="640.8"/>
      </g>
     </g>
    </g>
    <g id="xtick_28">
     <g id="line2d_28">
      <g>
       <use style="stroke:#000000;stroke-width:0.6;" x="713.687263" xlink:href="#mb920549fb6" y="640.8"/>
      </g>
     </g>
    </g>
    <g id="xtick_29">
     <g id="line2d_29">
      <g>
       <use style="stroke:#000000;stroke-width:0.6;" x="730.538185" xlink:href="#mb920549fb6" y="640.8"/>
      </g>
     </g>
    </g>
    <g id="xtick_30">
     <g id="line2d_30">
      <g>
       <use style="stroke:#000000;stroke-width:0.6;" x="744.785437" xlink:href="#mb920549fb6" y="640.8"/>
      </g>
     </g>
    </g>
    <g id="xtick_31">
     <g id="line2d_31">
      <g>
       <use style="stroke:#000000;stroke-width:0.6;" x="757.126968" xlink:href="#mb920549fb6" y="640.8"/>
      </g>
     </g>
    </g>
    <g id="xtick_32">
     <g id="line2d_32">
      <g>
       <use style="stroke:#000000;stroke-width:0.6;" x="768.01297" xlink:href="#mb920549fb6" y="640.8"/>
      </g>
     </g>
    </g>
    <g id="xtick_33">
     <g id="line2d_33">
      <g>
       <use style="stroke:#000000;stroke-width:0.6;" x="841.814397" xlink:href="#mb920549fb6" y="640.8"/>
      </g>
     </g>
    </g>
    <g id="xtick_34">
     <g id="line2d_34">
      <g>
       <use style="stroke:#000000;stroke-width:0.6;" x="879.289181" xlink:href="#mb920549fb6" y="640.8"/>
      </g>
     </g>
    </g>
    <g id="xtick_35">
     <g id="line2d_35">
      <g>
       <use style="stroke:#000000;stroke-width:0.6;" x="905.877964" xlink:href="#mb920549fb6" y="640.8"/>
      </g>
     </g>
    </g>
    <g id="xtick_36">
     <g id="line2d_36">
      <g>
       <use style="stroke:#000000;stroke-width:0.6;" x="926.501826" xlink:href="#mb920549fb6" y="640.8"/>
      </g>
     </g>
    </g>
    <g id="xtick_37">
     <g id="line2d_37">
      <g>
       <use style="stroke:#000000;stroke-width:0.6;" x="943.352748" xlink:href="#mb920549fb6" y="640.8"/>
      </g>
     </g>
    </g>
    <g id="xtick_38">
     <g id="line2d_38">
      <g>
       <use style="stroke:#000000;stroke-width:0.6;" x="957.6" xlink:href="#mb920549fb6" y="640.8"/>
      </g>
     </g>
    </g>
    <g id="text_6">
     <!-- # Epochs -->
     <defs>
      <path d="M 51.125 44 
L 36.921875 44 
L 32.8125 27.6875 
L 47.125 27.6875 
z
M 43.796875 71.78125 
L 38.71875 51.515625 
L 52.984375 51.515625 
L 58.109375 71.78125 
L 65.921875 71.78125 
L 60.890625 51.515625 
L 76.125 51.515625 
L 76.125 44 
L 58.984375 44 
L 54.984375 27.6875 
L 70.515625 27.6875 
L 70.515625 20.21875 
L 53.078125 20.21875 
L 48 0 
L 40.1875 0 
L 45.21875 20.21875 
L 30.90625 20.21875 
L 25.875 0 
L 18.015625 0 
L 23.09375 20.21875 
L 7.71875 20.21875 
L 7.71875 27.6875 
L 24.90625 27.6875 
L 29 44 
L 13.28125 44 
L 13.28125 51.515625 
L 30.90625 51.515625 
L 35.890625 71.78125 
z
" id="DejaVuSans-35"/>
      <path id="DejaVuSans-32"/>
      <path d="M 9.8125 72.90625 
L 55.90625 72.90625 
L 55.90625 64.59375 
L 19.671875 64.59375 
L 19.671875 43.015625 
L 54.390625 43.015625 
L 54.390625 34.71875 
L 19.671875 34.71875 
L 19.671875 8.296875 
L 56.78125 8.296875 
L 56.78125 0 
L 9.8125 0 
z
" id="DejaVuSans-69"/>
      <path d="M 18.109375 8.203125 
L 18.109375 -20.796875 
L 9.078125 -20.796875 
L 9.078125 54.6875 
L 18.109375 54.6875 
L 18.109375 46.390625 
Q 20.953125 51.265625 25.265625 53.625 
Q 29.59375 56 35.59375 56 
Q 45.5625 56 51.78125 48.09375 
Q 58.015625 40.1875 58.015625 27.296875 
Q 58.015625 14.40625 51.78125 6.484375 
Q 45.5625 -1.421875 35.59375 -1.421875 
Q 29.59375 -1.421875 25.265625 0.953125 
Q 20.953125 3.328125 18.109375 8.203125 
z
M 48.6875 27.296875 
Q 48.6875 37.203125 44.609375 42.84375 
Q 40.53125 48.484375 33.40625 48.484375 
Q 26.265625 48.484375 22.1875 42.84375 
Q 18.109375 37.203125 18.109375 27.296875 
Q 18.109375 17.390625 22.1875 11.75 
Q 26.265625 6.109375 33.40625 6.109375 
Q 40.53125 6.109375 44.609375 11.75 
Q 48.6875 17.390625 48.6875 27.296875 
z
" id="DejaVuSans-112"/>
      <path d="M 30.609375 48.390625 
Q 23.390625 48.390625 19.1875 42.75 
Q 14.984375 37.109375 14.984375 27.296875 
Q 14.984375 17.484375 19.15625 11.84375 
Q 23.34375 6.203125 30.609375 6.203125 
Q 37.796875 6.203125 41.984375 11.859375 
Q 46.1875 17.53125 46.1875 27.296875 
Q 46.1875 37.015625 41.984375 42.703125 
Q 37.796875 48.390625 30.609375 48.390625 
z
M 30.609375 56 
Q 42.328125 56 49.015625 48.375 
Q 55.71875 40.765625 55.71875 27.296875 
Q 55.71875 13.875 49.015625 6.21875 
Q 42.328125 -1.421875 30.609375 -1.421875 
Q 18.84375 -1.421875 12.171875 6.21875 
Q 5.515625 13.875 5.515625 27.296875 
Q 5.515625 40.765625 12.171875 48.375 
Q 18.84375 56 30.609375 56 
z
" id="DejaVuSans-111"/>
      <path d="M 48.78125 52.59375 
L 48.78125 44.1875 
Q 44.96875 46.296875 41.140625 47.34375 
Q 37.3125 48.390625 33.40625 48.390625 
Q 24.65625 48.390625 19.8125 42.84375 
Q 14.984375 37.3125 14.984375 27.296875 
Q 14.984375 17.28125 19.8125 11.734375 
Q 24.65625 6.203125 33.40625 6.203125 
Q 37.3125 6.203125 41.140625 7.25 
Q 44.96875 8.296875 48.78125 10.40625 
L 48.78125 2.09375 
Q 45.015625 0.34375 40.984375 -0.53125 
Q 36.96875 -1.421875 32.421875 -1.421875 
Q 20.0625 -1.421875 12.78125 6.34375 
Q 5.515625 14.109375 5.515625 27.296875 
Q 5.515625 40.671875 12.859375 48.328125 
Q 20.21875 56 33.015625 56 
Q 37.15625 56 41.109375 55.140625 
Q 45.0625 54.296875 48.78125 52.59375 
z
" id="DejaVuSans-99"/>
      <path d="M 54.890625 33.015625 
L 54.890625 0 
L 45.90625 0 
L 45.90625 32.71875 
Q 45.90625 40.484375 42.875 44.328125 
Q 39.84375 48.1875 33.796875 48.1875 
Q 26.515625 48.1875 22.3125 43.546875 
Q 18.109375 38.921875 18.109375 30.90625 
L 18.109375 0 
L 9.078125 0 
L 9.078125 75.984375 
L 18.109375 75.984375 
L 18.109375 46.1875 
Q 21.34375 51.125 25.703125 53.5625 
Q 30.078125 56 35.796875 56 
Q 45.21875 56 50.046875 50.171875 
Q 54.890625 44.34375 54.890625 33.015625 
z
" id="DejaVuSans-104"/>
      <path d="M 44.28125 53.078125 
L 44.28125 44.578125 
Q 40.484375 46.53125 36.375 47.5 
Q 32.28125 48.484375 27.875 48.484375 
Q 21.1875 48.484375 17.84375 46.4375 
Q 14.5 44.390625 14.5 40.28125 
Q 14.5 37.15625 16.890625 35.375 
Q 19.28125 33.59375 26.515625 31.984375 
L 29.59375 31.296875 
Q 39.15625 29.25 43.1875 25.515625 
Q 47.21875 21.78125 47.21875 15.09375 
Q 47.21875 7.46875 41.1875 3.015625 
Q 35.15625 -1.421875 24.609375 -1.421875 
Q 20.21875 -1.421875 15.453125 -0.5625 
Q 10.6875 0.296875 5.421875 2 
L 5.421875 11.28125 
Q 10.40625 8.6875 15.234375 7.390625 
Q 20.0625 6.109375 24.8125 6.109375 
Q 31.15625 6.109375 34.5625 8.28125 
Q 37.984375 10.453125 37.984375 14.40625 
Q 37.984375 18.0625 35.515625 20.015625 
Q 33.0625 21.96875 24.703125 23.78125 
L 21.578125 24.515625 
Q 13.234375 26.265625 9.515625 29.90625 
Q 5.8125 33.546875 5.8125 39.890625 
Q 5.8125 47.609375 11.28125 51.796875 
Q 16.75 56 26.8125 56 
Q 31.78125 56 36.171875 55.265625 
Q 40.578125 54.546875 44.28125 53.078125 
z
" id="DejaVuSans-115"/>
     </defs>
     <g transform="translate(456.604406 698.790625)scale(0.3 -0.3)">
      <use xlink:href="#DejaVuSans-35"/>
      <use x="83.789062" xlink:href="#DejaVuSans-32"/>
      <use x="115.576172" xlink:href="#DejaVuSans-69"/>
      <use x="178.759766" xlink:href="#DejaVuSans-112"/>
      <use x="242.236328" xlink:href="#DejaVuSans-111"/>
      <use x="303.417969" xlink:href="#DejaVuSans-99"/>
      <use x="358.398438" xlink:href="#DejaVuSans-104"/>
      <use x="421.777344" xlink:href="#DejaVuSans-115"/>
     </g>
    </g>
   </g>
   <g id="matplotlib.axis_2">
    <g id="ytick_1">
     <g id="line2d_39">
      <defs>
       <path d="M 0 0 
L -3.5 0 
" id="m8d824b69fe" style="stroke:#000000;stroke-width:0.8;"/>
      </defs>
      <g>
       <use style="stroke:#000000;stroke-width:0.8;" x="97.776" xlink:href="#m8d824b69fe" y="640.8"/>
      </g>
     </g>
     <g id="text_7">
      <!-- $10^{-4}$ -->
      <defs>
       <path d="M 10.59375 35.5 
L 73.1875 35.5 
L 73.1875 27.203125 
L 10.59375 27.203125 
z
" id="DejaVuSans-8722"/>
       <path d="M 37.796875 64.3125 
L 12.890625 25.390625 
L 37.796875 25.390625 
z
M 35.203125 72.90625 
L 47.609375 72.90625 
L 47.609375 25.390625 
L 58.015625 25.390625 
L 58.015625 17.1875 
L 47.609375 17.1875 
L 47.609375 0 
L 37.796875 0 
L 37.796875 17.1875 
L 4.890625 17.1875 
L 4.890625 26.703125 
z
" id="DejaVuSans-52"/>
      </defs>
      <g transform="translate(20.276 652.197656)scale(0.3 -0.3)">
       <use transform="translate(0 0.684375)" xlink:href="#DejaVuSans-49"/>
       <use transform="translate(63.623047 0.684375)" xlink:href="#DejaVuSans-48"/>
       <use transform="translate(128.203125 38.965625)scale(0.7)" xlink:href="#DejaVuSans-8722"/>
       <use transform="translate(186.855469 38.965625)scale(0.7)" xlink:href="#DejaVuSans-52"/>
      </g>
     </g>
    </g>
    <g id="ytick_2">
     <g id="line2d_40">
      <g>
       <use style="stroke:#000000;stroke-width:0.8;" x="97.776" xlink:href="#m8d824b69fe" y="489.6"/>
      </g>
     </g>
     <g id="text_8">
      <!-- $10^{-3}$ -->
      <defs>
       <path d="M 40.578125 39.3125 
Q 47.65625 37.796875 51.625 33 
Q 55.609375 28.21875 55.609375 21.1875 
Q 55.609375 10.40625 48.1875 4.484375 
Q 40.765625 -1.421875 27.09375 -1.421875 
Q 22.515625 -1.421875 17.65625 -0.515625 
Q 12.796875 0.390625 7.625 2.203125 
L 7.625 11.71875 
Q 11.71875 9.328125 16.59375 8.109375 
Q 21.484375 6.890625 26.8125 6.890625 
Q 36.078125 6.890625 40.9375 10.546875 
Q 45.796875 14.203125 45.796875 21.1875 
Q 45.796875 27.640625 41.28125 31.265625 
Q 36.765625 34.90625 28.71875 34.90625 
L 20.21875 34.90625 
L 20.21875 43.015625 
L 29.109375 43.015625 
Q 36.375 43.015625 40.234375 45.921875 
Q 44.09375 48.828125 44.09375 54.296875 
Q 44.09375 59.90625 40.109375 62.90625 
Q 36.140625 65.921875 28.71875 65.921875 
Q 24.65625 65.921875 20.015625 65.03125 
Q 15.375 64.15625 9.8125 62.3125 
L 9.8125 71.09375 
Q 15.4375 72.65625 20.34375 73.4375 
Q 25.25 74.21875 29.59375 74.21875 
Q 40.828125 74.21875 47.359375 69.109375 
Q 53.90625 64.015625 53.90625 55.328125 
Q 53.90625 49.265625 50.4375 45.09375 
Q 46.96875 40.921875 40.578125 39.3125 
z
" id="DejaVuSans-51"/>
      </defs>
      <g transform="translate(20.276 500.997656)scale(0.3 -0.3)">
       <use transform="translate(0 0.765625)" xlink:href="#DejaVuSans-49"/>
       <use transform="translate(63.623047 0.765625)" xlink:href="#DejaVuSans-48"/>
       <use transform="translate(128.203125 39.046875)scale(0.7)" xlink:href="#DejaVuSans-8722"/>
       <use transform="translate(186.855469 39.046875)scale(0.7)" xlink:href="#DejaVuSans-51"/>
      </g>
     </g>
    </g>
    <g id="ytick_3">
     <g id="line2d_41">
      <g>
       <use style="stroke:#000000;stroke-width:0.8;" x="97.776" xlink:href="#m8d824b69fe" y="338.4"/>
      </g>
     </g>
     <g id="text_9">
      <!-- $10^{-2}$ -->
      <defs>
       <path d="M 19.1875 8.296875 
L 53.609375 8.296875 
L 53.609375 0 
L 7.328125 0 
L 7.328125 8.296875 
Q 12.9375 14.109375 22.625 23.890625 
Q 32.328125 33.6875 34.8125 36.53125 
Q 39.546875 41.84375 41.421875 45.53125 
Q 43.3125 49.21875 43.3125 52.78125 
Q 43.3125 58.59375 39.234375 62.25 
Q 35.15625 65.921875 28.609375 65.921875 
Q 23.96875 65.921875 18.8125 64.3125 
Q 13.671875 62.703125 7.8125 59.421875 
L 7.8125 69.390625 
Q 13.765625 71.78125 18.9375 73 
Q 24.125 74.21875 28.421875 74.21875 
Q 39.75 74.21875 46.484375 68.546875 
Q 53.21875 62.890625 53.21875 53.421875 
Q 53.21875 48.921875 51.53125 44.890625 
Q 49.859375 40.875 45.40625 35.40625 
Q 44.1875 33.984375 37.640625 27.21875 
Q 31.109375 20.453125 19.1875 8.296875 
z
" id="DejaVuSans-50"/>
      </defs>
      <g transform="translate(20.276 349.797656)scale(0.3 -0.3)">
       <use transform="translate(0 0.765625)" xlink:href="#DejaVuSans-49"/>
       <use transform="translate(63.623047 0.765625)" xlink:href="#DejaVuSans-48"/>
       <use transform="translate(128.203125 39.046875)scale(0.7)" xlink:href="#DejaVuSans-8722"/>
       <use transform="translate(186.855469 39.046875)scale(0.7)" xlink:href="#DejaVuSans-50"/>
      </g>
     </g>
    </g>
    <g id="ytick_4">
     <g id="line2d_42">
      <g>
       <use style="stroke:#000000;stroke-width:0.8;" x="97.776" xlink:href="#m8d824b69fe" y="187.2"/>
      </g>
     </g>
     <g id="text_10">
      <!-- $10^{-1}$ -->
      <g transform="translate(20.276 198.597656)scale(0.3 -0.3)">
       <use transform="translate(0 0.684375)" xlink:href="#DejaVuSans-49"/>
       <use transform="translate(63.623047 0.684375)" xlink:href="#DejaVuSans-48"/>
       <use transform="translate(128.203125 38.965625)scale(0.7)" xlink:href="#DejaVuSans-8722"/>
       <use transform="translate(186.855469 38.965625)scale(0.7)" xlink:href="#DejaVuSans-49"/>
      </g>
     </g>
    </g>
    <g id="ytick_5">
     <g id="line2d_43">
      <g>
       <use style="stroke:#000000;stroke-width:0.8;" x="97.776" xlink:href="#m8d824b69fe" y="36"/>
      </g>
     </g>
     <g id="text_11">
      <!-- $10^0$ -->
      <g transform="translate(37.976 47.397656)scale(0.3 -0.3)">
       <use transform="translate(0 0.765625)" xlink:href="#DejaVuSans-49"/>
       <use transform="translate(63.623047 0.765625)" xlink:href="#DejaVuSans-48"/>
       <use transform="translate(128.203125 39.046875)scale(0.7)" xlink:href="#DejaVuSans-48"/>
      </g>
     </g>
    </g>
    <g id="ytick_6">
     <g id="line2d_44">
      <defs>
       <path d="M 0 0 
L -2 0 
" id="m8462ad14fe" style="stroke:#000000;stroke-width:0.6;"/>
      </defs>
      <g>
       <use style="stroke:#000000;stroke-width:0.6;" x="97.776" xlink:href="#m8462ad14fe" y="595.284265"/>
      </g>
     </g>
    </g>
    <g id="ytick_7">
     <g id="line2d_45">
      <g>
       <use style="stroke:#000000;stroke-width:0.6;" x="97.776" xlink:href="#m8462ad14fe" y="568.659266"/>
      </g>
     </g>
    </g>
    <g id="ytick_8">
     <g id="line2d_46">
      <g>
       <use style="stroke:#000000;stroke-width:0.6;" x="97.776" xlink:href="#m8462ad14fe" y="549.768529"/>
      </g>
     </g>
    </g>
    <g id="ytick_9">
     <g id="line2d_47">
      <g>
       <use style="stroke:#000000;stroke-width:0.6;" x="97.776" xlink:href="#m8462ad14fe" y="535.115735"/>
      </g>
     </g>
    </g>
    <g id="ytick_10">
     <g id="line2d_48">
      <g>
       <use style="stroke:#000000;stroke-width:0.6;" x="97.776" xlink:href="#m8462ad14fe" y="523.143531"/>
      </g>
     </g>
    </g>
    <g id="ytick_11">
     <g id="line2d_49">
      <g>
       <use style="stroke:#000000;stroke-width:0.6;" x="97.776" xlink:href="#m8462ad14fe" y="513.021176"/>
      </g>
     </g>
    </g>
    <g id="ytick_12">
     <g id="line2d_50">
      <g>
       <use style="stroke:#000000;stroke-width:0.6;" x="97.776" xlink:href="#m8462ad14fe" y="504.252794"/>
      </g>
     </g>
    </g>
    <g id="ytick_13">
     <g id="line2d_51">
      <g>
       <use style="stroke:#000000;stroke-width:0.6;" x="97.776" xlink:href="#m8462ad14fe" y="496.518533"/>
      </g>
     </g>
    </g>
    <g id="ytick_14">
     <g id="line2d_52">
      <g>
       <use style="stroke:#000000;stroke-width:0.6;" x="97.776" xlink:href="#m8462ad14fe" y="444.084265"/>
      </g>
     </g>
    </g>
    <g id="ytick_15">
     <g id="line2d_53">
      <g>
       <use style="stroke:#000000;stroke-width:0.6;" x="97.776" xlink:href="#m8462ad14fe" y="417.459266"/>
      </g>
     </g>
    </g>
    <g id="ytick_16">
     <g id="line2d_54">
      <g>
       <use style="stroke:#000000;stroke-width:0.6;" x="97.776" xlink:href="#m8462ad14fe" y="398.568529"/>
      </g>
     </g>
    </g>
    <g id="ytick_17">
     <g id="line2d_55">
      <g>
       <use style="stroke:#000000;stroke-width:0.6;" x="97.776" xlink:href="#m8462ad14fe" y="383.915735"/>
      </g>
     </g>
    </g>
    <g id="ytick_18">
     <g id="line2d_56">
      <g>
       <use style="stroke:#000000;stroke-width:0.6;" x="97.776" xlink:href="#m8462ad14fe" y="371.943531"/>
      </g>
     </g>
    </g>
    <g id="ytick_19">
     <g id="line2d_57">
      <g>
       <use style="stroke:#000000;stroke-width:0.6;" x="97.776" xlink:href="#m8462ad14fe" y="361.821176"/>
      </g>
     </g>
    </g>
    <g id="ytick_20">
     <g id="line2d_58">
      <g>
       <use style="stroke:#000000;stroke-width:0.6;" x="97.776" xlink:href="#m8462ad14fe" y="353.052794"/>
      </g>
     </g>
    </g>
    <g id="ytick_21">
     <g id="line2d_59">
      <g>
       <use style="stroke:#000000;stroke-width:0.6;" x="97.776" xlink:href="#m8462ad14fe" y="345.318533"/>
      </g>
     </g>
    </g>
    <g id="ytick_22">
     <g id="line2d_60">
      <g>
       <use style="stroke:#000000;stroke-width:0.6;" x="97.776" xlink:href="#m8462ad14fe" y="292.884265"/>
      </g>
     </g>
    </g>
    <g id="ytick_23">
     <g id="line2d_61">
      <g>
       <use style="stroke:#000000;stroke-width:0.6;" x="97.776" xlink:href="#m8462ad14fe" y="266.259266"/>
      </g>
     </g>
    </g>
    <g id="ytick_24">
     <g id="line2d_62">
      <g>
       <use style="stroke:#000000;stroke-width:0.6;" x="97.776" xlink:href="#m8462ad14fe" y="247.368529"/>
      </g>
     </g>
    </g>
    <g id="ytick_25">
     <g id="line2d_63">
      <g>
       <use style="stroke:#000000;stroke-width:0.6;" x="97.776" xlink:href="#m8462ad14fe" y="232.715735"/>
      </g>
     </g>
    </g>
    <g id="ytick_26">
     <g id="line2d_64">
      <g>
       <use style="stroke:#000000;stroke-width:0.6;" x="97.776" xlink:href="#m8462ad14fe" y="220.743531"/>
      </g>
     </g>
    </g>
    <g id="ytick_27">
     <g id="line2d_65">
      <g>
       <use style="stroke:#000000;stroke-width:0.6;" x="97.776" xlink:href="#m8462ad14fe" y="210.621176"/>
      </g>
     </g>
    </g>
    <g id="ytick_28">
     <g id="line2d_66">
      <g>
       <use style="stroke:#000000;stroke-width:0.6;" x="97.776" xlink:href="#m8462ad14fe" y="201.852794"/>
      </g>
     </g>
    </g>
    <g id="ytick_29">
     <g id="line2d_67">
      <g>
       <use style="stroke:#000000;stroke-width:0.6;" x="97.776" xlink:href="#m8462ad14fe" y="194.118533"/>
      </g>
     </g>
    </g>
    <g id="ytick_30">
     <g id="line2d_68">
      <g>
       <use style="stroke:#000000;stroke-width:0.6;" x="97.776" xlink:href="#m8462ad14fe" y="141.684265"/>
      </g>
     </g>
    </g>
    <g id="ytick_31">
     <g id="line2d_69">
      <g>
       <use style="stroke:#000000;stroke-width:0.6;" x="97.776" xlink:href="#m8462ad14fe" y="115.059266"/>
      </g>
     </g>
    </g>
    <g id="ytick_32">
     <g id="line2d_70">
      <g>
       <use style="stroke:#000000;stroke-width:0.6;" x="97.776" xlink:href="#m8462ad14fe" y="96.168529"/>
      </g>
     </g>
    </g>
    <g id="ytick_33">
     <g id="line2d_71">
      <g>
       <use style="stroke:#000000;stroke-width:0.6;" x="97.776" xlink:href="#m8462ad14fe" y="81.515735"/>
      </g>
     </g>
    </g>
    <g id="ytick_34">
     <g id="line2d_72">
      <g>
       <use style="stroke:#000000;stroke-width:0.6;" x="97.776" xlink:href="#m8462ad14fe" y="69.543531"/>
      </g>
     </g>
    </g>
    <g id="ytick_35">
     <g id="line2d_73">
      <g>
       <use style="stroke:#000000;stroke-width:0.6;" x="97.776" xlink:href="#m8462ad14fe" y="59.421176"/>
      </g>
     </g>
    </g>
    <g id="ytick_36">
     <g id="line2d_74">
      <g>
       <use style="stroke:#000000;stroke-width:0.6;" x="97.776" xlink:href="#m8462ad14fe" y="50.652794"/>
      </g>
     </g>
    </g>
    <g id="ytick_37">
     <g id="line2d_75">
      <g>
       <use style="stroke:#000000;stroke-width:0.6;" x="97.776" xlink:href="#m8462ad14fe" y="42.918533"/>
      </g>
     </g>
    </g>
    <g id="text_12">
     <!-- Mean and STD -->
     <defs>
      <path d="M 9.8125 72.90625 
L 24.515625 72.90625 
L 43.109375 23.296875 
L 61.8125 72.90625 
L 76.515625 72.90625 
L 76.515625 0 
L 66.890625 0 
L 66.890625 64.015625 
L 48.09375 14.015625 
L 38.1875 14.015625 
L 19.390625 64.015625 
L 19.390625 0 
L 9.8125 0 
z
" id="DejaVuSans-77"/>
      <path d="M 56.203125 29.59375 
L 56.203125 25.203125 
L 14.890625 25.203125 
Q 15.484375 15.921875 20.484375 11.0625 
Q 25.484375 6.203125 34.421875 6.203125 
Q 39.59375 6.203125 44.453125 7.46875 
Q 49.3125 8.734375 54.109375 11.28125 
L 54.109375 2.78125 
Q 49.265625 0.734375 44.1875 -0.34375 
Q 39.109375 -1.421875 33.890625 -1.421875 
Q 20.796875 -1.421875 13.15625 6.1875 
Q 5.515625 13.8125 5.515625 26.8125 
Q 5.515625 40.234375 12.765625 48.109375 
Q 20.015625 56 32.328125 56 
Q 43.359375 56 49.78125 48.890625 
Q 56.203125 41.796875 56.203125 29.59375 
z
M 47.21875 32.234375 
Q 47.125 39.59375 43.09375 43.984375 
Q 39.0625 48.390625 32.421875 48.390625 
Q 24.90625 48.390625 20.390625 44.140625 
Q 15.875 39.890625 15.1875 32.171875 
z
" id="DejaVuSans-101"/>
      <path d="M 34.28125 27.484375 
Q 23.390625 27.484375 19.1875 25 
Q 14.984375 22.515625 14.984375 16.5 
Q 14.984375 11.71875 18.140625 8.90625 
Q 21.296875 6.109375 26.703125 6.109375 
Q 34.1875 6.109375 38.703125 11.40625 
Q 43.21875 16.703125 43.21875 25.484375 
L 43.21875 27.484375 
z
M 52.203125 31.203125 
L 52.203125 0 
L 43.21875 0 
L 43.21875 8.296875 
Q 40.140625 3.328125 35.546875 0.953125 
Q 30.953125 -1.421875 24.3125 -1.421875 
Q 15.921875 -1.421875 10.953125 3.296875 
Q 6 8.015625 6 15.921875 
Q 6 25.140625 12.171875 29.828125 
Q 18.359375 34.515625 30.609375 34.515625 
L 43.21875 34.515625 
L 43.21875 35.40625 
Q 43.21875 41.609375 39.140625 45 
Q 35.0625 48.390625 27.6875 48.390625 
Q 23 48.390625 18.546875 47.265625 
Q 14.109375 46.140625 10.015625 43.890625 
L 10.015625 52.203125 
Q 14.9375 54.109375 19.578125 55.046875 
Q 24.21875 56 28.609375 56 
Q 40.484375 56 46.34375 49.84375 
Q 52.203125 43.703125 52.203125 31.203125 
z
" id="DejaVuSans-97"/>
      <path d="M 54.890625 33.015625 
L 54.890625 0 
L 45.90625 0 
L 45.90625 32.71875 
Q 45.90625 40.484375 42.875 44.328125 
Q 39.84375 48.1875 33.796875 48.1875 
Q 26.515625 48.1875 22.3125 43.546875 
Q 18.109375 38.921875 18.109375 30.90625 
L 18.109375 0 
L 9.078125 0 
L 9.078125 54.6875 
L 18.109375 54.6875 
L 18.109375 46.1875 
Q 21.34375 51.125 25.703125 53.5625 
Q 30.078125 56 35.796875 56 
Q 45.21875 56 50.046875 50.171875 
Q 54.890625 44.34375 54.890625 33.015625 
z
" id="DejaVuSans-110"/>
      <path d="M 45.40625 46.390625 
L 45.40625 75.984375 
L 54.390625 75.984375 
L 54.390625 0 
L 45.40625 0 
L 45.40625 8.203125 
Q 42.578125 3.328125 38.25 0.953125 
Q 33.9375 -1.421875 27.875 -1.421875 
Q 17.96875 -1.421875 11.734375 6.484375 
Q 5.515625 14.40625 5.515625 27.296875 
Q 5.515625 40.1875 11.734375 48.09375 
Q 17.96875 56 27.875 56 
Q 33.9375 56 38.25 53.625 
Q 42.578125 51.265625 45.40625 46.390625 
z
M 14.796875 27.296875 
Q 14.796875 17.390625 18.875 11.75 
Q 22.953125 6.109375 30.078125 6.109375 
Q 37.203125 6.109375 41.296875 11.75 
Q 45.40625 17.390625 45.40625 27.296875 
Q 45.40625 37.203125 41.296875 42.84375 
Q 37.203125 48.484375 30.078125 48.484375 
Q 22.953125 48.484375 18.875 42.84375 
Q 14.796875 37.203125 14.796875 27.296875 
z
" id="DejaVuSans-100"/>
      <path d="M 53.515625 70.515625 
L 53.515625 60.890625 
Q 47.90625 63.578125 42.921875 64.890625 
Q 37.9375 66.21875 33.296875 66.21875 
Q 25.25 66.21875 20.875 63.09375 
Q 16.5 59.96875 16.5 54.203125 
Q 16.5 49.359375 19.40625 46.890625 
Q 22.3125 44.4375 30.421875 42.921875 
L 36.375 41.703125 
Q 47.40625 39.59375 52.65625 34.296875 
Q 57.90625 29 57.90625 20.125 
Q 57.90625 9.515625 50.796875 4.046875 
Q 43.703125 -1.421875 29.984375 -1.421875 
Q 24.8125 -1.421875 18.96875 -0.25 
Q 13.140625 0.921875 6.890625 3.21875 
L 6.890625 13.375 
Q 12.890625 10.015625 18.65625 8.296875 
Q 24.421875 6.59375 29.984375 6.59375 
Q 38.421875 6.59375 43.015625 9.90625 
Q 47.609375 13.234375 47.609375 19.390625 
Q 47.609375 24.75 44.3125 27.78125 
Q 41.015625 30.8125 33.5 32.328125 
L 27.484375 33.5 
Q 16.453125 35.6875 11.515625 40.375 
Q 6.59375 45.0625 6.59375 53.421875 
Q 6.59375 63.09375 13.40625 68.65625 
Q 20.21875 74.21875 32.171875 74.21875 
Q 37.3125 74.21875 42.625 73.28125 
Q 47.953125 72.359375 53.515625 70.515625 
z
" id="DejaVuSans-83"/>
      <path d="M -0.296875 72.90625 
L 61.375 72.90625 
L 61.375 64.59375 
L 35.5 64.59375 
L 35.5 0 
L 25.59375 0 
L 25.59375 64.59375 
L -0.296875 64.59375 
z
" id="DejaVuSans-84"/>
      <path d="M 19.671875 64.796875 
L 19.671875 8.109375 
L 31.59375 8.109375 
Q 46.6875 8.109375 53.6875 14.9375 
Q 60.6875 21.78125 60.6875 36.53125 
Q 60.6875 51.171875 53.6875 57.984375 
Q 46.6875 64.796875 31.59375 64.796875 
z
M 9.8125 72.90625 
L 30.078125 72.90625 
Q 51.265625 72.90625 61.171875 64.09375 
Q 71.09375 55.28125 71.09375 36.53125 
Q 71.09375 17.671875 61.125 8.828125 
Q 51.171875 0 30.078125 0 
L 9.8125 0 
z
" id="DejaVuSans-68"/>
     </defs>
     <g transform="translate(10.036937 447.260156)rotate(-90)scale(0.3 -0.3)">
      <use xlink:href="#DejaVuSans-77"/>
      <use x="86.279297" xlink:href="#DejaVuSans-101"/>
      <use x="147.802734" xlink:href="#DejaVuSans-97"/>
      <use x="209.082031" xlink:href="#DejaVuSans-110"/>
      <use x="272.460938" xlink:href="#DejaVuSans-32"/>
      <use x="304.248047" xlink:href="#DejaVuSans-97"/>
      <use x="365.527344" xlink:href="#DejaVuSans-110"/>
      <use x="428.90625" xlink:href="#DejaVuSans-100"/>
      <use x="492.382812" xlink:href="#DejaVuSans-32"/>
      <use x="524.169922" xlink:href="#DejaVuSans-83"/>
      <use x="587.646484" xlink:href="#DejaVuSans-84"/>
      <use x="648.730469" xlink:href="#DejaVuSans-68"/>
     </g>
    </g>
   </g>
   <g id="line2d_76">
    <path clip-path="url(#p70a418e767)" d="M -1 228.421401 
L 203.370709 228.355261 
L 267.434276 228.136271 
L 319.156312 227.690851 
L 352.121705 227.118762 
L 376.370509 226.429278 
L 395.561409 225.637167 
L 411.44453 224.758605 
L 424.994238 223.808862 
L 436.809134 222.80143 
L 450.526732 221.387828 
L 462.469022 219.91306 
L 473.043306 218.392886 
L 482.531033 216.838553 
L 493.166223 214.859324 
L 502.702942 212.849162 
L 511.347012 210.816072 
L 520.754195 208.362375 
L 530.641007 205.538274 
L 545.460547 201.263536 
L 549.915587 200.17119 
L 554.165724 199.301328 
L 560.195526 198.370405 
L 568.56121 197.257134 
L 572.901171 196.426462 
L 577.046448 195.350439 
L 581.78719 193.834338 
L 598.638112 188.022479 
L 604.843408 186.26752 
L 608.951826 185.28602 
L 615.060151 184.098485 
L 621.293357 183.206496 
L 627.602969 182.602761 
L 633.948296 182.265558 
L 640.2957 182.169113 
L 646.617767 182.289494 
L 652.892476 182.605936 
L 659.102406 183.098222 
L 667.698798 184.037975 
L 678.042721 185.452709 
L 705.173582 189.329239 
L 711.442031 189.971712 
L 717.84389 190.401166 
L 726.121172 190.667 
L 738.644303 190.948044 
L 742.783391 191.322555 
L 751.162048 192.485938 
L 753.233606 192.902079 
L 755.377562 193.508929 
L 757.472911 194.319987 
L 759.521807 195.378781 
L 761.636359 196.685849 
L 763.703614 180.980996 
L 765.72564 198.973761 
L 769.943837 199.272004 
L 772.032046 199.332112 
L 774.074115 197.849606 
L 776.16611 200.03008 
L 778.303718 199.164346 
L 780.393003 198.611193 
L 782.4361 198.210933 
L 784.520945 148.762303 
L 786.64378 198.370788 
L 788.71895 197.474752 
L 790.748548 196.927435 
L 792.891584 196.169232 
L 794.986053 197.625695 
L 797.034108 196.657923 
L 799.111144 196.130234 
L 801.214257 134.116916 
L 803.270576 196.865217 
L 805.350728 196.06099 
L 807.452138 186.528529 
L 809.572356 196.942229 
L 811.645025 195.972751 
L 813.734869 193.07045 
L 815.778503 196.652505 
L 817.897722 195.568474 
L 819.969436 142.614842 
L 822.052975 195.579633 
L 824.146542 160.11837 
L 826.193734 194.819674 
L 828.303597 194.714409 
L 830.366368 176.024605 
L 832.486401 168.212318 
L 834.558892 163.668879 
L 836.634817 174.470928 
L 838.712938 158.513564 
L 840.792098 166.404938 
L 842.87121 148.724 
L 844.949261 150.70125 
L 847.068972 165.148593 
L 849.141157 155.664104 
L 851.209654 156.334638 
L 853.314515 141.154942 
L 855.372506 176.269607 
L 857.46373 187.939023 
L 861.621326 188.96639 
L 863.723224 189.313047 
L 865.814032 190.44549 
L 867.893444 187.266453 
L 869.961185 154.657189 
L 872.050337 183.211785 
L 874.125892 194.695927 
L 876.219577 195.208803 
L 878.298028 98.701545 
L 880.39167 199.086316 
L 882.468705 199.509745 
L 884.558308 201.862774 
L 886.63017 203.538451 
L 888.712264 186.654163 
L 890.8029 207.560844 
L 892.873891 204.936827 
L 894.951518 210.876513 
L 897.034332 119.467059 
L 899.120973 213.552599 
L 901.21016 217.532392 
L 903.276934 214.309941 
L 905.368228 220.986623 
L 907.458686 91.499795 
L 909.547331 223.224293 
L 911.611535 227.094946 
L 913.694361 231.281559 
L 915.79357 227.337065 
L 917.866454 232.816111 
L 919.953411 237.350777 
L 922.033092 225.173511 
L 924.104954 237.681219 
L 926.187048 242.656664 
L 928.277685 248.172712 
L 930.357541 237.643202 
L 932.443638 247.910098 
L 934.517591 253.513587 
L 936.612328 259.996978 
L 938.693045 246.275971 
L 940.775481 255.641471 
L 942.8585 261.889649 
L 944.941042 268.842634 
L 947.022115 251.016965 
L 949.100795 264.176947 
L 953.261435 276.470068 
L 955.354768 284.439107 
L 957.428195 262.142057 
L 959.507877 275.629862 
L 963.680379 290.189086 
L 965.758513 299.702871 
L 967.838235 276.79812 
L 969.929977 292.713634 
L 969.929977 292.713634 
" style="fill:none;stroke:#ff0000;stroke-dasharray:16,16;stroke-dashoffset:0;stroke-width:4;"/>
   </g>
   <g id="line2d_77">
    <path clip-path="url(#p70a418e767)" d="M -1 373.048765 
L 139.307142 373.045223 
L 203.370709 371.120627 
L 240.845493 370.253006 
L 267.434276 369.898491 
L 288.058138 369.825273 
L 319.156312 370.081935 
L 352.121705 370.740078 
L 383.219879 371.383326 
L 401.164591 371.535063 
L 416.185271 371.412838 
L 429.102656 371.063933 
L 440.434076 370.541681 
L 453.660056 369.657375 
L 465.228158 368.633589 
L 475.508097 367.512083 
L 484.75823 366.290116 
L 493.166223 364.934542 
L 500.8727 363.411023 
L 504.497643 362.579909 
L 511.347012 360.77203 
L 516.170238 359.281441 
L 520.754195 357.663722 
L 523.688543 356.508736 
L 529.291725 354.006828 
L 533.281878 351.974131 
L 537.106873 349.847377 
L 547.714907 343.747637 
L 549.915587 342.681585 
L 552.065084 341.817279 
L 554.165724 341.203413 
L 556.219679 340.888302 
L 558.22898 340.916007 
L 560.195526 341.32355 
L 562.1211 342.136294 
L 564.936267 344.13205 
L 566.766509 345.958346 
L 568.56121 348.131747 
L 571.189563 351.874757 
L 577.046448 360.784364 
L 579.447212 363.634179 
L 581.78719 365.525568 
L 583.314897 366.267235 
L 585.560129 366.740415 
L 587.75211 366.663722 
L 589.893307 366.2577 
L 594.032395 365.034521 
L 602.411052 362.330246 
L 606.626566 361.144063 
L 611.220018 360.042614 
L 615.060151 359.283674 
L 619.261974 358.6179 
L 623.771365 358.079926 
L 629.919486 357.59646 
L 636.112896 357.326622 
L 646.617767 357.136393 
L 667.698798 356.824486 
L 688.565562 356.408242 
L 694.893643 356.636647 
L 698.883796 356.966566 
L 705.173582 357.744432 
L 711.442031 358.562116 
L 715.698551 358.893983 
L 719.940559 358.924191 
L 726.121172 358.567204 
L 734.458886 357.913506 
L 736.503106 357.630194 
L 738.644303 357.189102 
L 740.737015 356.574312 
L 742.783391 355.779352 
L 744.917378 354.751302 
L 751.162048 351.342981 
L 753.233606 350.728718 
L 755.377562 350.918623 
L 757.472911 352.224231 
L 759.521807 354.751641 
L 761.636359 358.551436 
L 763.703614 284.386224 
L 765.72564 367.002072 
L 767.807354 370.64687 
L 772.032046 377.267326 
L 774.074115 345.971807 
L 776.16611 378.90765 
L 778.303718 386.625604 
L 780.393003 387.975527 
L 782.4361 388.905733 
L 784.520945 187.393376 
L 786.64378 395.463797 
L 790.748548 394.292282 
L 792.891584 357.06177 
L 794.986053 398.472403 
L 797.034108 398.456186 
L 799.111144 396.723273 
L 801.214257 143.841449 
L 803.270576 401.378836 
L 805.350728 398.988986 
L 807.452138 302.935639 
L 809.572356 402.930385 
L 811.645025 400.439094 
L 813.734869 352.048337 
L 815.778503 402.963032 
L 817.897722 400.723276 
L 819.969436 144.013435 
L 822.052975 402.272817 
L 824.146542 152.111729 
L 826.193734 373.487526 
L 828.303597 367.138984 
L 830.366368 271.605515 
L 832.486401 238.8193 
L 834.558892 236.215721 
L 836.634817 205.321327 
L 838.712938 205.005962 
L 840.792098 187.586374 
L 842.87121 203.740672 
L 844.949261 190.417554 
L 847.068972 179.189421 
L 849.141157 190.595715 
L 851.209654 192.812036 
L 853.314515 184.555426 
L 855.372506 227.336186 
L 857.46373 371.497307 
L 859.546834 399.389017 
L 861.621326 393.197609 
L 863.723224 369.597382 
L 865.814032 398.963608 
L 867.893444 311.610337 
L 869.961185 174.600934 
L 872.050337 288.481023 
L 874.125892 421.482482 
L 876.219577 414.318003 
L 878.298028 111.281717 
L 880.39167 434.27176 
L 882.468705 424.225637 
L 884.558308 369.953071 
L 886.63017 443.919713 
L 888.712264 266.858997 
L 890.8029 453.740564 
L 892.873891 411.637459 
L 894.951518 457.955675 
L 897.034332 163.936554 
L 899.120973 460.255707 
L 901.21016 474.042208 
L 903.276934 431.434891 
L 905.368228 475.461709 
L 907.458686 62.21854 
L 909.547331 476.516589 
L 911.611535 493.821158 
L 913.694361 490.5865 
L 915.79357 472.896922 
L 917.866454 502.770188 
L 919.953411 513.291886 
L 922.033092 425.676527 
L 924.104954 503.288314 
L 926.187048 525.340388 
L 928.277685 537.772737 
L 930.357541 470.679102 
L 932.443638 521.368476 
L 934.517591 546.568954 
L 936.612328 562.423959 
L 938.693045 486.642252 
L 940.775481 536.151068 
L 942.8585 560.690521 
L 944.941042 576.185377 
L 947.022115 469.750119 
L 949.100795 540.648918 
L 951.190375 571.170531 
L 953.261435 590.119851 
L 955.354768 602.836719 
L 957.428195 501.114458 
L 959.507877 563.633423 
L 961.592385 594.28198 
L 963.680379 617.719325 
L 965.758513 633.910375 
L 967.838235 510.437927 
L 969.929977 583.703035 
L 969.929977 583.703035 
" style="fill:none;stroke:#ff0000;stroke-linecap:square;stroke-width:2;"/>
   </g>
   <g id="line2d_78">
    <path clip-path="url(#p70a418e767)" d="M -1 239.286267 
L 203.370709 239.382055 
L 304.90906 239.410641 
L 342.383844 239.195401 
L 368.972627 238.785143 
L 389.596489 238.192828 
L 406.447411 237.437539 
L 420.694663 236.539621 
L 433.036194 235.518541 
L 443.922195 234.392118 
L 453.660056 233.176689 
L 462.469022 231.887923 
L 473.043306 230.083102 
L 482.531033 228.216298 
L 493.166223 225.858209 
L 504.497643 223.085448 
L 534.574545 215.378498 
L 539.571664 214.354419 
L 543.149822 213.769315 
L 547.714907 213.276692 
L 552.065084 213.147065 
L 556.219679 213.378608 
L 560.195526 213.903501 
L 568.56121 215.348066 
L 572.901171 215.738338 
L 577.046448 215.630839 
L 579.447212 215.356079 
L 583.314897 214.655325 
L 587.75211 213.591676 
L 608.951826 207.9839 
L 615.060151 206.689908 
L 621.293357 205.585758 
L 627.602969 204.686251 
L 633.948296 203.994027 
L 640.2957 203.509159 
L 646.617767 203.235198 
L 652.892476 203.181042 
L 659.102406 203.358167 
L 665.545724 203.80082 
L 671.860075 204.492329 
L 678.042721 205.394651 
L 686.356114 206.874698 
L 701.028305 209.653449 
L 705.173582 210.246582 
L 709.33486 210.624565 
L 713.687263 210.73338 
L 717.84389 210.57898 
L 723.996384 210.062857 
L 736.503106 208.882832 
L 740.737015 208.672898 
L 744.917378 208.675956 
L 749.042991 208.827943 
L 751.162048 209.027424 
L 753.233606 209.427832 
L 755.377562 210.171291 
L 757.472911 211.295554 
L 759.521807 212.874244 
L 761.636359 214.982444 
L 763.703614 190.226129 
L 765.72564 217.606899 
L 767.807354 218.384491 
L 769.943837 218.683472 
L 772.032046 218.856338 
L 774.074115 211.937679 
L 776.16611 218.503319 
L 780.393003 217.394564 
L 782.4361 216.989231 
L 784.520945 153.51903 
L 786.64378 215.927959 
L 790.748548 214.743732 
L 792.891584 211.141815 
L 794.986053 214.092111 
L 799.111144 213.182688 
L 801.214257 142.093531 
L 803.270576 212.998131 
L 805.350728 212.532865 
L 807.452138 198.716713 
L 809.572356 212.498904 
L 811.645025 212.058613 
L 813.734869 205.409015 
L 815.778503 212.143678 
L 817.897722 211.569479 
L 819.969436 153.757252 
L 822.052975 211.429935 
L 824.146542 165.975737 
L 826.193734 210.075445 
L 828.303597 210.645426 
L 830.366368 184.775403 
L 832.486401 175.129285 
L 834.558892 170.538984 
L 836.634817 179.299425 
L 838.712938 163.742947 
L 840.792098 171.526658 
L 842.87121 156.056839 
L 844.949261 158.310285 
L 847.068972 175.71142 
L 849.141157 160.208269 
L 851.209654 158.635092 
L 853.314515 145.768568 
L 855.372506 188.607821 
L 857.46373 202.42679 
L 859.546834 205.336772 
L 861.621326 206.516611 
L 863.723224 208.045772 
L 865.814032 209.079585 
L 867.893444 205.526598 
L 869.961185 174.372063 
L 872.050337 188.626855 
L 874.125892 214.3875 
L 876.219577 214.582951 
L 878.298028 100.689102 
L 880.39167 220.338668 
L 882.468705 221.563286 
L 884.558308 225.382775 
L 886.63017 225.85749 
L 888.712264 199.546009 
L 890.8029 230.325804 
L 892.873891 228.066907 
L 894.951518 233.706568 
L 897.034332 120.346874 
L 899.120973 236.644098 
L 901.21016 241.369146 
L 903.276934 234.631894 
L 905.368228 244.685193 
L 907.458686 91.868828 
L 909.547331 248.70922 
L 911.611535 252.136635 
L 913.694361 256.517144 
L 915.79357 248.474072 
L 917.866454 256.567122 
L 919.953411 261.727461 
L 922.033092 248.780286 
L 924.104954 264.827862 
L 926.187048 268.958445 
L 928.277685 274.078019 
L 930.357541 258.291616 
L 932.443638 274.566183 
L 934.517591 279.980366 
L 936.612328 286.21078 
L 938.693045 268.159862 
L 940.775481 280.300526 
L 944.941042 294.309789 
L 947.022115 268.461154 
L 949.100795 289.629069 
L 953.261435 302.113471 
L 955.354768 310.398725 
L 957.428195 282.628645 
L 959.507877 300.98778 
L 963.680379 316.2714 
L 965.758513 326.038524 
L 967.838235 293.705373 
L 969.929977 319.083794 
L 969.929977 319.083794 
" style="fill:none;stroke:#00bfbf;stroke-dasharray:16,16;stroke-dashoffset:0;stroke-width:4;"/>
   </g>
   <g id="line2d_79">
    <path clip-path="url(#p70a418e767)" d="M -1 382.756003 
L 139.307142 382.755296 
L 203.370709 383.579249 
L 240.845493 384.871885 
L 267.434276 386.332256 
L 288.058138 387.831672 
L 304.90906 389.302326 
L 331.497842 392.019161 
L 376.370509 396.983592 
L 389.596489 398.222186 
L 401.164591 399.076769 
L 411.44453 399.587419 
L 420.694663 399.796142 
L 429.102656 399.744122 
L 436.809134 399.470554 
L 443.922195 399.011756 
L 450.526732 398.400513 
L 456.690629 397.665616 
L 465.228158 396.383466 
L 473.043306 394.937314 
L 480.248838 393.359438 
L 486.933017 391.656931 
L 495.153916 389.182063 
L 500.8727 387.169842 
L 504.497643 385.760577 
L 511.347012 382.812843 
L 517.723623 379.749262 
L 523.688543 376.619829 
L 530.641007 372.640853 
L 537.106873 368.58473 
L 545.460547 362.93445 
L 549.915587 359.984445 
L 552.065084 358.681447 
L 554.165724 357.540371 
L 556.219679 356.597629 
L 558.22898 355.886965 
L 560.195526 355.438103 
L 562.1211 355.272702 
L 564.936267 355.579945 
L 566.766509 356.152644 
L 568.56121 357.003771 
L 571.189563 358.750557 
L 572.901171 360.184435 
L 575.410579 362.655444 
L 577.046448 364.46486 
L 581.78719 370.303981 
L 596.034441 388.752528 
L 600.543833 393.964184 
L 602.411052 395.951956 
L 606.626566 400.002881 
L 608.951826 401.95889 
L 612.885364 404.796558 
L 615.060151 406.113683 
L 617.184938 407.234187 
L 619.261974 408.179589 
L 621.293357 408.970588 
L 625.707021 410.291096 
L 629.919486 411.14175 
L 633.948296 411.690462 
L 640.2957 412.263752 
L 650.726185 413.114339 
L 657.078438 413.836344 
L 671.860075 415.680464 
L 676.120008 415.934244 
L 682.292858 416.00569 
L 686.356114 416.045875 
L 690.723423 416.362652 
L 692.600121 416.659638 
L 694.893643 417.200365 
L 696.910251 417.861014 
L 698.883796 418.688784 
L 701.028305 419.800468 
L 703.124181 421.103141 
L 705.173582 422.566163 
L 709.33486 425.992944 
L 715.698551 431.49883 
L 717.84389 433.078841 
L 719.940559 434.33293 
L 721.990718 435.208408 
L 723.996384 435.689101 
L 726.121172 435.757515 
L 728.198208 435.381922 
L 730.22959 434.593167 
L 732.368427 433.327889 
L 734.458886 431.680322 
L 736.503106 429.706158 
L 738.644303 427.310085 
L 742.783391 422.052956 
L 747.003202 416.576201 
L 749.042991 414.302272 
L 751.162048 412.701777 
L 753.233606 412.596956 
L 755.377562 414.969049 
L 757.472911 420.227908 
L 759.521807 428.236268 
L 761.636359 438.966845 
L 763.703614 284.367394 
L 765.72564 439.909936 
L 767.807354 467.77369 
L 769.943837 474.999051 
L 772.032046 480.238894 
L 774.074115 359.538142 
L 776.16611 474.056391 
L 778.303718 489.274289 
L 780.393003 491.501341 
L 782.4361 492.078212 
L 784.520945 181.450485 
L 786.64378 492.163699 
L 788.71895 492.249812 
L 790.748548 491.313923 
L 792.891584 437.968327 
L 794.986053 485.370257 
L 797.034108 487.753472 
L 799.111144 485.528259 
L 801.214257 184.614732 
L 803.270576 483.34985 
L 805.350728 481.344277 
L 807.452138 369.480094 
L 809.572356 479.422455 
L 811.645025 477.981881 
L 813.734869 389.319295 
L 815.778503 475.939967 
L 817.897722 475.365375 
L 819.969436 197.879054 
L 822.052975 474.551364 
L 824.146542 149.47447 
L 826.193734 394.986489 
L 828.303597 429.13826 
L 830.366368 261.933008 
L 832.486401 222.228835 
L 834.558892 222.266646 
L 836.634817 207.588085 
L 838.712938 187.152877 
L 840.792098 178.242986 
L 842.87121 246.761034 
L 844.949261 273.611165 
L 847.068972 195.177221 
L 849.141157 172.511351 
L 851.209654 174.199728 
L 853.314515 185.524315 
L 855.372506 263.286401 
L 857.46373 393.092966 
L 859.546834 461.053666 
L 861.621326 457.284871 
L 863.723224 367.794925 
L 865.814032 440.970357 
L 867.893444 385.666046 
L 869.961185 242.768828 
L 872.050337 272.698992 
L 874.125892 456.85402 
L 876.219577 458.301098 
L 878.298028 105.902294 
L 880.39167 466.729914 
L 882.468705 484.851869 
L 884.558308 354.675239 
L 886.63017 480.861168 
L 888.712264 347.429308 
L 890.8029 484.277611 
L 892.873891 503.304226 
L 894.951518 488.647184 
L 897.034332 222.637561 
L 899.120973 499.417872 
L 901.21016 496.197818 
L 903.276934 483.543478 
L 905.368228 497.305343 
L 907.458686 66.408251 
L 909.547331 525.5259 
L 911.611535 519.965521 
L 913.694361 487.478399 
L 915.79357 517.226145 
L 917.866454 523.724945 
L 919.953411 520.707209 
L 922.033092 505.985869 
L 924.104954 561.05056 
L 926.187048 559.095506 
L 928.277685 549.297009 
L 930.357541 536.567097 
L 932.443638 581.258426 
L 934.517591 584.351535 
L 936.612328 573.099724 
L 938.693045 577.528103 
L 940.775481 582.818701 
L 942.8585 582.3581 
L 944.941042 579.374425 
L 947.022115 565.699393 
L 949.100795 599.079272 
L 951.190375 600.95753 
L 953.261435 599.491581 
L 955.354768 599.478196 
L 957.428195 591.885539 
L 959.507877 632.376579 
L 961.592385 631.802243 
L 963.680379 630.203698 
L 965.758513 631.687621 
L 967.838235 594.571492 
L 969.929977 659.288396 
L 969.929977 659.288396 
" style="fill:none;stroke:#00bfbf;stroke-linecap:square;stroke-width:2;"/>
   </g>
   <g id="line2d_80">
    <path clip-path="url(#p70a418e767)" d="M -1 248.294407 
L 139.307142 248.294855 
L 240.845493 248.45525 
L 288.058138 248.34974 
L 331.497842 247.997174 
L 360.930671 247.485936 
L 383.219879 246.844857 
L 401.164591 246.094311 
L 416.185271 245.254589 
L 429.102656 244.345913 
L 443.922195 243.059567 
L 456.690629 241.72282 
L 470.510978 240.027365 
L 484.75823 238.018172 
L 502.702942 235.216473 
L 516.170238 233.175247 
L 523.688543 232.260348 
L 529.291725 231.813082 
L 533.281878 231.687858 
L 537.106873 231.779583 
L 539.571664 231.979126 
L 543.149822 232.513561 
L 545.460547 233.041852 
L 547.714907 233.717944 
L 549.915587 234.547347 
L 552.065084 235.530556 
L 554.165724 236.660981 
L 558.22898 239.286395 
L 564.936267 244.140355 
L 566.766509 245.274675 
L 568.56121 246.176102 
L 571.189563 247.01104 
L 572.901171 247.2145 
L 575.410579 247.052654 
L 577.046448 246.697659 
L 579.447212 245.915516 
L 583.314897 244.284485 
L 589.893307 241.363988 
L 594.032395 239.760055 
L 598.638112 238.276572 
L 602.411052 237.290443 
L 606.626566 236.404494 
L 611.220018 235.658502 
L 617.184938 234.962383 
L 623.771365 234.46531 
L 629.919486 234.193791 
L 638.227958 234.060525 
L 646.617767 234.18646 
L 652.892476 234.481683 
L 659.102406 234.985327 
L 665.545724 235.770262 
L 671.860075 236.815981 
L 678.042721 238.083266 
L 686.356114 240.060586 
L 703.124181 244.244448 
L 707.376647 245.109506 
L 711.442031 245.732866 
L 715.698551 246.118231 
L 719.940559 246.231563 
L 723.996384 246.141023 
L 738.644303 245.501472 
L 742.783391 245.786899 
L 744.917378 246.119623 
L 747.003202 246.589239 
L 749.042991 247.215145 
L 751.162048 248.085295 
L 753.233606 249.198256 
L 755.377562 250.636292 
L 757.472911 252.281531 
L 761.636359 256.073291 
L 763.703614 238.572095 
L 765.72564 257.635468 
L 767.807354 257.950305 
L 769.943837 257.77485 
L 772.032046 257.397854 
L 774.074115 251.304394 
L 776.16611 255.517567 
L 778.303718 255.373622 
L 782.4361 253.798861 
L 784.520945 204.11281 
L 786.64378 252.595523 
L 790.748548 251.111522 
L 792.891584 248.445584 
L 794.986053 250.650412 
L 799.111144 249.470313 
L 801.214257 193.012698 
L 803.270576 249.57335 
L 805.350728 249.042294 
L 807.452138 243.366791 
L 809.572356 249.388176 
L 811.645025 248.928662 
L 813.734869 246.348067 
L 815.778503 249.406281 
L 817.897722 248.927561 
L 819.969436 203.246417 
L 822.052975 249.218378 
L 824.146542 220.169172 
L 826.193734 248.536525 
L 828.303597 249.537059 
L 830.366368 235.751323 
L 832.486401 229.140568 
L 834.558892 225.198068 
L 836.634817 228.892428 
L 838.712938 220.295845 
L 840.792098 227.331002 
L 842.87121 211.373308 
L 844.949261 212.792578 
L 847.068972 227.26245 
L 849.141157 218.108096 
L 851.209654 215.482352 
L 853.314515 203.041617 
L 855.372506 237.553801 
L 857.46373 245.616982 
L 859.546834 247.950049 
L 861.621326 249.176261 
L 863.723224 250.623575 
L 865.814032 251.581082 
L 867.893444 250.638151 
L 869.961185 226.953765 
L 872.050337 240.961689 
L 874.125892 257.342522 
L 876.219577 257.974797 
L 878.298028 159.988709 
L 880.39167 263.327257 
L 882.468705 264.372364 
L 884.558308 270.009236 
L 886.63017 268.815219 
L 888.712264 255.777413 
L 890.8029 273.532936 
L 892.873891 271.929197 
L 894.951518 277.195372 
L 897.034332 180.189009 
L 899.120973 280.656488 
L 901.21016 284.88956 
L 903.276934 281.158967 
L 905.368228 288.740874 
L 907.458686 150.533472 
L 909.547331 293.108091 
L 911.611535 295.932098 
L 913.694361 300.625831 
L 915.79357 294.576456 
L 917.866454 301.025289 
L 919.953411 305.72982 
L 922.033092 298.198914 
L 924.104954 310.848442 
L 926.187048 313.403648 
L 928.277685 318.284203 
L 930.357541 313.73132 
L 932.443638 321.819536 
L 934.517591 325.064235 
L 936.612328 330.919845 
L 938.693045 318.475448 
L 940.775481 327.401858 
L 942.8585 332.832783 
L 944.941042 339.442049 
L 947.022115 316.612496 
L 949.100795 337.452494 
L 951.190375 341.777323 
L 953.261435 347.326399 
L 955.354768 355.509317 
L 957.428195 341.76618 
L 959.507877 352.131815 
L 961.592385 355.977125 
L 963.680379 362.235261 
L 965.758513 371.535151 
L 967.838235 338.579641 
L 969.929977 364.164051 
L 969.929977 364.164051 
" style="fill:none;stroke:#0000ff;stroke-dasharray:16,16;stroke-dashoffset:0;stroke-width:4;"/>
   </g>
   <g id="line2d_81">
    <path clip-path="url(#p70a418e767)" d="M -1 366.30189 
L 139.307142 366.30232 
L 203.370709 368.618472 
L 240.845493 371.29191 
L 267.434276 374.077805 
L 288.058138 376.87423 
L 304.90906 379.628067 
L 319.156312 382.309353 
L 331.497842 384.901131 
L 342.383844 387.394208 
L 352.121705 389.784107 
L 368.972627 394.250512 
L 383.219879 398.307159 
L 406.447411 405.271892 
L 424.994238 410.843944 
L 436.809134 414.170626 
L 443.922195 415.982549 
L 450.526732 417.455444 
L 456.690629 418.568081 
L 462.469022 419.294323 
L 467.907308 419.607125 
L 470.510978 419.600911 
L 473.043306 419.483172 
L 475.508097 419.252565 
L 477.90886 418.908517 
L 480.248838 418.451408 
L 482.531033 417.882738 
L 484.75823 417.205011 
L 486.933017 416.421911 
L 491.13484 414.558768 
L 495.153916 412.3404 
L 499.005482 409.823977 
L 502.702942 407.071057 
L 504.497643 405.625245 
L 509.681667 401.096665 
L 512.982881 397.982264 
L 517.723623 393.273723 
L 526.532589 384.091829 
L 537.106873 373.060403 
L 543.149822 367.188097 
L 547.714907 363.198893 
L 549.915587 361.466983 
L 552.065084 359.921588 
L 554.165724 358.570942 
L 556.219679 357.424388 
L 558.22898 356.492069 
L 560.195526 355.785555 
L 562.1211 355.316055 
L 564.936267 355.078344 
L 566.766509 355.241118 
L 568.56121 355.663509 
L 571.189563 356.775285 
L 572.901171 357.820125 
L 575.410579 359.801476 
L 577.046448 361.366727 
L 579.447212 364.019511 
L 583.314897 369.046848 
L 587.75211 375.669384 
L 591.986019 382.528641 
L 606.626566 406.817097 
L 611.220018 413.840711 
L 615.060151 419.347607 
L 619.261974 424.98184 
L 623.771365 430.597853 
L 627.602969 435.057489 
L 632.179358 440.077484 
L 638.227958 446.331759 
L 648.881329 456.846904 
L 667.698798 475.243012 
L 671.860075 478.872766 
L 673.872501 480.453023 
L 676.120008 482.04808 
L 678.042721 483.258979 
L 680.192217 484.44271 
L 682.292858 485.439027 
L 686.356114 487.019255 
L 692.600121 489.268039 
L 694.893643 490.291403 
L 696.910251 491.369036 
L 698.883796 492.631639 
L 701.028305 494.27319 
L 703.124181 496.179151 
L 705.173582 498.361372 
L 707.376647 501.075968 
L 709.33486 503.807213 
L 711.442031 507.079365 
L 713.687263 510.907513 
L 717.84389 518.718982 
L 721.990718 526.80973 
L 723.996384 530.48208 
L 726.121172 533.919716 
L 728.198208 536.54783 
L 730.22959 538.138127 
L 732.368427 538.436212 
L 734.458886 537.1592 
L 736.503106 534.374099 
L 738.644303 530.018933 
L 740.737015 524.716646 
L 744.917378 512.677711 
L 749.042991 500.872712 
L 751.162048 495.553257 
L 753.233606 491.500158 
L 755.377562 489.119485 
L 757.472911 488.687231 
L 759.521807 490.032041 
L 761.636359 493.124222 
L 763.703614 370.793411 
L 765.72564 505.023376 
L 767.807354 513.932785 
L 769.943837 518.364984 
L 772.032046 521.770293 
L 774.074115 453.577274 
L 776.16611 533.910775 
L 780.393003 536.382484 
L 782.4361 537.030531 
L 784.520945 277.530804 
L 786.64378 545.183327 
L 788.71895 544.565129 
L 790.748548 543.154487 
L 792.891584 532.299249 
L 794.986053 545.656223 
L 797.034108 547.870361 
L 799.111144 544.93512 
L 801.214257 289.300517 
L 803.270576 550.943446 
L 805.350728 547.53203 
L 807.452138 464.736339 
L 809.572356 552.853833 
L 811.645025 549.36558 
L 813.734869 485.724094 
L 815.778503 553.084375 
L 817.897722 549.854728 
L 819.969436 298.997772 
L 822.052975 551.673523 
L 824.146542 254.999208 
L 826.193734 495.233457 
L 828.303597 528.154009 
L 830.366368 360.730889 
L 832.486401 324.332083 
L 834.558892 324.6349 
L 836.634817 313.39347 
L 838.712938 292.158464 
L 840.792098 285.303995 
L 842.87121 339.483287 
L 844.949261 360.332275 
L 847.068972 304.015393 
L 849.141157 278.612041 
L 851.209654 280.786975 
L 853.314515 291.315189 
L 855.372506 370.513292 
L 857.46373 501.343055 
L 859.546834 534.740721 
L 861.621326 533.982969 
L 863.723224 467.501058 
L 865.814032 520.547576 
L 867.893444 463.983164 
L 869.961185 321.606789 
L 872.050337 380.787983 
L 874.125892 528.740614 
L 876.219577 527.35703 
L 878.298028 222.290612 
L 880.39167 534.14117 
L 882.468705 541.000877 
L 884.558308 461.801886 
L 886.63017 541.083343 
L 888.712264 449.016863 
L 890.8029 545.636731 
L 892.873891 551.497401 
L 894.951518 548.389989 
L 897.034332 286.566075 
L 899.120973 552.791047 
L 901.21016 557.78385 
L 903.276934 549.039425 
L 905.368228 561.079573 
L 907.458686 179.026565 
L 909.547331 571.736406 
L 911.611535 574.888826 
L 913.694361 568.394157 
L 915.79357 570.29005 
L 917.866454 581.57979 
L 919.953411 587.412801 
L 922.033092 580.837615 
L 924.104954 599.802839 
L 926.187048 603.759778 
L 928.277685 609.213255 
L 930.357541 611.016785 
L 932.443638 618.437991 
L 934.517591 623.973904 
L 936.612328 631.236943 
L 938.693045 616.335555 
L 940.775481 627.701641 
L 942.8585 636.156588 
L 944.941042 645.379554 
L 947.022115 611.439164 
L 949.100795 643.89088 
L 953.261435 660.659856 
L 955.354768 672.034565 
L 957.428195 649.298906 
L 959.507877 670.746566 
L 961.592385 677.990776 
L 963.680379 688.165481 
L 965.758513 702.247306 
L 967.838235 662.875662 
L 969.929977 699.516833 
L 969.929977 699.516833 
" style="fill:none;stroke:#0000ff;stroke-linecap:square;stroke-width:2;"/>
   </g>
   <g id="line2d_82">
    <path clip-path="url(#p70a418e767)" d="M -1 263.16468 
L 240.845493 263.171444 
L 288.058138 262.810378 
L 319.156312 262.344374 
L 352.121705 261.570603 
L 376.370509 260.755334 
L 395.561409 259.919388 
L 416.185271 258.797595 
L 436.809134 257.432553 
L 465.228158 255.264447 
L 486.933017 253.650878 
L 500.8727 252.845638 
L 509.681667 252.56242 
L 516.170238 252.557958 
L 522.233014 252.800115 
L 526.532589 253.177447 
L 530.641007 253.753145 
L 534.574545 254.557645 
L 537.106873 255.236851 
L 539.571664 256.041362 
L 543.149822 257.501926 
L 545.460547 258.654795 
L 547.714907 259.955035 
L 549.915587 261.400664 
L 552.065084 262.982185 
L 556.219679 266.462241 
L 562.1211 271.780753 
L 564.936267 273.995185 
L 566.766509 275.156201 
L 568.56121 276.024026 
L 571.189563 276.780206 
L 572.901171 276.965202 
L 575.410579 276.883263 
L 577.046448 276.662139 
L 581.78719 275.632773 
L 587.75211 274.196951 
L 591.986019 273.342042 
L 596.034441 272.694276 
L 602.411052 271.96854 
L 608.951826 271.497004 
L 617.184938 271.147113 
L 627.602969 270.955704 
L 636.112896 271.009256 
L 642.318192 271.217496 
L 648.881329 271.658036 
L 655.009153 272.338057 
L 659.102406 272.967604 
L 663.341295 273.78595 
L 667.698798 274.813131 
L 671.860075 275.968881 
L 678.042721 277.969281 
L 686.356114 281.026699 
L 694.893643 284.203454 
L 698.883796 285.495741 
L 703.124181 286.551722 
L 705.173582 286.895569 
L 707.376647 287.119079 
L 709.33486 287.181945 
L 711.442031 287.107154 
L 715.698551 286.564182 
L 721.990718 285.24305 
L 726.121172 284.422957 
L 730.22959 283.876749 
L 732.368427 283.740769 
L 734.458886 283.724473 
L 736.503106 283.834451 
L 738.644303 284.100726 
L 740.737015 284.527803 
L 742.783391 285.119642 
L 744.917378 285.936404 
L 747.003202 286.958952 
L 749.042991 288.222082 
L 751.162048 289.881385 
L 753.233606 291.907185 
L 755.377562 294.433818 
L 757.472911 297.255078 
L 761.636359 303.265235 
L 763.703614 282.363044 
L 765.72564 306.804392 
L 767.807354 306.814709 
L 769.943837 306.480594 
L 772.032046 305.972824 
L 774.074115 304.841436 
L 776.16611 305.442211 
L 778.303718 304.164973 
L 780.393003 303.158673 
L 782.4361 302.359634 
L 784.520945 261.252592 
L 786.64378 301.836932 
L 788.71895 300.609822 
L 790.748548 299.809011 
L 792.891584 298.683783 
L 794.986053 300.049784 
L 797.034108 298.977968 
L 799.111144 298.407058 
L 801.214257 246.448927 
L 803.270576 299.129348 
L 805.350728 298.461764 
L 807.452138 293.712259 
L 809.572356 299.763449 
L 811.645025 299.169308 
L 813.734869 300.149502 
L 815.778503 300.918844 
L 817.897722 300.411611 
L 819.969436 258.463345 
L 822.052975 301.880368 
L 824.146542 279.496357 
L 826.193734 302.158232 
L 828.303597 303.920662 
L 830.366368 297.903605 
L 832.486401 292.130355 
L 836.634817 284.519415 
L 838.712938 282.947192 
L 840.792098 286.47094 
L 842.87121 273.092303 
L 844.949261 268.922088 
L 847.068972 280.768433 
L 849.141157 279.962208 
L 851.209654 275.421301 
L 853.314515 262.071362 
L 855.372506 294.573229 
L 857.46373 308.835134 
L 859.546834 312.330869 
L 863.723224 315.75976 
L 865.814032 317.262983 
L 867.893444 315.723611 
L 869.961185 279.441433 
L 872.050337 303.829047 
L 874.125892 324.038901 
L 876.219577 325.506394 
L 878.298028 223.015523 
L 880.39167 330.477134 
L 882.468705 331.189408 
L 884.558308 334.824644 
L 886.63017 336.47375 
L 888.712264 316.809317 
L 890.8029 341.298759 
L 892.873891 339.27718 
L 894.951518 345.296159 
L 897.034332 239.678808 
L 899.120973 349.235561 
L 901.21016 353.236731 
L 903.276934 346.230889 
L 905.368228 357.117953 
L 907.458686 216.096495 
L 909.547331 361.823171 
L 911.611535 363.921656 
L 913.694361 368.62531 
L 915.79357 364.765643 
L 917.866454 370.146761 
L 919.953411 374.186371 
L 922.033092 362.402638 
L 924.104954 377.673184 
L 926.187048 381.026969 
L 928.277685 386.026604 
L 930.357541 372.278732 
L 932.443638 387.176366 
L 934.517591 392.130545 
L 936.612328 398.147152 
L 938.693045 382.802128 
L 940.775481 395.831824 
L 942.8585 400.946469 
L 944.941042 407.103726 
L 947.022115 381.058066 
L 949.100795 404.653685 
L 951.190375 409.477339 
L 953.261435 414.87593 
L 955.354768 422.81103 
L 957.428195 398.10283 
L 959.507877 416.123496 
L 961.592385 423.130411 
L 963.680379 429.747861 
L 965.758513 438.712543 
L 967.838235 396.657291 
L 969.929977 424.293749 
L 969.929977 424.293749 
" style="fill:none;stroke:#008000;stroke-dasharray:16,16;stroke-dashoffset:0;stroke-width:4;"/>
   </g>
   <g id="line2d_83">
    <path clip-path="url(#p70a418e767)" d="M -1 406.567324 
L 139.307142 406.567342 
L 203.370709 408.698136 
L 240.845493 411.1812 
L 267.434276 413.728703 
L 288.058138 416.227646 
L 304.90906 418.621497 
L 319.156312 420.87975 
L 342.383844 424.934145 
L 383.219879 432.322824 
L 395.561409 434.277865 
L 406.447411 435.743774 
L 416.185271 436.776717 
L 424.994238 437.427665 
L 433.036194 437.740118 
L 440.434076 437.74938 
L 447.283445 437.482887 
L 453.660056 436.960724 
L 459.624976 436.197658 
L 465.228158 435.204706 
L 470.510978 433.991019 
L 475.508097 432.565285 
L 480.248838 430.937098 
L 484.75823 429.117422 
L 486.933017 428.139765 
L 493.166223 424.957449 
L 497.099761 422.648644 
L 500.8727 420.210704 
L 504.497643 417.662198 
L 509.681667 413.672736 
L 512.982881 410.928267 
L 517.723623 406.726635 
L 523.688543 401.046767 
L 530.641007 393.981171 
L 545.460547 378.46909 
L 549.915587 374.249434 
L 552.065084 372.419293 
L 554.165724 370.810572 
L 556.219679 369.449832 
L 558.22898 368.362089 
L 560.195526 367.569639 
L 562.1211 367.090399 
L 564.936267 366.984498 
L 566.766509 367.328909 
L 568.56121 368.001456 
L 571.189563 369.600364 
L 572.901171 371.033399 
L 575.410579 373.675397 
L 577.046448 375.725909 
L 579.447212 379.165204 
L 583.314897 385.639914 
L 585.560129 389.834977 
L 589.893307 398.606752 
L 596.034441 411.987265 
L 606.626566 435.440833 
L 611.220018 445.019109 
L 615.060151 452.515355 
L 619.261974 460.081275 
L 621.293357 463.482861 
L 625.707021 470.288023 
L 629.919486 476.057939 
L 633.948296 480.971104 
L 638.227958 485.630053 
L 642.318192 489.639856 
L 646.617767 493.496456 
L 652.892476 498.697552 
L 667.698798 510.615312 
L 673.872501 515.930086 
L 686.356114 527.140434 
L 696.910251 536.702096 
L 701.028305 540.737353 
L 705.173582 545.181431 
L 709.33486 550.077591 
L 717.84389 560.557375 
L 719.940559 562.898104 
L 721.990718 564.977187 
L 723.996384 566.778848 
L 726.121172 568.433689 
L 728.198208 569.811473 
L 730.22959 570.962593 
L 732.368427 571.976197 
L 734.458886 572.768938 
L 736.503106 573.317921 
L 738.644303 573.587944 
L 740.737015 573.474694 
L 742.783391 572.924817 
L 744.917378 571.784646 
L 747.003202 569.993184 
L 749.042991 567.547875 
L 753.233606 561.271936 
L 755.377562 558.710265 
L 757.472911 557.456543 
L 759.521807 557.610792 
L 761.636359 559.743471 
L 763.703614 471.06277 
L 765.72564 563.941055 
L 767.807354 574.467835 
L 769.943837 581.576917 
L 772.032046 587.171695 
L 774.074115 550.774178 
L 776.16611 589.506987 
L 778.303718 596.247894 
L 780.393003 601.431024 
L 782.4361 604.994055 
L 784.520945 386.22467 
L 786.64378 602.439672 
L 788.71895 608.204486 
L 790.748548 612.080532 
L 792.891584 613.400591 
L 794.986053 605.510255 
L 797.034108 611.134089 
L 799.111144 614.612125 
L 801.214257 404.988701 
L 803.270576 607.5401 
L 805.350728 611.933796 
L 807.452138 599.77612 
L 811.645025 608.669717 
L 813.734869 589.411812 
L 815.778503 602.124286 
L 817.897722 605.652446 
L 819.969436 395.416402 
L 822.052975 601.150234 
L 824.146542 366.052085 
L 826.193734 585.880651 
L 828.303597 585.404497 
L 830.366368 478.187731 
L 832.486401 439.582974 
L 834.558892 443.439789 
L 836.634817 422.919695 
L 838.712938 407.724107 
L 840.792098 397.241248 
L 842.87121 490.139346 
L 844.949261 482.474171 
L 847.068972 412.890744 
L 849.141157 394.583386 
L 851.209654 397.06951 
L 853.314515 418.607314 
L 855.372506 475.715585 
L 857.46373 584.044677 
L 859.546834 584.654359 
L 861.621326 585.055666 
L 863.723224 562.853136 
L 865.814032 580.228643 
L 867.893444 575.857835 
L 869.961185 397.691052 
L 872.050337 504.325453 
L 874.125892 581.917113 
L 876.219577 583.996316 
L 878.298028 351.63922 
L 880.39167 584.392418 
L 882.468705 588.215753 
L 884.558308 564.931688 
L 886.63017 590.166187 
L 888.712264 532.416142 
L 890.8029 594.167163 
L 892.873891 598.785486 
L 894.951518 598.174277 
L 897.034332 410.778242 
L 899.120973 601.837262 
L 901.21016 606.874119 
L 903.276934 608.681008 
L 905.368228 612.473967 
L 907.458686 315.362004 
L 909.547331 614.590735 
L 913.694361 626.270435 
L 915.79357 623.733438 
L 917.866454 629.491707 
L 919.953411 636.949783 
L 922.033092 629.875866 
L 924.104954 639.191365 
L 926.187048 646.705251 
L 928.277685 656.531064 
L 930.357541 647.696182 
L 934.517591 666.115362 
L 936.612328 678.070841 
L 938.693045 666.463438 
L 940.775481 673.353241 
L 942.8585 681.983181 
L 944.941042 694.005326 
L 947.022115 676.577775 
L 949.100795 689.535926 
L 951.190375 697.565177 
L 953.261435 707.875526 
L 955.101029 721 
M 955.557788 721 
L 957.428195 704.322095 
L 959.507877 713.692152 
L 961.286345 721 
L 961.286345 721 
" style="fill:none;stroke:#008000;stroke-linecap:square;stroke-width:2;"/>
   </g>
   <g id="line2d_84">
    <path clip-path="url(#p70a418e767)" d="M -1 259.984245 
L 139.307142 259.985019 
L 203.370709 260.156733 
L 267.434276 259.967338 
L 304.90906 259.574518 
L 342.383844 258.932415 
L 389.596489 257.83138 
L 443.922195 256.555076 
L 462.469022 256.328975 
L 477.90886 256.365951 
L 486.933017 256.539699 
L 497.099761 256.939808 
L 504.497643 257.428763 
L 511.347012 258.098471 
L 517.723623 258.986676 
L 523.688543 260.13926 
L 529.291725 261.608614 
L 533.281878 262.952277 
L 537.106873 264.529395 
L 539.571664 265.721366 
L 543.149822 267.733512 
L 545.460547 269.229335 
L 547.714907 270.849189 
L 549.915587 272.589134 
L 554.165724 276.383405 
L 558.22898 280.439144 
L 562.1211 284.439205 
L 564.936267 287.15638 
L 566.766509 288.743733 
L 568.56121 290.115595 
L 571.189563 291.750531 
L 572.901171 292.574259 
L 575.410579 293.473495 
L 577.046448 293.894299 
L 579.447212 294.332368 
L 583.314897 294.742275 
L 589.893307 295.07172 
L 612.885364 295.982417 
L 625.707021 296.745662 
L 633.948296 297.454016 
L 640.2957 298.199701 
L 646.617767 299.185782 
L 652.892476 300.474116 
L 657.078438 301.540002 
L 661.409012 302.841086 
L 665.545724 304.288771 
L 669.802854 305.99829 
L 673.872501 307.842043 
L 678.042721 309.932456 
L 684.346813 313.412211 
L 696.910251 320.612365 
L 701.028305 322.60158 
L 703.124181 323.451746 
L 705.173582 324.154276 
L 707.376647 324.755786 
L 709.33486 325.154979 
L 711.442031 325.449814 
L 715.698551 325.698089 
L 728.198208 325.741115 
L 732.368427 326.165544 
L 734.458886 326.544416 
L 736.503106 327.053599 
L 738.644303 327.764158 
L 740.737015 328.666109 
L 742.783391 329.777829 
L 744.917378 331.213207 
L 747.003202 332.927479 
L 749.042991 334.948134 
L 751.162048 337.455979 
L 753.233606 340.310559 
L 757.472911 346.676475 
L 759.521807 349.478095 
L 761.636359 352.05224 
L 763.703614 349.242522 
L 765.72564 356.053015 
L 769.943837 359.18623 
L 772.032046 360.519161 
L 774.074115 362.024835 
L 776.16611 362.354452 
L 778.303718 362.911237 
L 782.4361 363.705528 
L 784.520945 346.202331 
L 786.64378 364.251364 
L 790.748548 364.543643 
L 792.891584 365.036786 
L 799.111144 365.813583 
L 801.214257 338.371857 
L 803.270576 366.964555 
L 805.350728 367.421902 
L 807.452138 367.393641 
L 809.572356 369.030846 
L 811.645025 369.664326 
L 813.734869 370.491621 
L 815.778503 371.656852 
L 817.897722 372.532131 
L 819.969436 350.255392 
L 822.052975 374.750418 
L 824.146542 361.882876 
L 826.193734 376.555725 
L 828.303597 378.130116 
L 830.366368 377.339102 
L 832.486401 375.432011 
L 834.558892 374.171231 
L 836.634817 370.699766 
L 838.712938 372.105464 
L 840.792098 379.588785 
L 842.87121 368.261484 
L 844.949261 360.840596 
L 847.068972 377.452612 
L 849.141157 374.4967 
L 851.209654 359.449234 
L 853.314515 351.119014 
L 855.372506 381.894496 
L 857.46373 387.737223 
L 859.546834 391.918726 
L 861.621326 393.542309 
L 863.723224 396.331497 
L 865.814032 396.9888 
L 867.893444 398.914104 
L 869.961185 374.937128 
L 872.050337 386.546503 
L 874.125892 405.017042 
L 876.219577 406.34806 
L 878.298028 311.835618 
L 880.39167 411.937828 
L 882.468705 411.705464 
L 884.558308 420.134284 
L 886.63017 418.069334 
L 888.712264 405.847066 
L 890.8029 423.430451 
L 892.873891 419.798675 
L 894.951518 426.833359 
L 897.034332 346.556299 
L 899.120973 430.013737 
L 901.21016 434.791888 
L 903.276934 429.287649 
L 905.368228 438.102459 
L 907.458686 312.730382 
L 909.547331 440.811217 
L 911.611535 444.447389 
L 913.694361 450.26384 
L 915.79357 444.98505 
L 919.953411 455.083298 
L 922.033092 444.476277 
L 924.104954 455.701143 
L 926.187048 460.512195 
L 928.277685 466.500639 
L 930.357541 456.487667 
L 932.443638 466.444013 
L 934.517591 471.746055 
L 936.612328 478.522257 
L 938.693045 464.248781 
L 940.775481 473.271712 
L 942.8585 479.296712 
L 944.941042 486.547051 
L 947.022115 467.254905 
L 949.100795 481.463984 
L 951.190375 487.252642 
L 953.261435 493.586931 
L 955.354768 502.080539 
L 957.428195 479.861574 
L 959.507877 492.525555 
L 961.592385 499.528286 
L 963.680379 507.099034 
L 965.758513 517.063787 
L 967.838235 489.903107 
L 969.929977 509.169066 
L 969.929977 509.169066 
" style="fill:none;stroke:#ffa500;stroke-dasharray:16,16;stroke-dashoffset:0;stroke-width:4;"/>
   </g>
   <g id="line2d_85">
    <path clip-path="url(#p70a418e767)" d="M -1 396.283333 
L 139.307142 396.284629 
L 203.370709 399.456779 
L 240.845493 402.69865 
L 267.434276 405.77901 
L 288.058138 408.592785 
L 331.497842 414.99107 
L 342.383844 416.401961 
L 352.121705 417.466101 
L 360.930671 418.205654 
L 368.972627 418.648078 
L 376.370509 418.82371 
L 383.219879 418.76402 
L 389.596489 418.499808 
L 395.561409 418.060283 
L 401.164591 417.472226 
L 406.447411 416.759714 
L 411.44453 415.943865 
L 416.185271 415.042879 
L 424.994238 413.045359 
L 433.036194 410.863735 
L 440.434076 408.564152 
L 447.283445 406.190727 
L 453.660056 403.771791 
L 459.624976 401.325254 
L 467.907308 397.626021 
L 475.508097 393.90654 
L 482.531033 390.172235 
L 486.933017 387.673976 
L 495.153916 382.65207 
L 500.8727 378.861355 
L 504.497643 376.323859 
L 511.347012 371.234609 
L 517.723623 366.153909 
L 523.688543 361.127656 
L 533.281878 352.647669 
L 543.149822 343.937135 
L 547.714907 340.239901 
L 549.915587 338.619886 
L 552.065084 337.180949 
L 554.165724 335.945456 
L 556.219679 334.935627 
L 558.22898 334.172248 
L 560.195526 333.673612 
L 562.1211 333.454276 
L 564.936267 333.668937 
L 566.766509 334.178684 
L 568.56121 334.977428 
L 571.189563 336.694208 
L 572.901171 338.161183 
L 575.410579 340.794333 
L 577.046448 342.804356 
L 579.447212 346.140612 
L 583.314897 352.361832 
L 585.560129 356.374036 
L 589.893307 364.752752 
L 594.032395 373.309224 
L 602.411052 391.35323 
L 608.951826 405.300344 
L 612.885364 413.355166 
L 617.184938 421.735 
L 621.293357 429.24842 
L 625.707021 436.728012 
L 629.919486 443.277482 
L 633.948296 449.017021 
L 638.227958 454.594637 
L 642.318192 459.485445 
L 646.617767 464.24264 
L 650.726185 468.504512 
L 657.078438 474.743487 
L 671.860075 488.994057 
L 680.192217 497.414778 
L 690.723423 508.402615 
L 696.910251 515.154508 
L 701.028305 519.955742 
L 705.173582 525.155514 
L 709.33486 530.766557 
L 717.84389 542.568396 
L 719.940559 545.208454 
L 721.990718 547.564666 
L 723.996384 549.620414 
L 726.121172 551.522156 
L 728.198208 553.125117 
L 730.22959 554.482941 
L 732.368427 555.720571 
L 734.458886 556.753833 
L 736.503106 557.579654 
L 738.644303 558.202947 
L 740.737015 558.509723 
L 742.783391 558.446069 
L 744.917378 557.893379 
L 747.003202 556.761188 
L 749.042991 555.041625 
L 753.233606 550.339812 
L 755.377562 548.455641 
L 757.472911 547.794594 
L 759.521807 548.573681 
L 761.636359 551.394076 
L 763.703614 553.6974 
L 765.72564 559.694756 
L 767.807354 568.246375 
L 769.943837 576.012885 
L 772.032046 582.238365 
L 774.074115 591.171477 
L 776.16611 585.908195 
L 778.303718 592.967052 
L 780.393003 598.800836 
L 782.4361 603.07522 
L 784.520945 555.13823 
L 786.64378 601.336866 
L 788.71895 607.768519 
L 790.748548 612.519556 
L 792.891584 616.834603 
L 794.986053 606.85099 
L 797.034108 613.165899 
L 799.111144 617.716824 
L 801.214257 527.425355 
L 803.270576 611.514356 
L 807.452138 622.109732 
L 809.572356 610.593853 
L 813.734869 620.882105 
L 815.778503 610.876772 
L 817.897722 615.029974 
L 819.969436 583.757497 
L 822.052975 612.30756 
L 824.146542 634.744101 
L 826.193734 612.190679 
L 828.303597 611.590897 
L 830.366368 616.826585 
L 832.486401 624.622889 
L 834.558892 625.832924 
L 836.634817 616.898291 
L 838.712938 638.118504 
L 840.792098 635.134484 
L 842.87121 626.463027 
L 844.949261 627.577563 
L 847.068972 625.09683 
L 849.141157 636.852338 
L 851.209654 637.390104 
L 853.314515 625.439254 
L 855.372506 618.203407 
L 857.46373 614.235124 
L 859.546834 612.436271 
L 861.621326 611.555199 
L 863.723224 612.342852 
L 865.814032 611.977843 
L 867.893444 613.507387 
L 869.961185 564.107174 
L 872.050337 616.082863 
L 874.125892 614.648705 
L 876.219577 616.321136 
L 878.298028 495.609145 
L 880.39167 618.993807 
L 882.468705 620.963943 
L 884.558308 624.023935 
L 886.63017 625.232133 
L 888.712264 627.53209 
L 890.8029 630.507755 
L 892.873891 632.604748 
L 894.951518 634.932868 
L 897.034332 640.71842 
L 899.120973 639.487928 
L 901.21016 645.284963 
L 903.276934 646.174346 
L 905.368228 651.179986 
L 907.458686 480.396578 
L 909.547331 653.935372 
L 911.611535 659.986513 
L 913.694361 668.529102 
L 915.79357 664.677001 
L 917.866454 670.152548 
L 919.953411 678.309477 
L 922.033092 675.26815 
L 924.104954 680.538472 
L 926.187048 688.26136 
L 928.277685 699.026841 
L 930.357541 691.990138 
L 932.443638 699.214982 
L 934.517591 708.645641 
L 936.494851 721 
M 936.7441 721 
L 938.693045 710.143594 
L 940.775481 716.902634 
L 941.708475 721 
L 941.708475 721 
" style="fill:none;stroke:#ffa500;stroke-linecap:square;stroke-width:2;"/>
   </g>
   <g id="line2d_86">
    <path clip-path="url(#p70a418e767)" d="M -1 289.737394 
L 139.307142 289.738627 
L 203.370709 290.162207 
L 240.845493 290.245443 
L 288.058138 290.030869 
L 319.156312 289.633182 
L 352.121705 288.977682 
L 395.561409 287.844013 
L 440.434076 286.68606 
L 459.624976 286.384572 
L 473.043306 286.363798 
L 482.531033 286.522409 
L 491.13484 286.866355 
L 499.005482 287.426076 
L 504.497643 288.004671 
L 511.347012 289.008843 
L 516.170238 289.950491 
L 520.754195 291.066224 
L 523.688543 291.912452 
L 529.291725 293.865459 
L 533.281878 295.569015 
L 537.106873 297.484047 
L 539.571664 298.879167 
L 543.149822 301.147598 
L 547.714907 304.488285 
L 552.065084 308.157805 
L 556.219679 312.08908 
L 562.1211 318.181999 
L 566.766509 322.948228 
L 568.56121 324.647098 
L 571.189563 326.892288 
L 572.901171 328.171118 
L 575.410579 329.768022 
L 577.046448 330.636133 
L 579.447212 331.68586 
L 583.314897 332.901599 
L 585.560129 333.38422 
L 587.75211 333.720771 
L 591.986019 334.046069 
L 596.034441 334.034924 
L 602.411052 333.617701 
L 621.293357 331.974134 
L 627.602969 331.693409 
L 633.948296 331.620638 
L 640.2957 331.78194 
L 646.617767 332.201721 
L 652.892476 332.909926 
L 657.078438 333.568669 
L 661.409012 334.431234 
L 665.545724 335.449898 
L 669.802854 336.719896 
L 673.872501 338.159251 
L 678.042721 339.862467 
L 684.346813 342.79828 
L 692.600121 346.756146 
L 696.910251 348.437575 
L 698.883796 349.026033 
L 701.028305 349.505071 
L 703.124181 349.79872 
L 705.173582 349.916942 
L 707.376647 349.867454 
L 709.33486 349.687561 
L 713.687263 348.945061 
L 728.198208 345.745333 
L 732.368427 345.242662 
L 734.458886 345.166154 
L 736.503106 345.245886 
L 738.644303 345.529002 
L 740.737015 346.037154 
L 742.783391 346.784402 
L 744.917378 347.852954 
L 747.003202 349.206138 
L 749.042991 350.851613 
L 751.162048 352.928642 
L 753.233606 355.308276 
L 757.472911 360.483678 
L 761.636359 364.723073 
L 763.703614 367.538128 
L 765.72564 369.063641 
L 769.943837 374.113947 
L 774.074115 379.152365 
L 776.16611 381.142174 
L 780.393003 384.116759 
L 782.4361 385.390239 
L 784.520945 365.695839 
L 786.64378 387.352772 
L 790.748548 388.777974 
L 792.891584 390.567041 
L 794.986053 390.250543 
L 797.034108 390.898738 
L 799.111144 391.695087 
L 801.214257 355.933517 
L 803.270576 393.392628 
L 805.350728 394.361598 
L 807.452138 392.54299 
L 809.572356 396.466786 
L 811.645025 397.740703 
L 813.734869 399.680619 
L 815.778503 400.243689 
L 817.897722 402.062286 
L 819.969436 385.202134 
L 822.052975 405.326155 
L 824.146542 394.737045 
L 826.193734 409.241049 
L 828.303597 410.041956 
L 830.366368 410.320019 
L 832.486401 409.511425 
L 834.558892 409.791204 
L 836.634817 416.101424 
L 838.712938 408.666238 
L 840.792098 414.461007 
L 844.949261 403.446641 
L 847.068972 419.59897 
L 849.141157 413.726259 
L 851.209654 406.640869 
L 853.314515 396.944 
L 855.372506 432.277348 
L 857.46373 440.25993 
L 859.546834 444.263095 
L 863.723224 446.405899 
L 865.814032 448.510457 
L 867.893444 447.549191 
L 869.961185 432.467461 
L 872.050337 446.955642 
L 874.125892 456.276425 
L 876.219577 456.012 
L 878.298028 341.334018 
L 880.39167 458.696803 
L 882.468705 459.081352 
L 884.558308 460.882349 
L 886.63017 459.9576 
L 888.712264 459.565548 
L 890.8029 461.185169 
L 894.951518 461.94449 
L 897.034332 403.406953 
L 899.120973 463.345432 
L 901.21016 464.799157 
L 903.276934 465.040637 
L 905.368228 466.438343 
L 907.458686 339.175927 
L 909.547331 466.967149 
L 911.611535 469.136861 
L 913.694361 472.044986 
L 915.79357 468.854613 
L 917.866454 471.536666 
L 919.953411 474.774227 
L 922.033092 471.469002 
L 924.104954 474.514712 
L 926.187048 477.937561 
L 928.277685 482.352222 
L 930.357541 478.84293 
L 932.443638 481.862627 
L 934.517591 485.857597 
L 936.612328 491.407434 
L 938.693045 484.305086 
L 940.775481 488.297577 
L 942.8585 492.789062 
L 944.941042 498.461019 
L 947.022115 489.138098 
L 949.100795 494.30236 
L 951.190375 498.407863 
L 953.261435 503.423498 
L 955.354768 510.470035 
L 957.428195 499.72944 
L 959.507877 504.575938 
L 961.592385 509.03542 
L 963.680379 515.041066 
L 965.758513 523.557236 
L 967.838235 515.318457 
L 969.929977 520.224283 
L 969.929977 520.224283 
" style="fill:none;stroke:#800080;stroke-dasharray:16,16;stroke-dashoffset:0;stroke-width:4;"/>
   </g>
   <g id="line2d_87">
    <path clip-path="url(#p70a418e767)" d="M -1 442.633289 
L 139.307142 442.638844 
L 203.370709 450.115864 
L 240.845493 457.272378 
L 267.434276 463.799702 
L 288.058138 469.281755 
L 304.90906 473.306993 
L 319.156312 475.594426 
L 331.497842 476.103131 
L 342.383844 475.045357 
L 352.121705 472.791714 
L 360.930671 469.742376 
L 368.972627 466.238166 
L 376.370509 462.529402 
L 383.219879 458.782242 
L 395.561409 451.53498 
L 411.44453 441.775414 
L 436.809134 426.166449 
L 486.933017 395.633603 
L 497.099761 389.018007 
L 504.497643 383.960457 
L 512.982881 377.842424 
L 522.233014 370.762643 
L 530.641007 364.027881 
L 541.972427 354.960512 
L 545.460547 352.361112 
L 549.915587 349.37122 
L 552.065084 348.124082 
L 554.165724 347.069803 
L 556.219679 346.229002 
L 558.22898 345.621063 
L 560.195526 345.262954 
L 562.1211 345.168145 
L 564.936267 345.537915 
L 566.766509 346.129345 
L 568.56121 346.99238 
L 571.189563 348.773911 
L 572.901171 350.264131 
L 575.410579 352.905136 
L 577.046448 354.90439 
L 579.447212 358.204177 
L 583.314897 364.321962 
L 587.75211 372.308404 
L 591.986019 380.608059 
L 598.638112 394.377382 
L 608.951826 415.814575 
L 612.885364 423.597007 
L 617.184938 431.679593 
L 621.293357 438.913701 
L 625.707021 446.102215 
L 629.919486 452.38549 
L 633.948296 457.883068 
L 638.227958 463.218695 
L 642.318192 467.893919 
L 646.617767 472.441801 
L 652.892476 478.593822 
L 663.341295 488.265803 
L 671.860075 496.261844 
L 680.192217 504.464854 
L 688.565562 513.074821 
L 694.893643 519.923461 
L 698.883796 524.529614 
L 703.124181 529.78808 
L 707.376647 535.49672 
L 713.687263 544.570482 
L 717.84389 550.480964 
L 719.940559 553.260035 
L 721.990718 555.767538 
L 723.996384 557.980642 
L 726.121172 560.047055 
L 728.198208 561.793234 
L 730.22959 563.254808 
L 732.368427 564.545263 
L 734.458886 565.558183 
L 736.503106 566.285954 
L 738.644303 566.719505 
L 740.737015 566.758165 
L 742.783391 566.367916 
L 744.917378 565.444296 
L 747.003202 563.984824 
L 749.042991 562.05783 
L 753.233606 557.503577 
L 755.377562 555.956338 
L 757.472911 555.700863 
L 759.521807 556.86778 
L 761.636359 559.901771 
L 763.703614 567.198587 
L 765.72564 567.764466 
L 767.807354 576.001799 
L 769.943837 583.263762 
L 772.032046 589.085797 
L 774.074115 597.294105 
L 776.16611 592.763342 
L 778.303718 599.334185 
L 780.393003 605.024066 
L 782.4361 609.33713 
L 784.520945 592.197159 
L 786.64378 608.278218 
L 788.71895 614.781177 
L 792.891584 624.876681 
L 794.986053 615.221157 
L 797.034108 621.752181 
L 799.111144 626.695561 
L 801.214257 554.621155 
L 803.270576 621.462196 
L 807.452138 632.8589 
L 809.572356 621.623563 
L 811.645025 627.013868 
L 813.734869 632.759341 
L 815.778503 622.695242 
L 817.897722 627.197551 
L 819.969436 680.304403 
L 822.052975 624.667581 
L 824.146542 687.10691 
L 826.193734 624.79912 
L 828.303597 623.739168 
L 830.366368 630.596625 
L 832.486401 639.188859 
L 834.558892 642.941646 
L 836.634817 633.905158 
L 838.712938 655.837437 
L 840.792098 645.726979 
L 842.87121 661.983414 
L 844.949261 675.657611 
L 847.068972 642.947443 
L 849.141157 653.211291 
L 851.209654 666.693144 
L 852.315189 721 
M 854.052507 721 
L 855.372506 633.196534 
L 857.46373 628.458675 
L 859.546834 626.73314 
L 861.621326 625.925343 
L 863.723224 626.499078 
L 865.814032 626.131957 
L 867.893444 628.237897 
L 869.961185 648.866561 
L 872.050337 630.374312 
L 874.125892 628.356968 
L 876.219577 629.896252 
L 878.298028 510.038614 
L 880.39167 632.078518 
L 882.468705 633.918986 
L 884.558308 636.501383 
L 886.63017 637.604124 
L 888.712264 643.12139 
L 890.8029 642.282874 
L 892.873891 644.368373 
L 894.951518 646.226668 
L 897.034332 719.01331 
L 899.120973 650.259286 
L 901.21016 655.475375 
L 903.276934 656.394945 
L 905.368228 660.788642 
L 907.458686 488.225545 
L 909.547331 663.138869 
L 911.611535 668.609887 
L 913.694361 676.422086 
L 915.79357 672.852407 
L 917.866454 677.742612 
L 919.953411 685.181584 
L 922.033092 682.360674 
L 924.104954 687.021702 
L 926.187048 694.123972 
L 928.277685 704.10379 
L 930.357541 697.416848 
L 932.443638 704.097822 
L 934.517591 712.885431 
L 935.903757 721 
M 937.386224 721 
L 938.693045 713.995658 
L 940.970107 721 
L 940.970107 721 
" style="fill:none;stroke:#800080;stroke-linecap:square;stroke-width:2;"/>
   </g>
   <g id="patch_3">
    <path d="M 97.776 640.8 
L 97.776 36 
" style="fill:none;stroke:#000000;stroke-linecap:square;stroke-linejoin:miter;stroke-width:0.8;"/>
   </g>
   <g id="patch_4">
    <path d="M 957.6 640.8 
L 957.6 36 
" style="fill:none;stroke:#000000;stroke-linecap:square;stroke-linejoin:miter;stroke-width:0.8;"/>
   </g>
   <g id="patch_5">
    <path d="M 97.776 640.8 
L 957.6 640.8 
" style="fill:none;stroke:#000000;stroke-linecap:square;stroke-linejoin:miter;stroke-width:0.8;"/>
   </g>
   <g id="patch_6">
    <path d="M 97.776 36 
L 957.6 36 
" style="fill:none;stroke:#000000;stroke-linecap:square;stroke-linejoin:miter;stroke-width:0.8;"/>
   </g>
   <g id="text_13">
    <!-- The Mean and std of the gradients of each layer -->
    <defs>
     <path d="M 18.3125 70.21875 
L 18.3125 54.6875 
L 36.8125 54.6875 
L 36.8125 47.703125 
L 18.3125 47.703125 
L 18.3125 18.015625 
Q 18.3125 11.328125 20.140625 9.421875 
Q 21.96875 7.515625 27.59375 7.515625 
L 36.8125 7.515625 
L 36.8125 0 
L 27.59375 0 
Q 17.1875 0 13.234375 3.875 
Q 9.28125 7.765625 9.28125 18.015625 
L 9.28125 47.703125 
L 2.6875 47.703125 
L 2.6875 54.6875 
L 9.28125 54.6875 
L 9.28125 70.21875 
z
" id="DejaVuSans-116"/>
     <path d="M 37.109375 75.984375 
L 37.109375 68.5 
L 28.515625 68.5 
Q 23.6875 68.5 21.796875 66.546875 
Q 19.921875 64.59375 19.921875 59.515625 
L 19.921875 54.6875 
L 34.71875 54.6875 
L 34.71875 47.703125 
L 19.921875 47.703125 
L 19.921875 0 
L 10.890625 0 
L 10.890625 47.703125 
L 2.296875 47.703125 
L 2.296875 54.6875 
L 10.890625 54.6875 
L 10.890625 58.5 
Q 10.890625 67.625 15.140625 71.796875 
Q 19.390625 75.984375 28.609375 75.984375 
z
" id="DejaVuSans-102"/>
     <path d="M 45.40625 27.984375 
Q 45.40625 37.75 41.375 43.109375 
Q 37.359375 48.484375 30.078125 48.484375 
Q 22.859375 48.484375 18.828125 43.109375 
Q 14.796875 37.75 14.796875 27.984375 
Q 14.796875 18.265625 18.828125 12.890625 
Q 22.859375 7.515625 30.078125 7.515625 
Q 37.359375 7.515625 41.375 12.890625 
Q 45.40625 18.265625 45.40625 27.984375 
z
M 54.390625 6.78125 
Q 54.390625 -7.171875 48.1875 -13.984375 
Q 42 -20.796875 29.203125 -20.796875 
Q 24.46875 -20.796875 20.265625 -20.09375 
Q 16.0625 -19.390625 12.109375 -17.921875 
L 12.109375 -9.1875 
Q 16.0625 -11.328125 19.921875 -12.34375 
Q 23.78125 -13.375 27.78125 -13.375 
Q 36.625 -13.375 41.015625 -8.765625 
Q 45.40625 -4.15625 45.40625 5.171875 
L 45.40625 9.625 
Q 42.625 4.78125 38.28125 2.390625 
Q 33.9375 0 27.875 0 
Q 17.828125 0 11.671875 7.65625 
Q 5.515625 15.328125 5.515625 27.984375 
Q 5.515625 40.671875 11.671875 48.328125 
Q 17.828125 56 27.875 56 
Q 33.9375 56 38.28125 53.609375 
Q 42.625 51.21875 45.40625 46.390625 
L 45.40625 54.6875 
L 54.390625 54.6875 
z
" id="DejaVuSans-103"/>
     <path d="M 41.109375 46.296875 
Q 39.59375 47.171875 37.8125 47.578125 
Q 36.03125 48 33.890625 48 
Q 26.265625 48 22.1875 43.046875 
Q 18.109375 38.09375 18.109375 28.8125 
L 18.109375 0 
L 9.078125 0 
L 9.078125 54.6875 
L 18.109375 54.6875 
L 18.109375 46.1875 
Q 20.953125 51.171875 25.484375 53.578125 
Q 30.03125 56 36.53125 56 
Q 37.453125 56 38.578125 55.875 
Q 39.703125 55.765625 41.0625 55.515625 
z
" id="DejaVuSans-114"/>
     <path d="M 9.421875 54.6875 
L 18.40625 54.6875 
L 18.40625 0 
L 9.421875 0 
z
M 9.421875 75.984375 
L 18.40625 75.984375 
L 18.40625 64.59375 
L 9.421875 64.59375 
z
" id="DejaVuSans-105"/>
     <path d="M 9.421875 75.984375 
L 18.40625 75.984375 
L 18.40625 0 
L 9.421875 0 
z
" id="DejaVuSans-108"/>
     <path d="M 32.171875 -5.078125 
Q 28.375 -14.84375 24.75 -17.8125 
Q 21.140625 -20.796875 15.09375 -20.796875 
L 7.90625 -20.796875 
L 7.90625 -13.28125 
L 13.1875 -13.28125 
Q 16.890625 -13.28125 18.9375 -11.515625 
Q 21 -9.765625 23.484375 -3.21875 
L 25.09375 0.875 
L 2.984375 54.6875 
L 12.5 54.6875 
L 29.59375 11.921875 
L 46.6875 54.6875 
L 56.203125 54.6875 
z
" id="DejaVuSans-121"/>
    </defs>
    <g transform="translate(262.620656 30)scale(0.22 -0.22)">
     <use xlink:href="#DejaVuSans-84"/>
     <use x="61.083984" xlink:href="#DejaVuSans-104"/>
     <use x="124.462891" xlink:href="#DejaVuSans-101"/>
     <use x="185.986328" xlink:href="#DejaVuSans-32"/>
     <use x="217.773438" xlink:href="#DejaVuSans-77"/>
     <use x="304.052734" xlink:href="#DejaVuSans-101"/>
     <use x="365.576172" xlink:href="#DejaVuSans-97"/>
     <use x="426.855469" xlink:href="#DejaVuSans-110"/>
     <use x="490.234375" xlink:href="#DejaVuSans-32"/>
     <use x="522.021484" xlink:href="#DejaVuSans-97"/>
     <use x="583.300781" xlink:href="#DejaVuSans-110"/>
     <use x="646.679688" xlink:href="#DejaVuSans-100"/>
     <use x="710.15625" xlink:href="#DejaVuSans-32"/>
     <use x="741.943359" xlink:href="#DejaVuSans-115"/>
     <use x="794.042969" xlink:href="#DejaVuSans-116"/>
     <use x="833.251953" xlink:href="#DejaVuSans-100"/>
     <use x="896.728516" xlink:href="#DejaVuSans-32"/>
     <use x="928.515625" xlink:href="#DejaVuSans-111"/>
     <use x="989.697266" xlink:href="#DejaVuSans-102"/>
     <use x="1024.902344" xlink:href="#DejaVuSans-32"/>
     <use x="1056.689453" xlink:href="#DejaVuSans-116"/>
     <use x="1095.898438" xlink:href="#DejaVuSans-104"/>
     <use x="1159.277344" xlink:href="#DejaVuSans-101"/>
     <use x="1220.800781" xlink:href="#DejaVuSans-32"/>
     <use x="1252.587891" xlink:href="#DejaVuSans-103"/>
     <use x="1316.064453" xlink:href="#DejaVuSans-114"/>
     <use x="1357.177734" xlink:href="#DejaVuSans-97"/>
     <use x="1418.457031" xlink:href="#DejaVuSans-100"/>
     <use x="1481.933594" xlink:href="#DejaVuSans-105"/>
     <use x="1509.716797" xlink:href="#DejaVuSans-101"/>
     <use x="1571.240234" xlink:href="#DejaVuSans-110"/>
     <use x="1634.619141" xlink:href="#DejaVuSans-116"/>
     <use x="1673.828125" xlink:href="#DejaVuSans-115"/>
     <use x="1725.927734" xlink:href="#DejaVuSans-32"/>
     <use x="1757.714844" xlink:href="#DejaVuSans-111"/>
     <use x="1818.896484" xlink:href="#DejaVuSans-102"/>
     <use x="1854.101562" xlink:href="#DejaVuSans-32"/>
     <use x="1885.888672" xlink:href="#DejaVuSans-101"/>
     <use x="1947.412109" xlink:href="#DejaVuSans-97"/>
     <use x="2008.691406" xlink:href="#DejaVuSans-99"/>
     <use x="2063.671875" xlink:href="#DejaVuSans-104"/>
     <use x="2127.050781" xlink:href="#DejaVuSans-32"/>
     <use x="2158.837891" xlink:href="#DejaVuSans-108"/>
     <use x="2186.621094" xlink:href="#DejaVuSans-97"/>
     <use x="2247.900391" xlink:href="#DejaVuSans-121"/>
     <use x="2307.080078" xlink:href="#DejaVuSans-101"/>
     <use x="2368.603516" xlink:href="#DejaVuSans-114"/>
    </g>
   </g>
  </g>
 </g>
 <defs>
  <clipPath id="p70a418e767">
   <rect height="604.8" width="859.824" x="97.776" y="36"/>
  </clipPath>
 </defs>
</svg>
