<?xml version="1.0" encoding="utf-8" standalone="no"?>
<!DOCTYPE svg PUBLIC "-//W3C//DTD SVG 1.1//EN"
  "http://www.w3.org/Graphics/SVG/1.1/DTD/svg11.dtd">
<!-- Created with matplotlib (https://matplotlib.org/) -->
<svg height="720pt" version="1.1" viewBox="0 0 1008 720" width="1008pt" xmlns="http://www.w3.org/2000/svg" xmlns:xlink="http://www.w3.org/1999/xlink">
 <defs>
  <style type="text/css">
*{stroke-linecap:butt;stroke-linejoin:round;}
  </style>
 </defs>
 <g id="figure_1">
  <g id="patch_1">
   <path d="M 0 720 
L 1008 720 
L 1008 0 
L 0 0 
z
" style="fill:#ffffff;"/>
  </g>
  <g id="axes_1">
   <g id="patch_2">
    <path d="M 97.776 640.8 
L 957.6 640.8 
L 957.6 36 
L 97.776 36 
z
" style="fill:#ffffff;"/>
   </g>
   <g id="matplotlib.axis_1">
    <g id="xtick_1">
     <g id="line2d_1">
      <defs>
       <path d="M 0 0 
L 0 3.5 
" id="ma6199d6be8" style="stroke:#000000;stroke-width:0.8;"/>
      </defs>
      <g>
       <use style="stroke:#000000;stroke-width:0.8;" x="139.307142" xlink:href="#ma6199d6be8" y="640.8"/>
      </g>
     </g>
     <g id="text_1">
      <!-- $\mathdefault{1}$ -->
      <defs>
       <path d="M 12.40625 8.296875 
L 28.515625 8.296875 
L 28.515625 63.921875 
L 10.984375 60.40625 
L 10.984375 69.390625 
L 28.421875 72.90625 
L 38.28125 72.90625 
L 38.28125 8.296875 
L 54.390625 8.296875 
L 54.390625 0 
L 12.40625 0 
z
" id="DejaVuSans-49"/>
      </defs>
      <g transform="translate(131.307142 666.796094)scale(0.25 -0.25)">
       <use transform="translate(0 0.09375)" xlink:href="#DejaVuSans-49"/>
      </g>
     </g>
    </g>
    <g id="xtick_2">
     <g id="line2d_2">
      <g>
       <use style="stroke:#000000;stroke-width:0.8;" x="352.121705" xlink:href="#ma6199d6be8" y="640.8"/>
      </g>
     </g>
     <g id="text_2">
      <!-- $\mathdefault{10}$ -->
      <defs>
       <path d="M 31.78125 66.40625 
Q 24.171875 66.40625 20.328125 58.90625 
Q 16.5 51.421875 16.5 36.375 
Q 16.5 21.390625 20.328125 13.890625 
Q 24.171875 6.390625 31.78125 6.390625 
Q 39.453125 6.390625 43.28125 13.890625 
Q 47.125 21.390625 47.125 36.375 
Q 47.125 51.421875 43.28125 58.90625 
Q 39.453125 66.40625 31.78125 66.40625 
z
M 31.78125 74.21875 
Q 44.046875 74.21875 50.515625 64.515625 
Q 56.984375 54.828125 56.984375 36.375 
Q 56.984375 17.96875 50.515625 8.265625 
Q 44.046875 -1.421875 31.78125 -1.421875 
Q 19.53125 -1.421875 13.0625 8.265625 
Q 6.59375 17.96875 6.59375 36.375 
Q 6.59375 54.828125 13.0625 64.515625 
Q 19.53125 74.21875 31.78125 74.21875 
z
" id="DejaVuSans-48"/>
      </defs>
      <g transform="translate(336.121705 666.796094)scale(0.25 -0.25)">
       <use transform="translate(0 0.78125)" xlink:href="#DejaVuSans-49"/>
       <use transform="translate(63.623047 0.78125)" xlink:href="#DejaVuSans-48"/>
      </g>
     </g>
    </g>
    <g id="xtick_3">
     <g id="line2d_3">
      <g>
       <use style="stroke:#000000;stroke-width:0.8;" x="564.936267" xlink:href="#ma6199d6be8" y="640.8"/>
      </g>
     </g>
     <g id="text_3">
      <!-- $\mathdefault{100}$ -->
      <g transform="translate(541.061267 666.796094)scale(0.25 -0.25)">
       <use transform="translate(0 0.78125)" xlink:href="#DejaVuSans-49"/>
       <use transform="translate(63.623047 0.78125)" xlink:href="#DejaVuSans-48"/>
       <use transform="translate(127.246094 0.78125)" xlink:href="#DejaVuSans-48"/>
      </g>
     </g>
    </g>
    <g id="xtick_4">
     <g id="line2d_4">
      <g>
       <use style="stroke:#000000;stroke-width:0.8;" x="777.75083" xlink:href="#ma6199d6be8" y="640.8"/>
      </g>
     </g>
     <g id="text_4">
      <!-- $\mathdefault{1000}$ -->
      <g transform="translate(745.87583 666.796094)scale(0.25 -0.25)">
       <use transform="translate(0 0.78125)" xlink:href="#DejaVuSans-49"/>
       <use transform="translate(63.623047 0.78125)" xlink:href="#DejaVuSans-48"/>
       <use transform="translate(127.246094 0.78125)" xlink:href="#DejaVuSans-48"/>
       <use transform="translate(190.869141 0.78125)" xlink:href="#DejaVuSans-48"/>
      </g>
     </g>
    </g>
    <g id="xtick_5">
     <g id="line2d_5">
      <g>
       <use style="stroke:#000000;stroke-width:0.8;" x="957.6" xlink:href="#ma6199d6be8" y="640.8"/>
      </g>
     </g>
     <g id="text_5">
      <!-- $\mathdefault{7000}$ -->
      <defs>
       <path d="M 8.203125 72.90625 
L 55.078125 72.90625 
L 55.078125 68.703125 
L 28.609375 0 
L 18.3125 0 
L 43.21875 64.59375 
L 8.203125 64.59375 
z
" id="DejaVuSans-55"/>
      </defs>
      <g transform="translate(925.725 666.796094)scale(0.25 -0.25)">
       <use transform="translate(0 0.78125)" xlink:href="#DejaVuSans-55"/>
       <use transform="translate(63.623047 0.78125)" xlink:href="#DejaVuSans-48"/>
       <use transform="translate(127.246094 0.78125)" xlink:href="#DejaVuSans-48"/>
       <use transform="translate(190.869141 0.78125)" xlink:href="#DejaVuSans-48"/>
      </g>
     </g>
    </g>
    <g id="xtick_6">
     <g id="line2d_6">
      <defs>
       <path d="M 0 0 
L 0 2 
" id="m8adefeae6e" style="stroke:#000000;stroke-width:0.6;"/>
      </defs>
      <g>
       <use style="stroke:#000000;stroke-width:0.6;" x="106.341749" xlink:href="#m8adefeae6e" y="640.8"/>
      </g>
     </g>
    </g>
    <g id="xtick_7">
     <g id="line2d_7">
      <g>
       <use style="stroke:#000000;stroke-width:0.6;" x="118.68328" xlink:href="#m8adefeae6e" y="640.8"/>
      </g>
     </g>
    </g>
    <g id="xtick_8">
     <g id="line2d_8">
      <g>
       <use style="stroke:#000000;stroke-width:0.6;" x="129.569281" xlink:href="#m8adefeae6e" y="640.8"/>
      </g>
     </g>
    </g>
    <g id="xtick_9">
     <g id="line2d_9">
      <g>
       <use style="stroke:#000000;stroke-width:0.6;" x="203.370709" xlink:href="#m8adefeae6e" y="640.8"/>
      </g>
     </g>
    </g>
    <g id="xtick_10">
     <g id="line2d_10">
      <g>
       <use style="stroke:#000000;stroke-width:0.6;" x="240.845493" xlink:href="#m8adefeae6e" y="640.8"/>
      </g>
     </g>
    </g>
    <g id="xtick_11">
     <g id="line2d_11">
      <g>
       <use style="stroke:#000000;stroke-width:0.6;" x="267.434276" xlink:href="#m8adefeae6e" y="640.8"/>
      </g>
     </g>
    </g>
    <g id="xtick_12">
     <g id="line2d_12">
      <g>
       <use style="stroke:#000000;stroke-width:0.6;" x="288.058138" xlink:href="#m8adefeae6e" y="640.8"/>
      </g>
     </g>
    </g>
    <g id="xtick_13">
     <g id="line2d_13">
      <g>
       <use style="stroke:#000000;stroke-width:0.6;" x="304.90906" xlink:href="#m8adefeae6e" y="640.8"/>
      </g>
     </g>
    </g>
    <g id="xtick_14">
     <g id="line2d_14">
      <g>
       <use style="stroke:#000000;stroke-width:0.6;" x="319.156312" xlink:href="#m8adefeae6e" y="640.8"/>
      </g>
     </g>
    </g>
    <g id="xtick_15">
     <g id="line2d_15">
      <g>
       <use style="stroke:#000000;stroke-width:0.6;" x="331.497842" xlink:href="#m8adefeae6e" y="640.8"/>
      </g>
     </g>
    </g>
    <g id="xtick_16">
     <g id="line2d_16">
      <g>
       <use style="stroke:#000000;stroke-width:0.6;" x="342.383844" xlink:href="#m8adefeae6e" y="640.8"/>
      </g>
     </g>
    </g>
    <g id="xtick_17">
     <g id="line2d_17">
      <g>
       <use style="stroke:#000000;stroke-width:0.6;" x="416.185271" xlink:href="#m8adefeae6e" y="640.8"/>
      </g>
     </g>
    </g>
    <g id="xtick_18">
     <g id="line2d_18">
      <g>
       <use style="stroke:#000000;stroke-width:0.6;" x="453.660056" xlink:href="#m8adefeae6e" y="640.8"/>
      </g>
     </g>
    </g>
    <g id="xtick_19">
     <g id="line2d_19">
      <g>
       <use style="stroke:#000000;stroke-width:0.6;" x="480.248838" xlink:href="#m8adefeae6e" y="640.8"/>
      </g>
     </g>
    </g>
    <g id="xtick_20">
     <g id="line2d_20">
      <g>
       <use style="stroke:#000000;stroke-width:0.6;" x="500.8727" xlink:href="#m8adefeae6e" y="640.8"/>
      </g>
     </g>
    </g>
    <g id="xtick_21">
     <g id="line2d_21">
      <g>
       <use style="stroke:#000000;stroke-width:0.6;" x="517.723623" xlink:href="#m8adefeae6e" y="640.8"/>
      </g>
     </g>
    </g>
    <g id="xtick_22">
     <g id="line2d_22">
      <g>
       <use style="stroke:#000000;stroke-width:0.6;" x="531.970874" xlink:href="#m8adefeae6e" y="640.8"/>
      </g>
     </g>
    </g>
    <g id="xtick_23">
     <g id="line2d_23">
      <g>
       <use style="stroke:#000000;stroke-width:0.6;" x="544.312405" xlink:href="#m8adefeae6e" y="640.8"/>
      </g>
     </g>
    </g>
    <g id="xtick_24">
     <g id="line2d_24">
      <g>
       <use style="stroke:#000000;stroke-width:0.6;" x="555.198407" xlink:href="#m8adefeae6e" y="640.8"/>
      </g>
     </g>
    </g>
    <g id="xtick_25">
     <g id="line2d_25">
      <g>
       <use style="stroke:#000000;stroke-width:0.6;" x="628.999834" xlink:href="#m8adefeae6e" y="640.8"/>
      </g>
     </g>
    </g>
    <g id="xtick_26">
     <g id="line2d_26">
      <g>
       <use style="stroke:#000000;stroke-width:0.6;" x="666.474619" xlink:href="#m8adefeae6e" y="640.8"/>
      </g>
     </g>
    </g>
    <g id="xtick_27">
     <g id="line2d_27">
      <g>
       <use style="stroke:#000000;stroke-width:0.6;" x="693.063401" xlink:href="#m8adefeae6e" y="640.8"/>
      </g>
     </g>
    </g>
    <g id="xtick_28">
     <g id="line2d_28">
      <g>
       <use style="stroke:#000000;stroke-width:0.6;" x="713.687263" xlink:href="#m8adefeae6e" y="640.8"/>
      </g>
     </g>
    </g>
    <g id="xtick_29">
     <g id="line2d_29">
      <g>
       <use style="stroke:#000000;stroke-width:0.6;" x="730.538185" xlink:href="#m8adefeae6e" y="640.8"/>
      </g>
     </g>
    </g>
    <g id="xtick_30">
     <g id="line2d_30">
      <g>
       <use style="stroke:#000000;stroke-width:0.6;" x="744.785437" xlink:href="#m8adefeae6e" y="640.8"/>
      </g>
     </g>
    </g>
    <g id="xtick_31">
     <g id="line2d_31">
      <g>
       <use style="stroke:#000000;stroke-width:0.6;" x="757.126968" xlink:href="#m8adefeae6e" y="640.8"/>
      </g>
     </g>
    </g>
    <g id="xtick_32">
     <g id="line2d_32">
      <g>
       <use style="stroke:#000000;stroke-width:0.6;" x="768.01297" xlink:href="#m8adefeae6e" y="640.8"/>
      </g>
     </g>
    </g>
    <g id="xtick_33">
     <g id="line2d_33">
      <g>
       <use style="stroke:#000000;stroke-width:0.6;" x="841.814397" xlink:href="#m8adefeae6e" y="640.8"/>
      </g>
     </g>
    </g>
    <g id="xtick_34">
     <g id="line2d_34">
      <g>
       <use style="stroke:#000000;stroke-width:0.6;" x="879.289181" xlink:href="#m8adefeae6e" y="640.8"/>
      </g>
     </g>
    </g>
    <g id="xtick_35">
     <g id="line2d_35">
      <g>
       <use style="stroke:#000000;stroke-width:0.6;" x="905.877964" xlink:href="#m8adefeae6e" y="640.8"/>
      </g>
     </g>
    </g>
    <g id="xtick_36">
     <g id="line2d_36">
      <g>
       <use style="stroke:#000000;stroke-width:0.6;" x="926.501826" xlink:href="#m8adefeae6e" y="640.8"/>
      </g>
     </g>
    </g>
    <g id="xtick_37">
     <g id="line2d_37">
      <g>
       <use style="stroke:#000000;stroke-width:0.6;" x="943.352748" xlink:href="#m8adefeae6e" y="640.8"/>
      </g>
     </g>
    </g>
    <g id="xtick_38">
     <g id="line2d_38">
      <g>
       <use style="stroke:#000000;stroke-width:0.6;" x="957.6" xlink:href="#m8adefeae6e" y="640.8"/>
      </g>
     </g>
    </g>
    <g id="text_6">
     <!-- # Epochs -->
     <defs>
      <path d="M 51.125 44 
L 36.921875 44 
L 32.8125 27.6875 
L 47.125 27.6875 
z
M 43.796875 71.78125 
L 38.71875 51.515625 
L 52.984375 51.515625 
L 58.109375 71.78125 
L 65.921875 71.78125 
L 60.890625 51.515625 
L 76.125 51.515625 
L 76.125 44 
L 58.984375 44 
L 54.984375 27.6875 
L 70.515625 27.6875 
L 70.515625 20.21875 
L 53.078125 20.21875 
L 48 0 
L 40.1875 0 
L 45.21875 20.21875 
L 30.90625 20.21875 
L 25.875 0 
L 18.015625 0 
L 23.09375 20.21875 
L 7.71875 20.21875 
L 7.71875 27.6875 
L 24.90625 27.6875 
L 29 44 
L 13.28125 44 
L 13.28125 51.515625 
L 30.90625 51.515625 
L 35.890625 71.78125 
z
" id="DejaVuSans-35"/>
      <path id="DejaVuSans-32"/>
      <path d="M 9.8125 72.90625 
L 55.90625 72.90625 
L 55.90625 64.59375 
L 19.671875 64.59375 
L 19.671875 43.015625 
L 54.390625 43.015625 
L 54.390625 34.71875 
L 19.671875 34.71875 
L 19.671875 8.296875 
L 56.78125 8.296875 
L 56.78125 0 
L 9.8125 0 
z
" id="DejaVuSans-69"/>
      <path d="M 18.109375 8.203125 
L 18.109375 -20.796875 
L 9.078125 -20.796875 
L 9.078125 54.6875 
L 18.109375 54.6875 
L 18.109375 46.390625 
Q 20.953125 51.265625 25.265625 53.625 
Q 29.59375 56 35.59375 56 
Q 45.5625 56 51.78125 48.09375 
Q 58.015625 40.1875 58.015625 27.296875 
Q 58.015625 14.40625 51.78125 6.484375 
Q 45.5625 -1.421875 35.59375 -1.421875 
Q 29.59375 -1.421875 25.265625 0.953125 
Q 20.953125 3.328125 18.109375 8.203125 
z
M 48.6875 27.296875 
Q 48.6875 37.203125 44.609375 42.84375 
Q 40.53125 48.484375 33.40625 48.484375 
Q 26.265625 48.484375 22.1875 42.84375 
Q 18.109375 37.203125 18.109375 27.296875 
Q 18.109375 17.390625 22.1875 11.75 
Q 26.265625 6.109375 33.40625 6.109375 
Q 40.53125 6.109375 44.609375 11.75 
Q 48.6875 17.390625 48.6875 27.296875 
z
" id="DejaVuSans-112"/>
      <path d="M 30.609375 48.390625 
Q 23.390625 48.390625 19.1875 42.75 
Q 14.984375 37.109375 14.984375 27.296875 
Q 14.984375 17.484375 19.15625 11.84375 
Q 23.34375 6.203125 30.609375 6.203125 
Q 37.796875 6.203125 41.984375 11.859375 
Q 46.1875 17.53125 46.1875 27.296875 
Q 46.1875 37.015625 41.984375 42.703125 
Q 37.796875 48.390625 30.609375 48.390625 
z
M 30.609375 56 
Q 42.328125 56 49.015625 48.375 
Q 55.71875 40.765625 55.71875 27.296875 
Q 55.71875 13.875 49.015625 6.21875 
Q 42.328125 -1.421875 30.609375 -1.421875 
Q 18.84375 -1.421875 12.171875 6.21875 
Q 5.515625 13.875 5.515625 27.296875 
Q 5.515625 40.765625 12.171875 48.375 
Q 18.84375 56 30.609375 56 
z
" id="DejaVuSans-111"/>
      <path d="M 48.78125 52.59375 
L 48.78125 44.1875 
Q 44.96875 46.296875 41.140625 47.34375 
Q 37.3125 48.390625 33.40625 48.390625 
Q 24.65625 48.390625 19.8125 42.84375 
Q 14.984375 37.3125 14.984375 27.296875 
Q 14.984375 17.28125 19.8125 11.734375 
Q 24.65625 6.203125 33.40625 6.203125 
Q 37.3125 6.203125 41.140625 7.25 
Q 44.96875 8.296875 48.78125 10.40625 
L 48.78125 2.09375 
Q 45.015625 0.34375 40.984375 -0.53125 
Q 36.96875 -1.421875 32.421875 -1.421875 
Q 20.0625 -1.421875 12.78125 6.34375 
Q 5.515625 14.109375 5.515625 27.296875 
Q 5.515625 40.671875 12.859375 48.328125 
Q 20.21875 56 33.015625 56 
Q 37.15625 56 41.109375 55.140625 
Q 45.0625 54.296875 48.78125 52.59375 
z
" id="DejaVuSans-99"/>
      <path d="M 54.890625 33.015625 
L 54.890625 0 
L 45.90625 0 
L 45.90625 32.71875 
Q 45.90625 40.484375 42.875 44.328125 
Q 39.84375 48.1875 33.796875 48.1875 
Q 26.515625 48.1875 22.3125 43.546875 
Q 18.109375 38.921875 18.109375 30.90625 
L 18.109375 0 
L 9.078125 0 
L 9.078125 75.984375 
L 18.109375 75.984375 
L 18.109375 46.1875 
Q 21.34375 51.125 25.703125 53.5625 
Q 30.078125 56 35.796875 56 
Q 45.21875 56 50.046875 50.171875 
Q 54.890625 44.34375 54.890625 33.015625 
z
" id="DejaVuSans-104"/>
      <path d="M 44.28125 53.078125 
L 44.28125 44.578125 
Q 40.484375 46.53125 36.375 47.5 
Q 32.28125 48.484375 27.875 48.484375 
Q 21.1875 48.484375 17.84375 46.4375 
Q 14.5 44.390625 14.5 40.28125 
Q 14.5 37.15625 16.890625 35.375 
Q 19.28125 33.59375 26.515625 31.984375 
L 29.59375 31.296875 
Q 39.15625 29.25 43.1875 25.515625 
Q 47.21875 21.78125 47.21875 15.09375 
Q 47.21875 7.46875 41.1875 3.015625 
Q 35.15625 -1.421875 24.609375 -1.421875 
Q 20.21875 -1.421875 15.453125 -0.5625 
Q 10.6875 0.296875 5.421875 2 
L 5.421875 11.28125 
Q 10.40625 8.6875 15.234375 7.390625 
Q 20.0625 6.109375 24.8125 6.109375 
Q 31.15625 6.109375 34.5625 8.28125 
Q 37.984375 10.453125 37.984375 14.40625 
Q 37.984375 18.0625 35.515625 20.015625 
Q 33.0625 21.96875 24.703125 23.78125 
L 21.578125 24.515625 
Q 13.234375 26.265625 9.515625 29.90625 
Q 5.8125 33.546875 5.8125 39.890625 
Q 5.8125 47.609375 11.28125 51.796875 
Q 16.75 56 26.8125 56 
Q 31.78125 56 36.171875 55.265625 
Q 40.578125 54.546875 44.28125 53.078125 
z
" id="DejaVuSans-115"/>
     </defs>
     <g transform="translate(456.604406 698.790625)scale(0.3 -0.3)">
      <use xlink:href="#DejaVuSans-35"/>
      <use x="83.789062" xlink:href="#DejaVuSans-32"/>
      <use x="115.576172" xlink:href="#DejaVuSans-69"/>
      <use x="178.759766" xlink:href="#DejaVuSans-112"/>
      <use x="242.236328" xlink:href="#DejaVuSans-111"/>
      <use x="303.417969" xlink:href="#DejaVuSans-99"/>
      <use x="358.398438" xlink:href="#DejaVuSans-104"/>
      <use x="421.777344" xlink:href="#DejaVuSans-115"/>
     </g>
    </g>
   </g>
   <g id="matplotlib.axis_2">
    <g id="ytick_1">
     <g id="line2d_39">
      <defs>
       <path d="M 0 0 
L -3.5 0 
" id="m69cfc683d8" style="stroke:#000000;stroke-width:0.8;"/>
      </defs>
      <g>
       <use style="stroke:#000000;stroke-width:0.8;" x="97.776" xlink:href="#m69cfc683d8" y="640.8"/>
      </g>
     </g>
     <g id="text_7">
      <!-- $10^{-4}$ -->
      <defs>
       <path d="M 10.59375 35.5 
L 73.1875 35.5 
L 73.1875 27.203125 
L 10.59375 27.203125 
z
" id="DejaVuSans-8722"/>
       <path d="M 37.796875 64.3125 
L 12.890625 25.390625 
L 37.796875 25.390625 
z
M 35.203125 72.90625 
L 47.609375 72.90625 
L 47.609375 25.390625 
L 58.015625 25.390625 
L 58.015625 17.1875 
L 47.609375 17.1875 
L 47.609375 0 
L 37.796875 0 
L 37.796875 17.1875 
L 4.890625 17.1875 
L 4.890625 26.703125 
z
" id="DejaVuSans-52"/>
      </defs>
      <g transform="translate(20.276 652.197656)scale(0.3 -0.3)">
       <use transform="translate(0 0.684375)" xlink:href="#DejaVuSans-49"/>
       <use transform="translate(63.623047 0.684375)" xlink:href="#DejaVuSans-48"/>
       <use transform="translate(128.203125 38.965625)scale(0.7)" xlink:href="#DejaVuSans-8722"/>
       <use transform="translate(186.855469 38.965625)scale(0.7)" xlink:href="#DejaVuSans-52"/>
      </g>
     </g>
    </g>
    <g id="ytick_2">
     <g id="line2d_40">
      <g>
       <use style="stroke:#000000;stroke-width:0.8;" x="97.776" xlink:href="#m69cfc683d8" y="489.6"/>
      </g>
     </g>
     <g id="text_8">
      <!-- $10^{-3}$ -->
      <defs>
       <path d="M 40.578125 39.3125 
Q 47.65625 37.796875 51.625 33 
Q 55.609375 28.21875 55.609375 21.1875 
Q 55.609375 10.40625 48.1875 4.484375 
Q 40.765625 -1.421875 27.09375 -1.421875 
Q 22.515625 -1.421875 17.65625 -0.515625 
Q 12.796875 0.390625 7.625 2.203125 
L 7.625 11.71875 
Q 11.71875 9.328125 16.59375 8.109375 
Q 21.484375 6.890625 26.8125 6.890625 
Q 36.078125 6.890625 40.9375 10.546875 
Q 45.796875 14.203125 45.796875 21.1875 
Q 45.796875 27.640625 41.28125 31.265625 
Q 36.765625 34.90625 28.71875 34.90625 
L 20.21875 34.90625 
L 20.21875 43.015625 
L 29.109375 43.015625 
Q 36.375 43.015625 40.234375 45.921875 
Q 44.09375 48.828125 44.09375 54.296875 
Q 44.09375 59.90625 40.109375 62.90625 
Q 36.140625 65.921875 28.71875 65.921875 
Q 24.65625 65.921875 20.015625 65.03125 
Q 15.375 64.15625 9.8125 62.3125 
L 9.8125 71.09375 
Q 15.4375 72.65625 20.34375 73.4375 
Q 25.25 74.21875 29.59375 74.21875 
Q 40.828125 74.21875 47.359375 69.109375 
Q 53.90625 64.015625 53.90625 55.328125 
Q 53.90625 49.265625 50.4375 45.09375 
Q 46.96875 40.921875 40.578125 39.3125 
z
" id="DejaVuSans-51"/>
      </defs>
      <g transform="translate(20.276 500.997656)scale(0.3 -0.3)">
       <use transform="translate(0 0.765625)" xlink:href="#DejaVuSans-49"/>
       <use transform="translate(63.623047 0.765625)" xlink:href="#DejaVuSans-48"/>
       <use transform="translate(128.203125 39.046875)scale(0.7)" xlink:href="#DejaVuSans-8722"/>
       <use transform="translate(186.855469 39.046875)scale(0.7)" xlink:href="#DejaVuSans-51"/>
      </g>
     </g>
    </g>
    <g id="ytick_3">
     <g id="line2d_41">
      <g>
       <use style="stroke:#000000;stroke-width:0.8;" x="97.776" xlink:href="#m69cfc683d8" y="338.4"/>
      </g>
     </g>
     <g id="text_9">
      <!-- $10^{-2}$ -->
      <defs>
       <path d="M 19.1875 8.296875 
L 53.609375 8.296875 
L 53.609375 0 
L 7.328125 0 
L 7.328125 8.296875 
Q 12.9375 14.109375 22.625 23.890625 
Q 32.328125 33.6875 34.8125 36.53125 
Q 39.546875 41.84375 41.421875 45.53125 
Q 43.3125 49.21875 43.3125 52.78125 
Q 43.3125 58.59375 39.234375 62.25 
Q 35.15625 65.921875 28.609375 65.921875 
Q 23.96875 65.921875 18.8125 64.3125 
Q 13.671875 62.703125 7.8125 59.421875 
L 7.8125 69.390625 
Q 13.765625 71.78125 18.9375 73 
Q 24.125 74.21875 28.421875 74.21875 
Q 39.75 74.21875 46.484375 68.546875 
Q 53.21875 62.890625 53.21875 53.421875 
Q 53.21875 48.921875 51.53125 44.890625 
Q 49.859375 40.875 45.40625 35.40625 
Q 44.1875 33.984375 37.640625 27.21875 
Q 31.109375 20.453125 19.1875 8.296875 
z
" id="DejaVuSans-50"/>
      </defs>
      <g transform="translate(20.276 349.797656)scale(0.3 -0.3)">
       <use transform="translate(0 0.765625)" xlink:href="#DejaVuSans-49"/>
       <use transform="translate(63.623047 0.765625)" xlink:href="#DejaVuSans-48"/>
       <use transform="translate(128.203125 39.046875)scale(0.7)" xlink:href="#DejaVuSans-8722"/>
       <use transform="translate(186.855469 39.046875)scale(0.7)" xlink:href="#DejaVuSans-50"/>
      </g>
     </g>
    </g>
    <g id="ytick_4">
     <g id="line2d_42">
      <g>
       <use style="stroke:#000000;stroke-width:0.8;" x="97.776" xlink:href="#m69cfc683d8" y="187.2"/>
      </g>
     </g>
     <g id="text_10">
      <!-- $10^{-1}$ -->
      <g transform="translate(20.276 198.597656)scale(0.3 -0.3)">
       <use transform="translate(0 0.684375)" xlink:href="#DejaVuSans-49"/>
       <use transform="translate(63.623047 0.684375)" xlink:href="#DejaVuSans-48"/>
       <use transform="translate(128.203125 38.965625)scale(0.7)" xlink:href="#DejaVuSans-8722"/>
       <use transform="translate(186.855469 38.965625)scale(0.7)" xlink:href="#DejaVuSans-49"/>
      </g>
     </g>
    </g>
    <g id="ytick_5">
     <g id="line2d_43">
      <g>
       <use style="stroke:#000000;stroke-width:0.8;" x="97.776" xlink:href="#m69cfc683d8" y="36"/>
      </g>
     </g>
     <g id="text_11">
      <!-- $10^0$ -->
      <g transform="translate(37.976 47.397656)scale(0.3 -0.3)">
       <use transform="translate(0 0.765625)" xlink:href="#DejaVuSans-49"/>
       <use transform="translate(63.623047 0.765625)" xlink:href="#DejaVuSans-48"/>
       <use transform="translate(128.203125 39.046875)scale(0.7)" xlink:href="#DejaVuSans-48"/>
      </g>
     </g>
    </g>
    <g id="ytick_6">
     <g id="line2d_44">
      <defs>
       <path d="M 0 0 
L -2 0 
" id="md810cde66b" style="stroke:#000000;stroke-width:0.6;"/>
      </defs>
      <g>
       <use style="stroke:#000000;stroke-width:0.6;" x="97.776" xlink:href="#md810cde66b" y="595.284265"/>
      </g>
     </g>
    </g>
    <g id="ytick_7">
     <g id="line2d_45">
      <g>
       <use style="stroke:#000000;stroke-width:0.6;" x="97.776" xlink:href="#md810cde66b" y="568.659266"/>
      </g>
     </g>
    </g>
    <g id="ytick_8">
     <g id="line2d_46">
      <g>
       <use style="stroke:#000000;stroke-width:0.6;" x="97.776" xlink:href="#md810cde66b" y="549.768529"/>
      </g>
     </g>
    </g>
    <g id="ytick_9">
     <g id="line2d_47">
      <g>
       <use style="stroke:#000000;stroke-width:0.6;" x="97.776" xlink:href="#md810cde66b" y="535.115735"/>
      </g>
     </g>
    </g>
    <g id="ytick_10">
     <g id="line2d_48">
      <g>
       <use style="stroke:#000000;stroke-width:0.6;" x="97.776" xlink:href="#md810cde66b" y="523.143531"/>
      </g>
     </g>
    </g>
    <g id="ytick_11">
     <g id="line2d_49">
      <g>
       <use style="stroke:#000000;stroke-width:0.6;" x="97.776" xlink:href="#md810cde66b" y="513.021176"/>
      </g>
     </g>
    </g>
    <g id="ytick_12">
     <g id="line2d_50">
      <g>
       <use style="stroke:#000000;stroke-width:0.6;" x="97.776" xlink:href="#md810cde66b" y="504.252794"/>
      </g>
     </g>
    </g>
    <g id="ytick_13">
     <g id="line2d_51">
      <g>
       <use style="stroke:#000000;stroke-width:0.6;" x="97.776" xlink:href="#md810cde66b" y="496.518533"/>
      </g>
     </g>
    </g>
    <g id="ytick_14">
     <g id="line2d_52">
      <g>
       <use style="stroke:#000000;stroke-width:0.6;" x="97.776" xlink:href="#md810cde66b" y="444.084265"/>
      </g>
     </g>
    </g>
    <g id="ytick_15">
     <g id="line2d_53">
      <g>
       <use style="stroke:#000000;stroke-width:0.6;" x="97.776" xlink:href="#md810cde66b" y="417.459266"/>
      </g>
     </g>
    </g>
    <g id="ytick_16">
     <g id="line2d_54">
      <g>
       <use style="stroke:#000000;stroke-width:0.6;" x="97.776" xlink:href="#md810cde66b" y="398.568529"/>
      </g>
     </g>
    </g>
    <g id="ytick_17">
     <g id="line2d_55">
      <g>
       <use style="stroke:#000000;stroke-width:0.6;" x="97.776" xlink:href="#md810cde66b" y="383.915735"/>
      </g>
     </g>
    </g>
    <g id="ytick_18">
     <g id="line2d_56">
      <g>
       <use style="stroke:#000000;stroke-width:0.6;" x="97.776" xlink:href="#md810cde66b" y="371.943531"/>
      </g>
     </g>
    </g>
    <g id="ytick_19">
     <g id="line2d_57">
      <g>
       <use style="stroke:#000000;stroke-width:0.6;" x="97.776" xlink:href="#md810cde66b" y="361.821176"/>
      </g>
     </g>
    </g>
    <g id="ytick_20">
     <g id="line2d_58">
      <g>
       <use style="stroke:#000000;stroke-width:0.6;" x="97.776" xlink:href="#md810cde66b" y="353.052794"/>
      </g>
     </g>
    </g>
    <g id="ytick_21">
     <g id="line2d_59">
      <g>
       <use style="stroke:#000000;stroke-width:0.6;" x="97.776" xlink:href="#md810cde66b" y="345.318533"/>
      </g>
     </g>
    </g>
    <g id="ytick_22">
     <g id="line2d_60">
      <g>
       <use style="stroke:#000000;stroke-width:0.6;" x="97.776" xlink:href="#md810cde66b" y="292.884265"/>
      </g>
     </g>
    </g>
    <g id="ytick_23">
     <g id="line2d_61">
      <g>
       <use style="stroke:#000000;stroke-width:0.6;" x="97.776" xlink:href="#md810cde66b" y="266.259266"/>
      </g>
     </g>
    </g>
    <g id="ytick_24">
     <g id="line2d_62">
      <g>
       <use style="stroke:#000000;stroke-width:0.6;" x="97.776" xlink:href="#md810cde66b" y="247.368529"/>
      </g>
     </g>
    </g>
    <g id="ytick_25">
     <g id="line2d_63">
      <g>
       <use style="stroke:#000000;stroke-width:0.6;" x="97.776" xlink:href="#md810cde66b" y="232.715735"/>
      </g>
     </g>
    </g>
    <g id="ytick_26">
     <g id="line2d_64">
      <g>
       <use style="stroke:#000000;stroke-width:0.6;" x="97.776" xlink:href="#md810cde66b" y="220.743531"/>
      </g>
     </g>
    </g>
    <g id="ytick_27">
     <g id="line2d_65">
      <g>
       <use style="stroke:#000000;stroke-width:0.6;" x="97.776" xlink:href="#md810cde66b" y="210.621176"/>
      </g>
     </g>
    </g>
    <g id="ytick_28">
     <g id="line2d_66">
      <g>
       <use style="stroke:#000000;stroke-width:0.6;" x="97.776" xlink:href="#md810cde66b" y="201.852794"/>
      </g>
     </g>
    </g>
    <g id="ytick_29">
     <g id="line2d_67">
      <g>
       <use style="stroke:#000000;stroke-width:0.6;" x="97.776" xlink:href="#md810cde66b" y="194.118533"/>
      </g>
     </g>
    </g>
    <g id="ytick_30">
     <g id="line2d_68">
      <g>
       <use style="stroke:#000000;stroke-width:0.6;" x="97.776" xlink:href="#md810cde66b" y="141.684265"/>
      </g>
     </g>
    </g>
    <g id="ytick_31">
     <g id="line2d_69">
      <g>
       <use style="stroke:#000000;stroke-width:0.6;" x="97.776" xlink:href="#md810cde66b" y="115.059266"/>
      </g>
     </g>
    </g>
    <g id="ytick_32">
     <g id="line2d_70">
      <g>
       <use style="stroke:#000000;stroke-width:0.6;" x="97.776" xlink:href="#md810cde66b" y="96.168529"/>
      </g>
     </g>
    </g>
    <g id="ytick_33">
     <g id="line2d_71">
      <g>
       <use style="stroke:#000000;stroke-width:0.6;" x="97.776" xlink:href="#md810cde66b" y="81.515735"/>
      </g>
     </g>
    </g>
    <g id="ytick_34">
     <g id="line2d_72">
      <g>
       <use style="stroke:#000000;stroke-width:0.6;" x="97.776" xlink:href="#md810cde66b" y="69.543531"/>
      </g>
     </g>
    </g>
    <g id="ytick_35">
     <g id="line2d_73">
      <g>
       <use style="stroke:#000000;stroke-width:0.6;" x="97.776" xlink:href="#md810cde66b" y="59.421176"/>
      </g>
     </g>
    </g>
    <g id="ytick_36">
     <g id="line2d_74">
      <g>
       <use style="stroke:#000000;stroke-width:0.6;" x="97.776" xlink:href="#md810cde66b" y="50.652794"/>
      </g>
     </g>
    </g>
    <g id="ytick_37">
     <g id="line2d_75">
      <g>
       <use style="stroke:#000000;stroke-width:0.6;" x="97.776" xlink:href="#md810cde66b" y="42.918533"/>
      </g>
     </g>
    </g>
    <g id="text_12">
     <!-- Mean and STD -->
     <defs>
      <path d="M 9.8125 72.90625 
L 24.515625 72.90625 
L 43.109375 23.296875 
L 61.8125 72.90625 
L 76.515625 72.90625 
L 76.515625 0 
L 66.890625 0 
L 66.890625 64.015625 
L 48.09375 14.015625 
L 38.1875 14.015625 
L 19.390625 64.015625 
L 19.390625 0 
L 9.8125 0 
z
" id="DejaVuSans-77"/>
      <path d="M 56.203125 29.59375 
L 56.203125 25.203125 
L 14.890625 25.203125 
Q 15.484375 15.921875 20.484375 11.0625 
Q 25.484375 6.203125 34.421875 6.203125 
Q 39.59375 6.203125 44.453125 7.46875 
Q 49.3125 8.734375 54.109375 11.28125 
L 54.109375 2.78125 
Q 49.265625 0.734375 44.1875 -0.34375 
Q 39.109375 -1.421875 33.890625 -1.421875 
Q 20.796875 -1.421875 13.15625 6.1875 
Q 5.515625 13.8125 5.515625 26.8125 
Q 5.515625 40.234375 12.765625 48.109375 
Q 20.015625 56 32.328125 56 
Q 43.359375 56 49.78125 48.890625 
Q 56.203125 41.796875 56.203125 29.59375 
z
M 47.21875 32.234375 
Q 47.125 39.59375 43.09375 43.984375 
Q 39.0625 48.390625 32.421875 48.390625 
Q 24.90625 48.390625 20.390625 44.140625 
Q 15.875 39.890625 15.1875 32.171875 
z
" id="DejaVuSans-101"/>
      <path d="M 34.28125 27.484375 
Q 23.390625 27.484375 19.1875 25 
Q 14.984375 22.515625 14.984375 16.5 
Q 14.984375 11.71875 18.140625 8.90625 
Q 21.296875 6.109375 26.703125 6.109375 
Q 34.1875 6.109375 38.703125 11.40625 
Q 43.21875 16.703125 43.21875 25.484375 
L 43.21875 27.484375 
z
M 52.203125 31.203125 
L 52.203125 0 
L 43.21875 0 
L 43.21875 8.296875 
Q 40.140625 3.328125 35.546875 0.953125 
Q 30.953125 -1.421875 24.3125 -1.421875 
Q 15.921875 -1.421875 10.953125 3.296875 
Q 6 8.015625 6 15.921875 
Q 6 25.140625 12.171875 29.828125 
Q 18.359375 34.515625 30.609375 34.515625 
L 43.21875 34.515625 
L 43.21875 35.40625 
Q 43.21875 41.609375 39.140625 45 
Q 35.0625 48.390625 27.6875 48.390625 
Q 23 48.390625 18.546875 47.265625 
Q 14.109375 46.140625 10.015625 43.890625 
L 10.015625 52.203125 
Q 14.9375 54.109375 19.578125 55.046875 
Q 24.21875 56 28.609375 56 
Q 40.484375 56 46.34375 49.84375 
Q 52.203125 43.703125 52.203125 31.203125 
z
" id="DejaVuSans-97"/>
      <path d="M 54.890625 33.015625 
L 54.890625 0 
L 45.90625 0 
L 45.90625 32.71875 
Q 45.90625 40.484375 42.875 44.328125 
Q 39.84375 48.1875 33.796875 48.1875 
Q 26.515625 48.1875 22.3125 43.546875 
Q 18.109375 38.921875 18.109375 30.90625 
L 18.109375 0 
L 9.078125 0 
L 9.078125 54.6875 
L 18.109375 54.6875 
L 18.109375 46.1875 
Q 21.34375 51.125 25.703125 53.5625 
Q 30.078125 56 35.796875 56 
Q 45.21875 56 50.046875 50.171875 
Q 54.890625 44.34375 54.890625 33.015625 
z
" id="DejaVuSans-110"/>
      <path d="M 45.40625 46.390625 
L 45.40625 75.984375 
L 54.390625 75.984375 
L 54.390625 0 
L 45.40625 0 
L 45.40625 8.203125 
Q 42.578125 3.328125 38.25 0.953125 
Q 33.9375 -1.421875 27.875 -1.421875 
Q 17.96875 -1.421875 11.734375 6.484375 
Q 5.515625 14.40625 5.515625 27.296875 
Q 5.515625 40.1875 11.734375 48.09375 
Q 17.96875 56 27.875 56 
Q 33.9375 56 38.25 53.625 
Q 42.578125 51.265625 45.40625 46.390625 
z
M 14.796875 27.296875 
Q 14.796875 17.390625 18.875 11.75 
Q 22.953125 6.109375 30.078125 6.109375 
Q 37.203125 6.109375 41.296875 11.75 
Q 45.40625 17.390625 45.40625 27.296875 
Q 45.40625 37.203125 41.296875 42.84375 
Q 37.203125 48.484375 30.078125 48.484375 
Q 22.953125 48.484375 18.875 42.84375 
Q 14.796875 37.203125 14.796875 27.296875 
z
" id="DejaVuSans-100"/>
      <path d="M 53.515625 70.515625 
L 53.515625 60.890625 
Q 47.90625 63.578125 42.921875 64.890625 
Q 37.9375 66.21875 33.296875 66.21875 
Q 25.25 66.21875 20.875 63.09375 
Q 16.5 59.96875 16.5 54.203125 
Q 16.5 49.359375 19.40625 46.890625 
Q 22.3125 44.4375 30.421875 42.921875 
L 36.375 41.703125 
Q 47.40625 39.59375 52.65625 34.296875 
Q 57.90625 29 57.90625 20.125 
Q 57.90625 9.515625 50.796875 4.046875 
Q 43.703125 -1.421875 29.984375 -1.421875 
Q 24.8125 -1.421875 18.96875 -0.25 
Q 13.140625 0.921875 6.890625 3.21875 
L 6.890625 13.375 
Q 12.890625 10.015625 18.65625 8.296875 
Q 24.421875 6.59375 29.984375 6.59375 
Q 38.421875 6.59375 43.015625 9.90625 
Q 47.609375 13.234375 47.609375 19.390625 
Q 47.609375 24.75 44.3125 27.78125 
Q 41.015625 30.8125 33.5 32.328125 
L 27.484375 33.5 
Q 16.453125 35.6875 11.515625 40.375 
Q 6.59375 45.0625 6.59375 53.421875 
Q 6.59375 63.09375 13.40625 68.65625 
Q 20.21875 74.21875 32.171875 74.21875 
Q 37.3125 74.21875 42.625 73.28125 
Q 47.953125 72.359375 53.515625 70.515625 
z
" id="DejaVuSans-83"/>
      <path d="M -0.296875 72.90625 
L 61.375 72.90625 
L 61.375 64.59375 
L 35.5 64.59375 
L 35.5 0 
L 25.59375 0 
L 25.59375 64.59375 
L -0.296875 64.59375 
z
" id="DejaVuSans-84"/>
      <path d="M 19.671875 64.796875 
L 19.671875 8.109375 
L 31.59375 8.109375 
Q 46.6875 8.109375 53.6875 14.9375 
Q 60.6875 21.78125 60.6875 36.53125 
Q 60.6875 51.171875 53.6875 57.984375 
Q 46.6875 64.796875 31.59375 64.796875 
z
M 9.8125 72.90625 
L 30.078125 72.90625 
Q 51.265625 72.90625 61.171875 64.09375 
Q 71.09375 55.28125 71.09375 36.53125 
Q 71.09375 17.671875 61.125 8.828125 
Q 51.171875 0 30.078125 0 
L 9.8125 0 
z
" id="DejaVuSans-68"/>
     </defs>
     <g transform="translate(10.036937 447.260156)rotate(-90)scale(0.3 -0.3)">
      <use xlink:href="#DejaVuSans-77"/>
      <use x="86.279297" xlink:href="#DejaVuSans-101"/>
      <use x="147.802734" xlink:href="#DejaVuSans-97"/>
      <use x="209.082031" xlink:href="#DejaVuSans-110"/>
      <use x="272.460938" xlink:href="#DejaVuSans-32"/>
      <use x="304.248047" xlink:href="#DejaVuSans-97"/>
      <use x="365.527344" xlink:href="#DejaVuSans-110"/>
      <use x="428.90625" xlink:href="#DejaVuSans-100"/>
      <use x="492.382812" xlink:href="#DejaVuSans-32"/>
      <use x="524.169922" xlink:href="#DejaVuSans-83"/>
      <use x="587.646484" xlink:href="#DejaVuSans-84"/>
      <use x="648.730469" xlink:href="#DejaVuSans-68"/>
     </g>
    </g>
   </g>
   <g id="line2d_76">
    <path clip-path="url(#pef3ea8697b)" d="M -1 259.437024 
L 139.307142 259.437615 
L 203.370709 260.243934 
L 240.845493 260.993039 
L 288.058138 262.325487 
L 342.383844 264.308018 
L 368.972627 265.202901 
L 383.219879 265.525033 
L 395.561409 265.631219 
L 406.447411 265.523653 
L 416.185271 265.20439 
L 424.994238 264.676039 
L 433.036194 263.942486 
L 440.434076 263.009433 
L 447.283445 261.884841 
L 453.660056 260.579138 
L 459.624976 259.105278 
L 465.228158 257.478575 
L 470.510978 255.716411 
L 475.508097 253.837785 
L 480.248838 251.862757 
L 486.933017 248.764365 
L 495.153916 244.484777 
L 502.702942 240.169299 
L 511.347012 234.904274 
L 543.149822 215.11109 
L 552.065084 209.967988 
L 558.22898 206.644101 
L 562.1211 204.688636 
L 566.766509 202.559355 
L 571.189563 200.816258 
L 575.410579 199.506282 
L 577.046448 199.114313 
L 579.447212 198.676194 
L 583.314897 198.360717 
L 585.560129 198.423664 
L 587.75211 198.671247 
L 589.893307 199.092449 
L 591.986019 199.668561 
L 596.034441 201.167405 
L 602.411052 203.875451 
L 604.843408 204.700287 
L 606.626566 205.143914 
L 608.951826 205.483073 
L 611.220018 205.55288 
L 612.885364 205.458152 
L 615.060151 205.185604 
L 619.261974 204.354669 
L 632.179358 201.45225 
L 638.227958 200.376594 
L 646.617767 199.178859 
L 659.102406 197.720862 
L 680.192217 195.243973 
L 703.124181 192.424126 
L 715.698551 190.795823 
L 751.162048 186.553744 
L 763.703614 184.649144 
L 794.986053 179.670657 
L 801.214257 179.059516 
L 807.452138 178.700456 
L 815.778503 178.509668 
L 824.146542 178.535045 
L 830.366368 178.812053 
L 834.558892 179.207576 
L 840.792098 180.075125 
L 847.068972 180.912743 
L 849.141157 181.102987 
L 851.209654 168.786877 
L 853.314515 181.632155 
L 855.372506 174.568943 
L 857.46373 179.669335 
L 859.546834 182.615023 
L 861.621326 182.810448 
L 863.723224 178.464935 
L 867.893444 168.67082 
L 869.961185 165.274975 
L 872.050337 170.721174 
L 874.125892 167.199905 
L 878.298028 161.672835 
L 880.39167 163.155217 
L 882.468705 159.167858 
L 884.558308 164.072162 
L 886.63017 160.563588 
L 888.712264 159.6367 
L 890.8029 173.578578 
L 892.873891 161.727624 
L 894.951518 158.22427 
L 897.034332 153.692799 
L 899.120973 150.503703 
L 901.21016 151.266565 
L 903.276934 152.914594 
L 905.368228 143.349263 
L 907.458686 176.124252 
L 909.547331 177.697011 
L 911.611535 108.907499 
L 913.694361 177.990679 
L 915.79357 176.798797 
L 917.866454 155.11324 
L 919.953411 100.401819 
L 922.033092 179.807275 
L 924.104954 179.412574 
L 926.187048 180.068693 
L 930.357541 182.233748 
L 932.443638 183.623683 
L 934.517591 185.191465 
L 936.612328 184.696565 
L 938.693045 188.724659 
L 940.775481 190.939454 
L 944.941042 195.811683 
L 947.022115 197.937307 
L 949.100795 200.47608 
L 951.190375 198.775366 
L 953.261435 205.945949 
L 955.354768 208.657681 
L 957.428195 204.960819 
L 959.507877 213.782883 
L 963.680379 219.546112 
L 965.758513 220.780038 
L 967.838235 224.422061 
L 969.929977 223.183377 
L 969.929977 223.183377 
" style="fill:none;stroke:#ff0000;stroke-dasharray:16,16;stroke-dashoffset:0;stroke-width:4;"/>
   </g>
   <g id="line2d_77">
    <path clip-path="url(#pef3ea8697b)" d="M -1 404.471536 
L 139.307142 404.471586 
L 203.370709 405.166172 
L 240.845493 405.933616 
L 288.058138 407.336611 
L 342.383844 409.109275 
L 360.930671 409.468928 
L 376.370509 409.519652 
L 389.596489 409.295267 
L 401.164591 408.825537 
L 411.44453 408.136065 
L 420.694663 407.249423 
L 429.102656 406.186627 
L 436.809134 404.967974 
L 443.922195 403.613311 
L 450.526732 402.141507 
L 456.690629 400.569202 
L 462.469022 398.910171 
L 467.907308 397.174332 
L 473.043306 395.367999 
L 477.90886 393.494128 
L 482.531033 391.553471 
L 486.933017 389.545352 
L 493.166223 386.405211 
L 499.005482 383.113953 
L 504.497643 379.683561 
L 511.347012 374.936285 
L 516.170238 371.290998 
L 522.233014 366.393314 
L 529.291725 360.341117 
L 539.571664 351.155798 
L 554.165724 338.094103 
L 560.195526 332.972707 
L 564.936267 329.279807 
L 568.56121 326.801721 
L 571.189563 325.277856 
L 572.901171 324.443321 
L 575.410579 323.494015 
L 577.046448 323.080579 
L 579.447212 322.818679 
L 581.78719 323.019453 
L 583.314897 323.426436 
L 585.560129 324.466893 
L 587.75211 326.041207 
L 589.893307 328.160997 
L 591.986019 330.824809 
L 594.032395 334.013634 
L 596.034441 337.684187 
L 598.638112 343.191285 
L 606.626566 361.738441 
L 608.951826 365.926614 
L 611.220018 368.838851 
L 612.885364 370.204159 
L 615.060151 371.110103 
L 617.184938 371.242514 
L 619.261974 370.877805 
L 621.293357 370.225631 
L 625.707021 368.342434 
L 633.948296 364.621261 
L 638.227958 362.916766 
L 642.318192 361.523204 
L 646.617767 360.345593 
L 650.726185 359.500519 
L 655.009153 358.875557 
L 659.102406 358.46148 
L 665.545724 358.04142 
L 669.802854 357.906493 
L 673.872501 357.953729 
L 678.042721 358.301908 
L 680.192217 358.651864 
L 682.292858 359.138073 
L 684.346813 359.776492 
L 686.356114 360.580031 
L 688.565562 361.691654 
L 690.723423 363.020921 
L 692.600121 364.37258 
L 694.893643 366.249348 
L 698.883796 369.947396 
L 705.173582 376.008416 
L 709.33486 379.558797 
L 711.442031 381.133551 
L 713.687263 382.643615 
L 717.84389 385.027638 
L 721.990718 386.968085 
L 726.121172 388.57125 
L 730.22959 389.914713 
L 734.458886 391.086051 
L 738.644303 392.061185 
L 742.783391 392.859037 
L 747.003202 393.509086 
L 751.162048 393.999035 
L 757.472911 394.463241 
L 763.703614 394.596584 
L 767.807354 394.496898 
L 772.032046 394.229283 
L 776.16611 393.800518 
L 780.393003 393.195214 
L 786.64378 392.026888 
L 803.270576 388.515651 
L 807.452138 387.903625 
L 811.645025 387.484184 
L 815.778503 387.25254 
L 822.052975 387.198602 
L 828.303597 387.241135 
L 830.366368 387.155161 
L 832.486401 386.944815 
L 834.558892 386.579458 
L 836.634817 386.018689 
L 838.712938 385.222194 
L 840.792098 384.144988 
L 842.87121 382.78019 
L 844.949261 381.118152 
L 847.068972 379.134479 
L 849.141157 376.898381 
L 851.209654 238.167033 
L 853.314515 379.926819 
L 855.372506 242.830441 
L 857.46373 292.753433 
L 859.546834 329.860904 
L 861.621326 313.180125 
L 863.723224 297.569149 
L 865.814032 285.483332 
L 867.893444 255.340706 
L 869.961185 236.115733 
L 872.050337 236.25248 
L 874.125892 247.725781 
L 876.219577 238.375609 
L 878.298028 238.362325 
L 880.39167 222.776994 
L 882.468705 234.455826 
L 884.558308 218.844466 
L 886.63017 233.954386 
L 888.712264 208.692847 
L 892.873891 198.078281 
L 894.951518 200.171852 
L 897.034332 197.587761 
L 899.120973 205.207087 
L 901.21016 212.098129 
L 903.276934 171.117512 
L 905.368228 161.138355 
L 907.458686 390.477749 
L 909.547331 316.503239 
L 911.611535 118.420395 
L 913.694361 392.199207 
L 915.79357 385.11939 
L 917.866454 228.092591 
L 919.953411 99.9285 
L 922.033092 386.591921 
L 924.104954 391.413041 
L 926.187048 390.913701 
L 928.277685 392.835019 
L 930.357541 391.65763 
L 932.443638 389.943307 
L 934.517591 403.027903 
L 936.612328 347.215687 
L 938.693045 394.380434 
L 940.775481 390.250055 
L 942.8585 416.151066 
L 944.941042 426.000777 
L 947.022115 433.027443 
L 949.100795 444.442568 
L 951.190375 326.348225 
L 953.261435 446.667571 
L 955.354768 467.132651 
L 957.428195 294.055578 
L 959.507877 473.194038 
L 961.592385 474.760174 
L 963.680379 482.146078 
L 965.758513 485.740088 
L 967.838235 494.219543 
L 969.929977 458.949509 
L 969.929977 458.949509 
" style="fill:none;stroke:#ff0000;stroke-linecap:square;stroke-width:2;"/>
   </g>
   <g id="line2d_78">
    <path clip-path="url(#pef3ea8697b)" d="M -1 244.017271 
L 139.307142 244.017686 
L 203.370709 244.500514 
L 267.434276 245.291502 
L 352.121705 246.550493 
L 376.370509 246.593178 
L 389.596489 246.421195 
L 401.164591 246.097901 
L 411.44453 245.630614 
L 420.694663 245.026167 
L 429.102656 244.291086 
L 436.809134 243.431811 
L 443.922195 242.454984 
L 450.526732 241.367804 
L 456.690629 240.178219 
L 462.469022 238.895129 
L 467.907308 237.528301 
L 475.508097 235.344334 
L 482.531033 233.033712 
L 486.933017 231.442152 
L 495.153916 228.18719 
L 502.702942 224.906358 
L 511.347012 220.877846 
L 523.688543 214.818435 
L 543.149822 204.966926 
L 556.219679 198.380122 
L 562.1211 195.621817 
L 566.766509 193.694004 
L 571.189563 192.181375 
L 572.901171 191.708772 
L 577.046448 190.893965 
L 579.447212 190.672605 
L 581.78719 190.660979 
L 583.314897 190.771309 
L 585.560129 191.113113 
L 587.75211 191.661018 
L 589.893307 192.403246 
L 591.986019 193.32096 
L 594.032395 194.387499 
L 596.034441 195.568054 
L 604.843408 201.221646 
L 606.626566 202.170702 
L 608.951826 203.181532 
L 611.220018 203.896474 
L 612.885364 204.255248 
L 615.060151 204.536464 
L 617.184938 204.643562 
L 621.293357 204.534523 
L 629.919486 203.79391 
L 638.227958 203.125053 
L 646.617767 202.670938 
L 657.078438 202.331114 
L 669.802854 202.14492 
L 686.356114 202.20249 
L 694.893643 202.161654 
L 701.028305 201.889129 
L 707.376647 201.328594 
L 715.698551 200.300485 
L 723.996384 199.067929 
L 732.368427 197.632624 
L 740.737015 195.967265 
L 749.042991 194.074209 
L 759.521807 191.413693 
L 786.64378 184.238006 
L 792.891584 182.897619 
L 797.034108 182.17673 
L 801.214257 181.617681 
L 805.350728 181.243078 
L 809.572356 181.033562 
L 815.778503 180.980452 
L 822.052975 181.18426 
L 826.193734 181.502751 
L 830.366368 182.049296 
L 834.558892 182.903704 
L 838.712938 184.080477 
L 844.949261 186.2455 
L 849.141157 187.73799 
L 851.209654 169.093874 
L 853.314515 189.466618 
L 855.372506 179.316721 
L 857.46373 186.490676 
L 859.546834 193.067716 
L 861.621326 194.078239 
L 863.723224 186.04158 
L 865.814032 176.653425 
L 867.893444 169.064932 
L 869.961185 169.498076 
L 872.050337 177.117488 
L 874.125892 172.128975 
L 876.219577 163.631442 
L 878.298028 161.650848 
L 880.39167 167.740684 
L 882.468705 158.225963 
L 884.558308 163.335652 
L 886.63017 163.044761 
L 888.712264 163.549611 
L 890.8029 177.110502 
L 892.873891 164.360797 
L 894.951518 161.583563 
L 897.034332 153.836578 
L 899.120973 149.650906 
L 901.21016 152.337783 
L 903.276934 152.806845 
L 905.368228 142.581614 
L 907.458686 188.758343 
L 909.547331 192.331668 
L 911.611535 103.902584 
L 913.694361 191.508159 
L 915.79357 188.949508 
L 917.866454 157.95532 
L 919.953411 95.259915 
L 922.033092 193.145354 
L 924.104954 191.919801 
L 926.187048 192.500691 
L 928.277685 194.029746 
L 930.357541 194.975363 
L 932.443638 196.380469 
L 934.517591 198.436563 
L 936.612328 195.710427 
L 938.693045 201.38811 
L 940.775481 203.302548 
L 942.8585 206.635985 
L 944.941042 209.488114 
L 947.022115 211.379099 
L 949.100795 214.559518 
L 951.190375 205.649769 
L 953.261435 219.720717 
L 955.354768 223.152109 
L 957.428195 214.273578 
L 959.507877 227.939911 
L 961.592385 232.660585 
L 963.680379 233.522337 
L 965.758513 235.314204 
L 967.838235 238.120851 
L 969.929977 232.957438 
L 969.929977 232.957438 
" style="fill:none;stroke:#00bfbf;stroke-dasharray:16,16;stroke-dashoffset:0;stroke-width:4;"/>
   </g>
   <g id="line2d_79">
    <path clip-path="url(#pef3ea8697b)" d="M -1 402.187047 
L 139.307142 402.186874 
L 203.370709 402.754708 
L 240.845493 403.419759 
L 319.156312 405.158105 
L 342.383844 405.297098 
L 360.930671 405.01757 
L 376.370509 404.3916 
L 389.596489 403.481425 
L 401.164591 402.339535 
L 411.44453 401.011688 
L 420.694663 399.53961 
L 429.102656 397.963198 
L 436.809134 396.321585 
L 447.283445 393.820978 
L 462.469022 389.845257 
L 475.508097 386.467428 
L 484.75823 384.333205 
L 491.13484 383.063974 
L 499.005482 381.741005 
L 512.982881 379.561915 
L 517.723623 378.486492 
L 522.233014 377.039258 
L 523.688543 376.456624 
L 526.532589 375.132161 
L 530.641007 372.763046 
L 534.574545 370.009958 
L 539.571664 365.954766 
L 545.460547 360.684237 
L 554.165724 352.792745 
L 558.22898 349.391999 
L 562.1211 346.472641 
L 564.936267 344.638066 
L 566.766509 343.596811 
L 568.56121 342.707439 
L 571.189563 341.668888 
L 572.901171 341.178098 
L 575.410579 340.749194 
L 577.046448 340.668843 
L 579.447212 340.852696 
L 581.78719 341.392068 
L 583.314897 341.940431 
L 585.560129 343.029297 
L 587.75211 344.41334 
L 589.893307 346.063852 
L 591.986019 347.949563 
L 594.032395 350.040109 
L 596.034441 352.304555 
L 598.638112 355.540044 
L 602.411052 360.699076 
L 615.060151 378.957756 
L 619.261974 384.273543 
L 621.293357 386.594938 
L 623.771365 389.18606 
L 625.707021 391.022372 
L 627.602969 392.664474 
L 629.919486 394.474324 
L 633.948296 397.187176 
L 638.227958 399.653819 
L 657.078438 409.689627 
L 659.102406 410.607061 
L 661.409012 411.482211 
L 663.341295 412.035168 
L 665.545724 412.431525 
L 667.698798 412.569513 
L 669.802854 412.477652 
L 671.860075 412.210088 
L 678.042721 411.025577 
L 680.192217 410.787229 
L 682.292858 410.809405 
L 684.346813 411.170152 
L 686.356114 411.933729 
L 688.565562 413.327633 
L 690.723423 415.330678 
L 692.600121 417.62964 
L 694.893643 421.184286 
L 696.910251 424.994052 
L 698.883796 429.321511 
L 701.028305 434.634281 
L 703.124181 440.353463 
L 707.376647 452.981774 
L 711.442031 465.186193 
L 713.687263 471.405281 
L 715.698551 476.360159 
L 717.84389 480.799814 
L 719.940559 484.150312 
L 721.990718 486.401666 
L 723.996384 487.666658 
L 726.121172 488.088083 
L 728.198208 487.75855 
L 730.22959 486.879962 
L 732.368427 485.538549 
L 734.458886 483.954187 
L 738.644303 480.414021 
L 744.917378 475.067684 
L 749.042991 471.80547 
L 753.233606 468.71103 
L 761.636359 462.898118 
L 772.032046 455.729572 
L 788.71895 443.997635 
L 794.986053 439.938591 
L 809.572356 430.915581 
L 815.778503 427.23782 
L 819.969436 425.042285 
L 824.146542 423.065818 
L 828.303597 421.277358 
L 834.558892 418.785937 
L 836.634817 417.779766 
L 838.712938 416.497904 
L 840.792098 414.746089 
L 842.87121 412.468273 
L 844.949261 409.663068 
L 847.068972 406.266789 
L 849.141157 402.605067 
L 851.209654 241.855363 
L 853.314515 400.580848 
L 855.372506 237.734772 
L 857.46373 301.266222 
L 859.546834 325.370254 
L 861.621326 306.60726 
L 863.723224 296.455575 
L 865.814032 325.746995 
L 867.893444 274.818785 
L 869.961185 248.65389 
L 872.050337 233.024725 
L 874.125892 266.994459 
L 876.219577 253.845725 
L 878.298028 266.843416 
L 880.39167 224.03371 
L 882.468705 270.639769 
L 884.558308 218.753722 
L 886.63017 272.663248 
L 888.712264 205.012872 
L 890.8029 193.538826 
L 892.873891 189.101566 
L 894.951518 193.218767 
L 897.034332 197.049397 
L 899.120973 217.038016 
L 901.21016 245.615613 
L 903.276934 160.115445 
L 905.368228 154.691831 
L 907.458686 413.249825 
L 909.547331 305.743542 
L 911.611535 162.495473 
L 913.694361 419.101517 
L 915.79357 422.802376 
L 917.866454 245.890197 
L 919.953411 141.030494 
L 922.033092 422.711112 
L 924.104954 424.346004 
L 926.187048 424.148136 
L 928.277685 425.687391 
L 930.357541 424.859965 
L 932.443638 422.469475 
L 934.517591 424.007263 
L 936.612328 342.094602 
L 938.693045 419.423745 
L 940.775481 422.434286 
L 942.8585 444.358497 
L 944.941042 454.641061 
L 947.022115 463.572003 
L 949.100795 481.105975 
L 951.190375 335.187761 
L 953.261435 473.523577 
L 955.354768 500.33453 
L 957.428195 287.513818 
L 959.507877 501.179671 
L 961.592385 514.249256 
L 963.680379 509.259441 
L 965.758513 521.472041 
L 967.838235 521.031377 
L 969.929977 496.097797 
L 969.929977 496.097797 
" style="fill:none;stroke:#00bfbf;stroke-linecap:square;stroke-width:2;"/>
   </g>
   <g id="line2d_80">
    <path clip-path="url(#pef3ea8697b)" d="M -1 243.64572 
L 139.307142 243.64605 
L 203.370709 244.054992 
L 267.434276 244.790061 
L 319.156312 245.707096 
L 383.219879 246.923857 
L 401.164591 247.045161 
L 416.185271 246.933198 
L 429.102656 246.596749 
L 440.434076 246.045966 
L 450.526732 245.291359 
L 459.624976 244.344374 
L 467.907308 243.219709 
L 475.508097 241.937817 
L 482.531033 240.525362 
L 486.933017 239.526303 
L 495.153916 237.432136 
L 502.702942 235.265541 
L 511.347012 232.533682 
L 520.754195 229.300926 
L 530.641007 225.663387 
L 552.065084 217.586805 
L 558.22898 215.555718 
L 562.1211 214.460077 
L 566.766509 213.432583 
L 568.56121 213.139385 
L 572.901171 212.728114 
L 577.046448 212.805175 
L 579.447212 213.094297 
L 583.314897 213.978417 
L 585.560129 214.739522 
L 587.75211 215.658246 
L 589.893307 216.715334 
L 594.032395 219.13607 
L 602.411052 224.515847 
L 604.843408 225.83121 
L 606.626566 226.646437 
L 608.951826 227.499566 
L 611.220018 228.107018 
L 612.885364 228.426226 
L 615.060151 228.708696 
L 619.261974 228.94798 
L 625.707021 228.931474 
L 688.565562 227.688419 
L 694.893643 227.33102 
L 701.028305 226.787657 
L 711.442031 225.603725 
L 730.22959 223.249474 
L 738.644303 221.98657 
L 747.003202 220.463554 
L 753.233606 219.127803 
L 761.636359 217.071589 
L 772.032046 214.235546 
L 786.64378 210.180178 
L 792.891584 208.63625 
L 799.111144 207.342672 
L 805.350728 206.359125 
L 811.645025 205.696364 
L 817.897722 205.335656 
L 822.052975 205.275425 
L 826.193734 205.410782 
L 830.366368 205.815252 
L 834.558892 206.56343 
L 838.712938 207.661976 
L 842.87121 209.02456 
L 849.141157 211.225492 
L 851.209654 197.351791 
L 853.314515 213.005483 
L 855.372506 205.179201 
L 857.46373 211.818114 
L 859.546834 216.792603 
L 861.621326 218.044724 
L 865.814032 204.584657 
L 867.893444 198.335714 
L 869.961185 196.936485 
L 872.050337 203.771596 
L 874.125892 199.49382 
L 876.219577 193.889831 
L 878.298028 191.327145 
L 880.39167 195.380674 
L 882.468705 188.143361 
L 884.558308 194.040044 
L 886.63017 191.911493 
L 888.712264 192.075372 
L 890.8029 212.433789 
L 892.873891 194.701906 
L 894.951518 191.006178 
L 897.034332 183.093287 
L 899.120973 178.891098 
L 901.21016 181.419638 
L 903.276934 185.031668 
L 905.368228 172.079309 
L 907.458686 213.24585 
L 909.547331 216.234108 
L 911.611535 134.698167 
L 913.694361 216.339717 
L 915.79357 213.82962 
L 917.866454 186.88831 
L 919.953411 125.98623 
L 922.033092 218.53179 
L 924.104954 217.14119 
L 926.187048 217.777967 
L 928.277685 219.277843 
L 930.357541 220.437563 
L 932.443638 221.980565 
L 934.517591 224.113413 
L 936.612328 222.546731 
L 938.693045 227.600663 
L 940.775481 230.06334 
L 944.941042 236.432324 
L 947.022115 238.651459 
L 949.100795 241.850215 
L 951.190375 241.021884 
L 953.261435 247.515576 
L 955.354768 251.80667 
L 957.428195 248.546793 
L 959.507877 256.593192 
L 961.592385 262.152059 
L 963.680379 263.157607 
L 965.758513 264.748804 
L 967.838235 267.58184 
L 969.929977 263.978102 
L 969.929977 263.978102 
" style="fill:none;stroke:#0000ff;stroke-dasharray:16,16;stroke-dashoffset:0;stroke-width:4;"/>
   </g>
   <g id="line2d_81">
    <path clip-path="url(#pef3ea8697b)" d="M -1 380.388068 
L 139.307142 380.389133 
L 203.370709 382.826604 
L 240.845493 385.406481 
L 267.434276 387.977901 
L 288.058138 390.4773 
L 304.90906 392.873873 
L 319.156312 395.152138 
L 331.497842 397.304681 
L 352.121705 401.220182 
L 389.596489 408.68637 
L 401.164591 410.720171 
L 411.44453 412.195757 
L 416.185271 412.72335 
L 420.694663 413.111737 
L 424.994238 413.362589 
L 429.102656 413.478532 
L 433.036194 413.462993 
L 436.809134 413.320322 
L 440.434076 413.055752 
L 443.922195 412.675268 
L 447.283445 412.185673 
L 450.526732 411.594363 
L 456.690629 410.13936 
L 462.469022 408.381295 
L 467.907308 406.397416 
L 473.043306 404.267013 
L 480.248838 400.962806 
L 499.005482 392.05403 
L 504.497643 389.757968 
L 511.347012 387.229149 
L 517.723623 385.133134 
L 526.532589 382.22745 
L 530.641007 380.681929 
L 534.574545 379.013063 
L 539.571664 376.5825 
L 543.149822 374.615981 
L 547.714907 371.839475 
L 554.165724 367.510445 
L 562.1211 362.066052 
L 566.766509 359.288206 
L 568.56121 358.376801 
L 571.189563 357.258811 
L 572.901171 356.691542 
L 575.410579 356.123064 
L 577.046448 355.938438 
L 579.447212 355.958749 
L 581.78719 356.338054 
L 583.314897 356.789183 
L 585.560129 357.758608 
L 587.75211 359.070491 
L 589.893307 360.712826 
L 591.986019 362.67065 
L 594.032395 364.927448 
L 596.034441 367.464448 
L 598.638112 371.245386 
L 600.543833 374.347276 
L 602.411052 377.644772 
L 606.626566 385.906648 
L 611.220018 395.815841 
L 619.261974 413.477173 
L 621.293357 417.646532 
L 623.771365 422.430997 
L 625.707021 425.897186 
L 627.602969 429.03698 
L 629.919486 432.512861 
L 632.179358 435.518204 
L 633.948296 437.61302 
L 636.112896 439.887254 
L 638.227958 441.83056 
L 640.2957 443.497369 
L 642.318192 444.938318 
L 646.617767 447.524145 
L 650.726185 449.571756 
L 655.009153 451.398026 
L 659.102406 452.853122 
L 663.341295 453.982785 
L 665.545724 454.393305 
L 669.802854 454.871993 
L 676.120008 455.290007 
L 678.042721 455.535984 
L 680.192217 455.992482 
L 682.292858 456.702975 
L 684.346813 457.732885 
L 686.356114 459.139536 
L 688.565562 461.230925 
L 690.723423 463.918568 
L 692.600121 466.834005 
L 694.893643 471.191897 
L 696.910251 475.783792 
L 698.883796 480.978483 
L 701.028305 487.386076 
L 703.124181 494.374598 
L 705.173582 501.827031 
L 709.33486 518.407015 
L 715.698551 544.810542 
L 717.84389 552.815746 
L 719.940559 559.500914 
L 721.990718 564.52987 
L 723.996384 567.754829 
L 726.121172 569.308379 
L 728.198208 569.21875 
L 730.22959 567.951346 
L 732.368427 565.807438 
L 736.503106 560.612072 
L 740.737015 555.244855 
L 742.783391 552.88514 
L 744.917378 550.645843 
L 747.003202 548.663672 
L 749.042991 546.933251 
L 751.162048 545.311501 
L 753.233606 543.881014 
L 757.472911 541.319938 
L 765.72564 536.912099 
L 772.032046 533.456588 
L 786.64378 525.123393 
L 790.748548 523.110698 
L 794.986053 521.364616 
L 799.111144 519.942262 
L 803.270576 518.744809 
L 807.452138 517.694963 
L 811.645025 516.875669 
L 813.734869 516.635555 
L 815.778503 516.528223 
L 819.969436 516.765313 
L 826.193734 517.628579 
L 830.366368 518.210975 
L 832.486401 518.41004 
L 834.558892 518.408214 
L 836.634817 518.050648 
L 838.712938 517.148659 
L 840.792098 515.442481 
L 842.87121 512.86149 
L 844.949261 509.461392 
L 847.068972 505.216206 
L 849.141157 500.673549 
L 851.209654 289.26405 
L 853.314515 489.880761 
L 855.372506 284.394598 
L 857.46373 375.467598 
L 859.546834 382.987733 
L 861.621326 361.305064 
L 863.723224 341.789181 
L 865.814032 383.285858 
L 867.893444 316.645324 
L 869.961185 311.718766 
L 872.050337 284.072612 
L 874.125892 335.756485 
L 876.219577 299.560912 
L 878.298028 349.386799 
L 880.39167 281.674185 
L 882.468705 344.045732 
L 884.558308 265.907378 
L 886.63017 348.080519 
L 888.712264 262.284564 
L 890.8029 245.556791 
L 892.873891 242.166203 
L 894.951518 249.977157 
L 897.034332 261.797888 
L 899.120973 291.416959 
L 901.21016 327.364939 
L 903.276934 215.939673 
L 905.368228 217.339019 
L 907.458686 491.015102 
L 909.547331 363.052803 
L 911.611535 213.596024 
L 913.694361 495.852313 
L 915.79357 491.988157 
L 917.866454 316.637722 
L 919.953411 191.640763 
L 922.033092 488.336103 
L 924.104954 497.942398 
L 926.187048 497.484622 
L 928.277685 498.055738 
L 930.357541 496.018641 
L 932.443638 496.164456 
L 934.517591 485.217313 
L 936.612328 397.253673 
L 938.693045 485.476635 
L 942.8585 515.217235 
L 944.941042 522.53738 
L 947.022115 528.652149 
L 949.100795 538.007744 
L 951.190375 423.989423 
L 953.261435 540.23519 
L 955.354768 553.626762 
L 957.428195 337.835816 
L 959.507877 559.002038 
L 961.592385 562.065541 
L 963.680379 567.301826 
L 965.758513 567.109207 
L 967.838235 575.863937 
L 969.929977 565.226147 
L 969.929977 565.226147 
" style="fill:none;stroke:#0000ff;stroke-linecap:square;stroke-width:2;"/>
   </g>
   <g id="line2d_82">
    <path clip-path="url(#pef3ea8697b)" d="M -1 274.593031 
L 139.307142 274.593337 
L 203.370709 274.942518 
L 267.434276 275.561511 
L 319.156312 276.323936 
L 383.219879 277.337755 
L 401.164591 277.419154 
L 416.185271 277.275053 
L 429.102656 276.904213 
L 440.434076 276.312263 
L 450.526732 275.512292 
L 459.624976 274.525864 
L 467.907308 273.382844 
L 475.508097 272.118597 
L 484.75823 270.306629 
L 493.166223 268.417871 
L 502.702942 266.026663 
L 511.347012 263.647815 
L 520.754195 260.831433 
L 530.641007 257.650425 
L 543.149822 253.640242 
L 549.915587 251.737598 
L 554.165724 250.731257 
L 558.22898 249.959517 
L 562.1211 249.44514 
L 566.766509 249.200263 
L 568.56121 249.235267 
L 572.901171 249.676285 
L 575.410579 250.192233 
L 577.046448 250.643328 
L 579.447212 251.481398 
L 583.314897 253.302782 
L 585.560129 254.639977 
L 587.75211 256.146626 
L 589.893307 257.805832 
L 594.032395 261.486642 
L 598.638112 266.093202 
L 602.411052 269.928436 
L 606.626566 273.810766 
L 608.951826 275.622278 
L 611.220018 277.120135 
L 612.885364 278.05143 
L 615.060151 279.070115 
L 617.184938 279.878212 
L 621.293357 281.041981 
L 625.707021 281.907995 
L 629.919486 282.522641 
L 638.227958 283.430328 
L 646.617767 284.127954 
L 655.009153 284.622 
L 661.409012 284.80617 
L 667.698798 284.797532 
L 676.120008 284.514088 
L 682.292858 284.119051 
L 688.565562 283.530263 
L 698.883796 282.25137 
L 709.33486 281.060678 
L 726.121172 279.244674 
L 734.458886 278.146701 
L 742.783391 276.824317 
L 751.162048 275.219096 
L 759.521807 273.353968 
L 769.943837 270.774414 
L 784.520945 267.151047 
L 790.748548 265.788455 
L 797.034108 264.641274 
L 803.270576 263.805394 
L 807.452138 263.436546 
L 811.645025 263.223194 
L 815.778503 263.164239 
L 819.969436 263.266709 
L 824.146542 263.560042 
L 828.303597 264.083347 
L 832.486401 264.886497 
L 836.634817 265.978528 
L 840.792098 267.318106 
L 849.141157 270.25509 
L 851.209654 257.853703 
L 853.314515 271.938383 
L 855.372506 265.103136 
L 857.46373 271.841469 
L 859.546834 275.534338 
L 861.621326 276.759749 
L 863.723224 270.584293 
L 865.814032 265.477367 
L 867.893444 259.505975 
L 869.961185 260.345266 
L 872.050337 265.730452 
L 874.125892 262.525952 
L 876.219577 255.617067 
L 878.298028 255.045425 
L 880.39167 259.746 
L 882.468705 251.841409 
L 884.558308 255.304967 
L 886.63017 255.981496 
L 888.712264 257.449303 
L 890.8029 273.757353 
L 892.873891 257.98071 
L 894.951518 256.705441 
L 897.034332 250.853333 
L 899.120973 245.977872 
L 901.21016 247.781323 
L 903.276934 250.16868 
L 905.368228 242.196293 
L 907.458686 273.105919 
L 909.547331 275.67384 
L 911.611535 201.037813 
L 913.694361 275.697997 
L 915.79357 274.172892 
L 917.866454 252.946895 
L 919.953411 192.864031 
L 922.033092 278.108139 
L 924.104954 277.660969 
L 926.187048 278.442321 
L 928.277685 279.96758 
L 930.357541 281.231138 
L 934.517591 284.87316 
L 936.612328 284.05157 
L 938.693045 289.174577 
L 942.8585 294.806615 
L 944.941042 298.000265 
L 947.022115 300.241377 
L 949.100795 303.251523 
L 951.190375 298.053796 
L 953.261435 309.70367 
L 955.354768 313.492441 
L 957.428195 308.298209 
L 959.507877 318.600003 
L 961.592385 323.326951 
L 963.680379 325.31416 
L 965.758513 327.013255 
L 967.838235 330.047315 
L 969.929977 329.433147 
L 969.929977 329.433147 
" style="fill:none;stroke:#008000;stroke-dasharray:16,16;stroke-dashoffset:0;stroke-width:4;"/>
   </g>
   <g id="line2d_83">
    <path clip-path="url(#pef3ea8697b)" d="M -1 430.874247 
L 139.307142 430.875694 
L 203.370709 433.871251 
L 240.845493 436.957629 
L 267.434276 439.958298 
L 288.058138 442.793858 
L 304.90906 445.4235 
L 331.497842 449.987342 
L 352.121705 453.569812 
L 360.930671 454.986331 
L 368.972627 456.153863 
L 376.370509 457.075245 
L 383.219879 457.755195 
L 389.596489 458.200291 
L 395.561409 458.418931 
L 401.164591 458.421252 
L 406.447411 458.218931 
L 411.44453 457.824871 
L 416.185271 457.252921 
L 420.694663 456.517584 
L 424.994238 455.633691 
L 429.102656 454.616057 
L 433.036194 453.47926 
L 436.809134 452.237447 
L 440.434076 450.904312 
L 447.283445 448.015092 
L 453.660056 444.906214 
L 459.624976 441.65948 
L 465.228158 438.343828 
L 473.043306 433.360994 
L 482.531033 426.909199 
L 507.985762 409.240909 
L 517.723623 402.868699 
L 530.641007 394.402241 
L 554.165724 378.591357 
L 558.22898 376.164087 
L 562.1211 374.074903 
L 566.766509 372.020462 
L 568.56121 371.394407 
L 571.189563 370.685939 
L 572.901171 370.376107 
L 575.410579 370.168205 
L 577.046448 370.207292 
L 579.447212 370.541006 
L 581.78719 371.211933 
L 583.314897 371.848692 
L 585.560129 373.088413 
L 587.75211 374.666753 
L 589.893307 376.57725 
L 591.986019 378.809942 
L 594.032395 381.352125 
L 596.034441 384.188074 
L 598.638112 388.393153 
L 600.543833 391.835025 
L 602.411052 395.49364 
L 606.626566 404.692862 
L 611.220018 415.868622 
L 625.707021 452.53505 
L 629.919486 461.933894 
L 633.948296 469.942847 
L 636.112896 473.821139 
L 638.227958 477.323513 
L 640.2957 480.482148 
L 642.318192 483.330175 
L 644.688173 486.385451 
L 646.617767 488.668609 
L 650.726185 493.000433 
L 655.009153 496.891972 
L 659.102406 500.150929 
L 663.341295 503.155514 
L 667.698798 505.929498 
L 673.872501 509.484166 
L 680.192217 513.071271 
L 682.292858 514.385879 
L 684.346813 515.805348 
L 686.356114 517.384492 
L 688.565562 519.424447 
L 690.723423 521.822718 
L 692.600121 524.315963 
L 694.893643 527.971814 
L 696.910251 531.804351 
L 698.883796 536.150919 
L 701.028305 541.552755 
L 703.124181 547.484635 
L 705.173582 553.851957 
L 709.33486 568.129523 
L 719.940559 606.466338 
L 721.990718 613.052527 
L 723.996384 618.931304 
L 726.121172 624.450175 
L 728.198208 629.069425 
L 730.22959 632.821201 
L 732.368427 635.973587 
L 734.458886 638.320773 
L 736.503106 640.008472 
L 738.644303 641.223786 
L 740.737015 641.978964 
L 742.783391 642.394049 
L 744.917378 642.583068 
L 747.003202 642.568769 
L 751.162048 642.207143 
L 755.377562 641.558014 
L 761.636359 640.315426 
L 767.807354 638.829684 
L 774.074115 637.050153 
L 780.393003 634.987512 
L 786.64378 632.699383 
L 794.986053 629.347186 
L 811.645025 622.369621 
L 822.052975 617.632018 
L 824.146542 616.845956 
L 826.193734 616.20418 
L 828.303597 615.70562 
L 830.366368 615.396474 
L 832.486401 615.284516 
L 834.558892 615.37163 
L 840.792098 616.23338 
L 842.87121 616.141356 
L 844.949261 615.435883 
L 847.068972 613.812444 
L 849.141157 611.439497 
L 851.209654 414.623328 
L 853.314515 597.241411 
L 855.372506 416.157985 
L 857.46373 523.050192 
L 859.546834 509.685693 
L 861.621326 488.974645 
L 863.723224 479.642264 
L 865.814032 494.259257 
L 867.893444 435.061295 
L 869.961185 483.636229 
L 872.050337 431.347229 
L 874.125892 507.250234 
L 876.219577 416.673837 
L 878.298028 489.40768 
L 880.39167 441.706105 
L 882.468705 453.192368 
L 884.558308 393.369077 
L 886.63017 456.522344 
L 890.8029 379.90145 
L 892.873891 385.451279 
L 894.951518 402.700409 
L 897.034332 417.148851 
L 899.120973 459.605782 
L 901.21016 452.179954 
L 903.276934 360.388291 
L 905.368228 367.296044 
L 907.458686 577.011482 
L 909.547331 500.130579 
L 911.611535 328.815333 
L 913.694361 578.837734 
L 915.79357 584.963061 
L 917.866454 473.27595 
L 919.953411 310.317424 
L 922.033092 587.84746 
L 924.104954 581.603222 
L 926.187048 581.843178 
L 928.277685 581.94192 
L 930.357541 583.103796 
L 932.443638 583.276985 
L 934.517591 584.007859 
L 936.612328 545.293803 
L 938.693045 585.801258 
L 940.775481 588.64354 
L 942.8585 590.444926 
L 944.941042 592.455964 
L 947.022115 594.761366 
L 949.100795 596.590182 
L 951.190375 559.059743 
L 953.261435 604.469302 
L 955.354768 605.109885 
L 957.428195 475.34654 
L 959.507877 612.986119 
L 961.592385 613.54485 
L 963.680379 620.690494 
L 965.758513 622.087549 
L 967.838235 628.370796 
L 969.929977 629.203789 
L 969.929977 629.203789 
" style="fill:none;stroke:#008000;stroke-linecap:square;stroke-width:2;"/>
   </g>
   <g id="line2d_84">
    <path clip-path="url(#pef3ea8697b)" d="M -1 287.276857 
L 139.307142 287.277155 
L 288.058138 287.873182 
L 331.497842 287.970673 
L 360.930671 287.825183 
L 383.219879 287.449264 
L 395.561409 287.068932 
L 406.447411 286.582494 
L 416.185271 285.988681 
L 424.994238 285.287717 
L 433.036194 284.48211 
L 440.434076 283.577397 
L 447.283445 282.582756 
L 456.690629 280.951196 
L 465.228158 279.201997 
L 473.043306 277.395152 
L 482.531033 274.98839 
L 497.099761 271.019766 
L 517.723623 265.398911 
L 526.532589 263.238681 
L 533.281878 261.822231 
L 537.106873 261.156287 
L 543.149822 260.370328 
L 547.714907 260.041058 
L 552.065084 259.982886 
L 556.219679 260.200752 
L 560.195526 260.701926 
L 562.1211 261.061765 
L 566.766509 262.290934 
L 568.56121 262.917952 
L 572.901171 264.833528 
L 577.046448 267.253959 
L 579.447212 268.948369 
L 583.314897 272.16491 
L 585.560129 274.318609 
L 587.75211 276.626401 
L 589.893307 279.072171 
L 594.032395 284.287143 
L 598.638112 290.624606 
L 602.411052 295.881104 
L 606.626566 301.287141 
L 608.951826 303.864363 
L 611.220018 306.028206 
L 612.885364 307.387648 
L 615.060151 308.881764 
L 617.184938 310.062964 
L 619.261974 310.989682 
L 621.293357 311.715378 
L 623.771365 312.407068 
L 627.602969 313.164356 
L 632.179358 313.731347 
L 638.227958 314.147316 
L 659.102406 315.168887 
L 665.545724 315.873135 
L 671.860075 316.802453 
L 690.723423 319.92638 
L 696.910251 320.554862 
L 703.124181 320.904658 
L 709.33486 320.99539 
L 715.698551 320.819419 
L 721.990718 320.400371 
L 728.198208 319.784241 
L 734.458886 318.979374 
L 740.737015 317.994125 
L 749.042991 316.432105 
L 757.472911 314.586085 
L 767.807354 312.073058 
L 782.4361 308.472163 
L 788.71895 307.117896 
L 794.986053 306.023598 
L 799.111144 305.495665 
L 803.270576 305.148185 
L 807.452138 304.999373 
L 811.645025 305.052925 
L 815.778503 305.302777 
L 819.969436 305.768287 
L 824.146542 306.481356 
L 828.303597 307.489464 
L 832.486401 308.85754 
L 836.634817 310.59302 
L 840.792098 312.658841 
L 847.068972 316.108496 
L 849.141157 317.284541 
L 851.209654 304.49403 
L 853.314515 319.89697 
L 855.372506 312.890451 
L 857.46373 320.251492 
L 859.546834 325.098565 
L 861.621326 326.860796 
L 863.723224 320.583855 
L 865.814032 315.259012 
L 867.893444 309.616742 
L 869.961185 310.203443 
L 872.050337 316.768694 
L 874.125892 313.57638 
L 876.219577 307.760384 
L 878.298028 306.925421 
L 880.39167 311.991148 
L 882.468705 304.865173 
L 884.558308 310.114171 
L 886.63017 309.920154 
L 888.712264 311.932862 
L 890.8029 331.426489 
L 892.873891 315.00295 
L 894.951518 313.276816 
L 897.034332 306.248655 
L 899.120973 302.10882 
L 901.21016 305.081661 
L 903.276934 310.469209 
L 905.368228 299.10036 
L 907.458686 333.363318 
L 909.547331 336.330424 
L 911.611535 261.59362 
L 913.694361 337.574794 
L 915.79357 336.343714 
L 917.866454 316.082459 
L 919.953411 255.808205 
L 922.033092 342.080462 
L 924.104954 341.859803 
L 926.187048 343.146225 
L 932.443638 349.358467 
L 934.517591 352.015723 
L 936.612328 352.330558 
L 938.693045 357.145258 
L 944.941042 367.476025 
L 947.022115 370.214309 
L 949.100795 373.553015 
L 951.190375 371.144133 
L 953.261435 381.149738 
L 955.354768 385.260765 
L 957.428195 384.894654 
L 959.507877 391.231259 
L 961.592385 395.909836 
L 963.680379 399.030049 
L 965.758513 400.463081 
L 967.838235 404.313673 
L 969.929977 403.912918 
L 969.929977 403.912918 
" style="fill:none;stroke:#ffa500;stroke-dasharray:16,16;stroke-dashoffset:0;stroke-width:4;"/>
   </g>
   <g id="line2d_85">
    <path clip-path="url(#pef3ea8697b)" d="M -1 438.148362 
L 139.307142 438.15144 
L 203.370709 443.05173 
L 240.845493 447.938378 
L 267.434276 452.61912 
L 288.058138 456.931157 
L 319.156312 463.848289 
L 331.497842 466.192703 
L 342.383844 467.676053 
L 352.121705 468.273617 
L 360.930671 468.019471 
L 368.972627 466.998312 
L 376.370509 465.328064 
L 383.219879 463.13982 
L 389.596489 460.560752 
L 395.561409 457.703335 
L 401.164591 454.66057 
L 406.447411 451.505646 
L 411.44453 448.293907 
L 416.185271 445.066115 
L 424.994238 438.670778 
L 433.036194 432.463143 
L 443.922195 423.639323 
L 456.690629 412.89546 
L 477.90886 394.96304 
L 486.933017 387.679717 
L 495.153916 381.421139 
L 500.8727 377.34768 
L 504.497643 374.902839 
L 511.347012 370.587393 
L 517.723623 366.899809 
L 526.532589 362.152081 
L 554.165724 347.663803 
L 558.22898 345.770913 
L 562.1211 344.164961 
L 566.766509 342.639529 
L 568.56121 342.200528 
L 571.189563 341.745654 
L 572.901171 341.586948 
L 575.410579 341.579563 
L 577.046448 341.735642 
L 579.447212 342.22161 
L 581.78719 343.01946 
L 583.314897 343.72839 
L 585.560129 345.060104 
L 587.75211 346.713844 
L 589.893307 348.686081 
L 591.986019 350.969371 
L 594.032395 353.552967 
L 596.034441 356.422571 
L 598.638112 360.662211 
L 600.543833 364.123238 
L 602.411052 367.796004 
L 606.626566 377.013835 
L 611.220018 388.202673 
L 617.184938 403.635848 
L 623.771365 420.482819 
L 627.602969 429.650434 
L 629.919486 434.855581 
L 633.948296 443.203975 
L 636.112896 447.298057 
L 638.227958 451.031719 
L 640.2957 454.433651 
L 642.318192 457.534321 
L 644.688173 460.902007 
L 646.617767 463.450444 
L 650.726185 468.375158 
L 655.009153 472.917937 
L 659.102406 476.826812 
L 663.341295 480.528632 
L 667.698798 484.041384 
L 673.872501 488.669628 
L 680.192217 493.363784 
L 684.346813 496.804523 
L 686.356114 498.707576 
L 688.565562 501.080426 
L 690.723423 503.771195 
L 692.600121 506.484395 
L 694.893643 510.355513 
L 696.910251 514.320444 
L 698.883796 518.738437 
L 701.028305 524.143555 
L 703.124181 529.998677 
L 705.173582 536.207324 
L 709.33486 549.891495 
L 717.84389 578.799625 
L 719.940559 585.395895 
L 721.990718 591.459905 
L 723.996384 596.964443 
L 726.121172 602.299891 
L 728.198208 607.005383 
L 730.22959 611.128402 
L 732.368427 614.981386 
L 734.458886 618.302221 
L 736.503106 621.164432 
L 738.644303 623.805837 
L 740.737015 626.0722 
L 742.783391 628.025227 
L 744.917378 629.808505 
L 747.003202 631.330751 
L 749.042991 632.61786 
L 751.162048 633.761224 
L 753.233606 634.697468 
L 755.377562 635.488519 
L 757.472911 636.092324 
L 759.521807 636.533955 
L 761.636359 636.845255 
L 763.703614 637.01661 
L 767.807354 637.011717 
L 772.032046 636.592235 
L 776.16611 635.838256 
L 780.393003 634.779649 
L 784.520945 633.505999 
L 788.71895 632.011628 
L 794.986053 629.53872 
L 805.350728 625.39676 
L 813.734869 622.072994 
L 819.969436 619.59222 
L 822.052975 618.880877 
L 824.146542 618.28706 
L 826.193734 617.857585 
L 828.303597 617.597106 
L 830.366368 617.537795 
L 832.486401 617.698608 
L 834.558892 618.073664 
L 836.634817 618.65209 
L 842.87121 620.729231 
L 844.949261 621.023801 
L 847.068972 620.850956 
L 849.141157 620.191131 
L 851.209654 507.832758 
L 853.314515 614.850049 
L 855.372506 507.397298 
L 857.46373 582.491572 
L 859.546834 579.658683 
L 861.621326 566.308608 
L 863.723224 570.195801 
L 865.814032 595.297488 
L 867.893444 538.934669 
L 869.961185 578.00878 
L 872.050337 524.410231 
L 874.125892 617.93973 
L 876.219577 524.553129 
L 878.298028 618.726387 
L 880.39167 537.478941 
L 882.468705 583.059366 
L 884.558308 499.640393 
L 886.63017 584.356687 
L 888.712264 519.527916 
L 890.8029 483.870278 
L 892.873891 491.07114 
L 894.951518 508.265542 
L 897.034332 520.599273 
L 899.120973 577.336946 
L 901.21016 602.344714 
L 903.276934 472.24944 
L 905.368228 478.962801 
L 907.458686 598.820703 
L 909.547331 580.165788 
L 911.611535 446.206404 
L 913.694361 601.677443 
L 915.79357 600.479238 
L 917.866454 590.794073 
L 919.953411 426.129805 
L 922.033092 603.550278 
L 924.104954 600.227384 
L 926.187048 600.271976 
L 928.277685 600.517383 
L 930.357541 601.517179 
L 932.443638 602.063211 
L 936.612328 605.51833 
L 938.693045 606.437373 
L 940.775481 608.35936 
L 942.8585 609.98127 
L 944.941042 612.163549 
L 949.100795 616.952502 
L 951.190375 623.294985 
L 953.261435 625.341359 
L 955.354768 626.852133 
L 957.428195 611.27478 
L 959.507877 635.159447 
L 961.592385 636.991105 
L 963.680379 643.688698 
L 965.758513 644.579273 
L 967.838235 651.717767 
L 969.929977 651.91812 
L 969.929977 651.91812 
" style="fill:none;stroke:#ffa500;stroke-linecap:square;stroke-width:2;"/>
   </g>
   <g id="line2d_86">
    <path clip-path="url(#pef3ea8697b)" d="M -1 318.551045 
L 139.307142 318.550877 
L 304.90906 318.149353 
L 342.383844 317.793333 
L 368.972627 317.309057 
L 389.596489 316.714928 
L 406.447411 316.019245 
L 420.694663 315.22468 
L 433.036194 314.332014 
L 443.922195 313.343775 
L 453.660056 312.26747 
L 462.469022 311.116264 
L 473.043306 309.493224 
L 482.531033 307.804084 
L 493.166223 305.652462 
L 504.497643 303.11363 
L 520.754195 299.450168 
L 526.532589 298.35169 
L 530.641007 297.711754 
L 534.574545 297.245767 
L 539.571664 296.911194 
L 543.149822 296.882072 
L 547.714907 297.142986 
L 552.065084 297.74685 
L 556.219679 298.691746 
L 560.195526 299.974405 
L 562.1211 300.741014 
L 564.936267 302.045289 
L 568.56121 304.066334 
L 572.901171 307.026347 
L 577.046448 310.430198 
L 579.447212 312.662046 
L 583.314897 316.646159 
L 587.75211 321.747927 
L 591.986019 327.013178 
L 598.638112 335.474729 
L 602.411052 339.86945 
L 604.843408 342.315131 
L 606.626566 343.840423 
L 608.951826 345.433289 
L 611.220018 346.532375 
L 612.885364 347.063254 
L 615.060151 347.442145 
L 617.184938 347.523675 
L 619.261974 347.38669 
L 621.293357 347.095257 
L 625.707021 346.102029 
L 629.919486 344.880865 
L 646.617767 339.620537 
L 650.726185 338.626493 
L 655.009153 337.877623 
L 659.102406 337.492244 
L 663.341295 337.464475 
L 667.698798 337.830414 
L 671.860075 338.528589 
L 676.120008 339.553259 
L 680.192217 340.770839 
L 686.356114 342.885754 
L 692.600121 345.054487 
L 696.910251 346.385001 
L 701.028305 347.435262 
L 705.173582 348.245014 
L 709.33486 348.839764 
L 715.698551 349.48279 
L 728.198208 350.423575 
L 757.472911 352.512006 
L 767.807354 353.646683 
L 782.4361 355.563354 
L 797.034108 357.667454 
L 803.270576 358.736858 
L 809.572356 360.071535 
L 813.734869 361.165178 
L 817.897722 362.474022 
L 822.052975 364.018621 
L 826.193734 365.800119 
L 830.366368 367.829135 
L 836.634817 371.232662 
L 849.141157 378.415523 
L 851.209654 373.285761 
L 853.314515 380.985931 
L 855.372506 379.099187 
L 857.46373 382.550202 
L 859.546834 385.214634 
L 861.621326 386.649092 
L 863.723224 385.661757 
L 865.814032 383.505564 
L 867.893444 380.97165 
L 869.961185 380.562033 
L 872.050337 386.617442 
L 874.125892 384.304379 
L 876.219577 382.494232 
L 878.298028 381.895467 
L 880.39167 385.976699 
L 882.468705 382.094136 
L 884.558308 387.75738 
L 886.63017 386.539236 
L 888.712264 389.308639 
L 890.8029 402.165549 
L 892.873891 394.272751 
L 894.951518 393.075011 
L 897.034332 388.387706 
L 899.120973 386.342066 
L 901.21016 389.150507 
L 903.276934 395.742332 
L 905.368228 384.689638 
L 907.458686 411.968879 
L 909.547331 414.739379 
L 911.611535 351.543317 
L 913.694361 417.657132 
L 915.79357 418.998478 
L 917.866454 407.38163 
L 919.953411 347.393472 
L 922.033092 426.914322 
L 924.104954 429.617956 
L 926.187048 432.936518 
L 930.357541 440.759811 
L 932.443638 444.765326 
L 934.517591 449.116219 
L 936.612328 452.199784 
L 938.693045 456.348877 
L 940.775481 460.063015 
L 944.941042 466.34992 
L 949.100795 470.34524 
L 951.190375 469.888964 
L 953.261435 476.480781 
L 955.354768 477.565735 
L 957.428195 481.547471 
L 959.507877 481.824726 
L 961.592385 482.237203 
L 963.680379 486.167703 
L 965.758513 486.771823 
L 967.838235 489.986694 
L 969.929977 487.172529 
L 969.929977 487.172529 
" style="fill:none;stroke:#800080;stroke-dasharray:16,16;stroke-dashoffset:0;stroke-width:4;"/>
   </g>
   <g id="line2d_87">
    <path clip-path="url(#pef3ea8697b)" d="M -1 483.213497 
L 139.307142 483.217958 
L 203.370709 490.169523 
L 240.845493 497.479816 
L 267.434276 505.085847 
L 288.058138 512.910938 
L 304.90906 520.830072 
L 319.156312 528.619741 
L 331.497842 535.898906 
L 342.383844 542.089613 
L 352.121705 546.473513 
L 360.930671 548.422896 
L 368.972627 547.727139 
L 376.370509 544.726908 
L 383.219879 540.106863 
L 389.596489 534.569801 
L 395.561409 528.648613 
L 401.164591 522.679889 
L 411.44453 511.249968 
L 429.102656 491.479651 
L 443.922195 475.268873 
L 459.624976 458.435 
L 475.508097 441.716734 
L 486.933017 430.041625 
L 495.153916 421.990376 
L 500.8727 416.643392 
L 504.497643 413.38497 
L 511.347012 407.534913 
L 517.723623 402.452767 
L 523.688543 397.980434 
L 530.641007 393.02779 
L 539.571664 386.94545 
L 547.714907 381.643831 
L 554.165724 377.684414 
L 560.195526 374.305747 
L 564.936267 371.998861 
L 568.56121 370.538524 
L 572.901171 369.262393 
L 575.410579 368.819705 
L 577.046448 368.668503 
L 579.447212 368.666944 
L 581.78719 368.9445 
L 583.314897 369.288203 
L 585.560129 370.044649 
L 587.75211 371.090791 
L 589.893307 372.424016 
L 591.986019 374.03829 
L 594.032395 375.924402 
L 596.034441 378.069826 
L 598.638112 381.305848 
L 600.543833 383.988599 
L 602.411052 386.864181 
L 604.843408 390.950863 
L 606.626566 394.166561 
L 611.220018 403.120742 
L 617.184938 415.527403 
L 623.771365 429.05861 
L 627.602969 436.402039 
L 632.179358 444.404338 
L 636.112896 450.527673 
L 640.2957 456.27193 
L 642.318192 458.785325 
L 646.617767 463.630653 
L 650.726185 467.737173 
L 655.009153 471.606601 
L 659.102406 475.011151 
L 663.341295 478.304738 
L 669.802854 482.987546 
L 680.192217 490.363121 
L 684.346813 493.750554 
L 686.356114 495.61586 
L 688.565562 497.912462 
L 690.723423 500.4669 
L 692.600121 502.986582 
L 694.893643 506.492929 
L 696.910251 509.991545 
L 698.883796 513.797375 
L 701.028305 518.339988 
L 705.173582 528.10913 
L 715.698551 554.545397 
L 717.84389 559.479006 
L 719.940559 564.006237 
L 721.990718 568.126965 
L 723.996384 571.858102 
L 726.121172 575.494 
L 728.198208 578.750792 
L 730.22959 581.676763 
L 732.368427 584.512471 
L 736.503106 589.413924 
L 740.737015 593.843481 
L 744.917378 597.807279 
L 749.042991 601.417472 
L 753.233606 604.824699 
L 757.472911 608.029719 
L 761.636359 610.95911 
L 765.72564 613.644935 
L 769.943837 616.233643 
L 776.16611 619.738506 
L 780.393003 621.909206 
L 784.520945 623.855598 
L 788.71895 625.64831 
L 792.891584 627.245846 
L 799.111144 629.339924 
L 805.350728 631.184955 
L 809.572356 632.264805 
L 813.734869 633.148306 
L 822.052975 634.758108 
L 824.146542 635.309829 
L 826.193734 635.968643 
L 828.303597 636.788943 
L 830.366368 637.740477 
L 832.486401 638.884055 
L 834.558892 640.171976 
L 838.712938 643.209087 
L 842.87121 646.34748 
L 844.949261 647.606261 
L 847.068972 648.479798 
L 849.141157 648.846122 
L 851.209654 640.864089 
L 853.314515 646.31382 
L 855.372506 636.073243 
L 857.46373 645.281391 
L 859.546834 642.830841 
L 861.621326 641.250351 
L 863.723224 642.072122 
L 865.814032 645.906847 
L 867.893444 644.623434 
L 869.961185 664.256751 
L 872.050337 640.622183 
L 874.125892 656.852003 
L 876.219577 644.167993 
L 878.298028 660.135526 
L 880.39167 650.523422 
L 882.468705 660.860596 
L 884.558308 635.409657 
L 886.63017 658.943282 
L 888.712264 648.18014 
L 890.8029 630.319516 
L 892.873891 636.090616 
L 894.951518 646.558939 
L 897.034332 660.284538 
L 899.120973 676.497139 
L 901.21016 670.937398 
L 903.276934 639.597375 
L 905.368228 658.657971 
L 907.458686 643.611813 
L 909.547331 643.683071 
L 911.611535 548.504019 
L 913.694361 647.400734 
L 915.79357 645.479501 
L 917.866454 657.696561 
L 919.953411 518.876853 
L 922.033092 649.424068 
L 924.104954 646.867788 
L 926.187048 647.044465 
L 928.277685 647.440639 
L 930.357541 648.461352 
L 932.443638 649.187917 
L 938.693045 653.434952 
L 940.775481 655.778342 
L 942.8585 657.529039 
L 944.941042 659.723886 
L 949.100795 664.572396 
L 951.190375 677.078282 
L 953.261435 672.626389 
L 955.354768 674.252679 
L 957.428195 681.21594 
L 959.507877 682.035135 
L 961.592385 684.058803 
L 963.680379 690.07189 
L 965.758513 690.938184 
L 967.838235 697.600199 
L 969.929977 697.844163 
L 969.929977 697.844163 
" style="fill:none;stroke:#800080;stroke-linecap:square;stroke-width:2;"/>
   </g>
   <g id="patch_3">
    <path d="M 97.776 640.8 
L 97.776 36 
" style="fill:none;stroke:#000000;stroke-linecap:square;stroke-linejoin:miter;stroke-width:0.8;"/>
   </g>
   <g id="patch_4">
    <path d="M 957.6 640.8 
L 957.6 36 
" style="fill:none;stroke:#000000;stroke-linecap:square;stroke-linejoin:miter;stroke-width:0.8;"/>
   </g>
   <g id="patch_5">
    <path d="M 97.776 640.8 
L 957.6 640.8 
" style="fill:none;stroke:#000000;stroke-linecap:square;stroke-linejoin:miter;stroke-width:0.8;"/>
   </g>
   <g id="patch_6">
    <path d="M 97.776 36 
L 957.6 36 
" style="fill:none;stroke:#000000;stroke-linecap:square;stroke-linejoin:miter;stroke-width:0.8;"/>
   </g>
   <g id="text_13">
    <!-- The Mean and std of the gradients of each layer -->
    <defs>
     <path d="M 18.3125 70.21875 
L 18.3125 54.6875 
L 36.8125 54.6875 
L 36.8125 47.703125 
L 18.3125 47.703125 
L 18.3125 18.015625 
Q 18.3125 11.328125 20.140625 9.421875 
Q 21.96875 7.515625 27.59375 7.515625 
L 36.8125 7.515625 
L 36.8125 0 
L 27.59375 0 
Q 17.1875 0 13.234375 3.875 
Q 9.28125 7.765625 9.28125 18.015625 
L 9.28125 47.703125 
L 2.6875 47.703125 
L 2.6875 54.6875 
L 9.28125 54.6875 
L 9.28125 70.21875 
z
" id="DejaVuSans-116"/>
     <path d="M 37.109375 75.984375 
L 37.109375 68.5 
L 28.515625 68.5 
Q 23.6875 68.5 21.796875 66.546875 
Q 19.921875 64.59375 19.921875 59.515625 
L 19.921875 54.6875 
L 34.71875 54.6875 
L 34.71875 47.703125 
L 19.921875 47.703125 
L 19.921875 0 
L 10.890625 0 
L 10.890625 47.703125 
L 2.296875 47.703125 
L 2.296875 54.6875 
L 10.890625 54.6875 
L 10.890625 58.5 
Q 10.890625 67.625 15.140625 71.796875 
Q 19.390625 75.984375 28.609375 75.984375 
z
" id="DejaVuSans-102"/>
     <path d="M 45.40625 27.984375 
Q 45.40625 37.75 41.375 43.109375 
Q 37.359375 48.484375 30.078125 48.484375 
Q 22.859375 48.484375 18.828125 43.109375 
Q 14.796875 37.75 14.796875 27.984375 
Q 14.796875 18.265625 18.828125 12.890625 
Q 22.859375 7.515625 30.078125 7.515625 
Q 37.359375 7.515625 41.375 12.890625 
Q 45.40625 18.265625 45.40625 27.984375 
z
M 54.390625 6.78125 
Q 54.390625 -7.171875 48.1875 -13.984375 
Q 42 -20.796875 29.203125 -20.796875 
Q 24.46875 -20.796875 20.265625 -20.09375 
Q 16.0625 -19.390625 12.109375 -17.921875 
L 12.109375 -9.1875 
Q 16.0625 -11.328125 19.921875 -12.34375 
Q 23.78125 -13.375 27.78125 -13.375 
Q 36.625 -13.375 41.015625 -8.765625 
Q 45.40625 -4.15625 45.40625 5.171875 
L 45.40625 9.625 
Q 42.625 4.78125 38.28125 2.390625 
Q 33.9375 0 27.875 0 
Q 17.828125 0 11.671875 7.65625 
Q 5.515625 15.328125 5.515625 27.984375 
Q 5.515625 40.671875 11.671875 48.328125 
Q 17.828125 56 27.875 56 
Q 33.9375 56 38.28125 53.609375 
Q 42.625 51.21875 45.40625 46.390625 
L 45.40625 54.6875 
L 54.390625 54.6875 
z
" id="DejaVuSans-103"/>
     <path d="M 41.109375 46.296875 
Q 39.59375 47.171875 37.8125 47.578125 
Q 36.03125 48 33.890625 48 
Q 26.265625 48 22.1875 43.046875 
Q 18.109375 38.09375 18.109375 28.8125 
L 18.109375 0 
L 9.078125 0 
L 9.078125 54.6875 
L 18.109375 54.6875 
L 18.109375 46.1875 
Q 20.953125 51.171875 25.484375 53.578125 
Q 30.03125 56 36.53125 56 
Q 37.453125 56 38.578125 55.875 
Q 39.703125 55.765625 41.0625 55.515625 
z
" id="DejaVuSans-114"/>
     <path d="M 9.421875 54.6875 
L 18.40625 54.6875 
L 18.40625 0 
L 9.421875 0 
z
M 9.421875 75.984375 
L 18.40625 75.984375 
L 18.40625 64.59375 
L 9.421875 64.59375 
z
" id="DejaVuSans-105"/>
     <path d="M 9.421875 75.984375 
L 18.40625 75.984375 
L 18.40625 0 
L 9.421875 0 
z
" id="DejaVuSans-108"/>
     <path d="M 32.171875 -5.078125 
Q 28.375 -14.84375 24.75 -17.8125 
Q 21.140625 -20.796875 15.09375 -20.796875 
L 7.90625 -20.796875 
L 7.90625 -13.28125 
L 13.1875 -13.28125 
Q 16.890625 -13.28125 18.9375 -11.515625 
Q 21 -9.765625 23.484375 -3.21875 
L 25.09375 0.875 
L 2.984375 54.6875 
L 12.5 54.6875 
L 29.59375 11.921875 
L 46.6875 54.6875 
L 56.203125 54.6875 
z
" id="DejaVuSans-121"/>
    </defs>
    <g transform="translate(262.620656 30)scale(0.22 -0.22)">
     <use xlink:href="#DejaVuSans-84"/>
     <use x="61.083984" xlink:href="#DejaVuSans-104"/>
     <use x="124.462891" xlink:href="#DejaVuSans-101"/>
     <use x="185.986328" xlink:href="#DejaVuSans-32"/>
     <use x="217.773438" xlink:href="#DejaVuSans-77"/>
     <use x="304.052734" xlink:href="#DejaVuSans-101"/>
     <use x="365.576172" xlink:href="#DejaVuSans-97"/>
     <use x="426.855469" xlink:href="#DejaVuSans-110"/>
     <use x="490.234375" xlink:href="#DejaVuSans-32"/>
     <use x="522.021484" xlink:href="#DejaVuSans-97"/>
     <use x="583.300781" xlink:href="#DejaVuSans-110"/>
     <use x="646.679688" xlink:href="#DejaVuSans-100"/>
     <use x="710.15625" xlink:href="#DejaVuSans-32"/>
     <use x="741.943359" xlink:href="#DejaVuSans-115"/>
     <use x="794.042969" xlink:href="#DejaVuSans-116"/>
     <use x="833.251953" xlink:href="#DejaVuSans-100"/>
     <use x="896.728516" xlink:href="#DejaVuSans-32"/>
     <use x="928.515625" xlink:href="#DejaVuSans-111"/>
     <use x="989.697266" xlink:href="#DejaVuSans-102"/>
     <use x="1024.902344" xlink:href="#DejaVuSans-32"/>
     <use x="1056.689453" xlink:href="#DejaVuSans-116"/>
     <use x="1095.898438" xlink:href="#DejaVuSans-104"/>
     <use x="1159.277344" xlink:href="#DejaVuSans-101"/>
     <use x="1220.800781" xlink:href="#DejaVuSans-32"/>
     <use x="1252.587891" xlink:href="#DejaVuSans-103"/>
     <use x="1316.064453" xlink:href="#DejaVuSans-114"/>
     <use x="1357.177734" xlink:href="#DejaVuSans-97"/>
     <use x="1418.457031" xlink:href="#DejaVuSans-100"/>
     <use x="1481.933594" xlink:href="#DejaVuSans-105"/>
     <use x="1509.716797" xlink:href="#DejaVuSans-101"/>
     <use x="1571.240234" xlink:href="#DejaVuSans-110"/>
     <use x="1634.619141" xlink:href="#DejaVuSans-116"/>
     <use x="1673.828125" xlink:href="#DejaVuSans-115"/>
     <use x="1725.927734" xlink:href="#DejaVuSans-32"/>
     <use x="1757.714844" xlink:href="#DejaVuSans-111"/>
     <use x="1818.896484" xlink:href="#DejaVuSans-102"/>
     <use x="1854.101562" xlink:href="#DejaVuSans-32"/>
     <use x="1885.888672" xlink:href="#DejaVuSans-101"/>
     <use x="1947.412109" xlink:href="#DejaVuSans-97"/>
     <use x="2008.691406" xlink:href="#DejaVuSans-99"/>
     <use x="2063.671875" xlink:href="#DejaVuSans-104"/>
     <use x="2127.050781" xlink:href="#DejaVuSans-32"/>
     <use x="2158.837891" xlink:href="#DejaVuSans-108"/>
     <use x="2186.621094" xlink:href="#DejaVuSans-97"/>
     <use x="2247.900391" xlink:href="#DejaVuSans-121"/>
     <use x="2307.080078" xlink:href="#DejaVuSans-101"/>
     <use x="2368.603516" xlink:href="#DejaVuSans-114"/>
    </g>
   </g>
  </g>
 </g>
 <defs>
  <clipPath id="pef3ea8697b">
   <rect height="604.8" width="859.824" x="97.776" y="36"/>
  </clipPath>
 </defs>
</svg>
